<svg width="211" height="62" viewBox="0 0 211 62" fill="none" xmlns="http://www.w3.org/2000/svg">
<path d="M199.918 35.2583C199.918 35.2583 136.568 -21.7517 80.1739 -37.9344C61.0331 -43.4252 45.8 -44.3551 34.0289 -43.1794C9.47331 -40.7334 0.869127 -18.0112 18.284 -1.6392C26.638 6.21554 39.0876 14.4773 57.6537 21.5002C112.335 42.1837 199.918 35.2583 199.918 35.2583Z" fill="#BAE3DD"/>
<path d="M52.3653 -12.2455C56.2092 -10.9737 60.0468 -9.71026 63.8907 -8.43846C66.9297 3.17388 69.9668 14.7922 73.0058 26.4046C73.4647 26.5303 73.9254 26.65 74.3861 26.7697C71.3559 15.1861 68.3257 3.6025 65.2937 -7.97506C68.9247 -6.77773 72.5619 -5.57205 76.1929 -4.37472C79.3166 6.72458 81.8388 17.8537 83.7247 28.9829C84.1668 29.0776 84.6089 29.1722 85.043 29.2646C83.1728 18.1989 80.6941 7.12818 77.612 -3.9067C81.1004 -2.75701 84.5951 -1.59897 88.0835 -0.449272C90.4776 10.0923 92.8698 20.6399 95.2639 31.1815C95.7114 31.2581 96.151 31.3323 96.6004 31.4029C94.2264 20.9392 91.8525 10.4755 89.4785 0.0118143C93.1398 1.22442 96.7948 2.42869 100.456 3.6413C103.744 13.4441 106.539 23.2887 108.831 33.1584C109.268 33.2122 109.713 33.2684 110.15 33.3223C107.895 23.5616 105.146 13.8222 101.913 4.12691C105.679 5.36956 109.452 6.61453 113.216 7.86322C116.024 16.6824 118.36 25.5358 120.214 34.4008C120.646 34.4403 121.087 34.4821 121.519 34.5216C119.699 25.7776 117.406 17.0414 114.657 8.3442C117.724 9.35933 120.793 10.3684 123.86 11.3836C126.796 19.3153 129.276 27.2861 131.312 35.2859C131.748 35.3134 132.184 35.3408 132.619 35.3742C130.629 27.512 128.198 19.667 125.334 11.8738C129.075 13.1095 132.817 14.3452 136.558 15.581C139.854 22.2597 142.27 29.0844 143.782 35.9569C144.212 35.976 144.643 35.989 145.073 36.0081C143.61 29.2937 141.275 22.6364 138.12 16.0966C139.396 16.517 140.665 16.9351 141.939 17.3615C142.105 17.5074 142.344 17.6092 142.606 17.5798C143.525 17.8841 144.452 18.1907 145.372 18.495C148.699 24.2322 150.748 30.2174 151.444 36.2122C151.876 36.2252 152.301 36.2299 152.733 36.2429C152.045 30.4272 150.124 24.6232 147.02 19.0421C149.826 19.9689 152.624 20.8934 155.43 21.8202C157.698 26.6164 159.521 31.4743 160.905 36.3697C161.34 36.3707 161.766 36.3754 162.2 36.3824C160.87 31.6535 159.126 26.969 156.976 22.3312C159.583 23.1942 162.19 24.0572 164.792 24.9118C165.678 28.189 166.571 31.4746 167.458 34.7519C167.609 35.2934 167.749 35.8387 167.9 36.3803C168.327 36.379 168.755 36.3776 169.174 36.374C168.955 35.57 168.753 34.7646 168.539 33.9689C167.764 31.1039 166.986 28.2449 166.211 25.3798C168.415 26.1068 170.618 26.8338 172.822 27.5608C174.247 30.4424 175.506 33.3487 176.622 36.2724C177.059 36.2673 177.49 36.2539 177.911 36.2442C176.873 33.5 175.704 30.7838 174.392 28.0788C176.967 28.9325 179.536 29.7779 182.112 30.6316C182.921 32.4313 183.62 34.2455 184.221 36.0704C184.652 36.057 185.083 36.0436 185.498 36.0256C184.965 34.3838 184.34 32.7551 183.641 31.1381C185.195 31.6514 186.748 32.1647 188.302 32.6781C188.785 33.7351 189.267 34.7981 189.759 35.8574C190.2 35.8403 190.624 35.8185 191.039 35.8005C190.639 34.9313 190.248 34.0583 189.848 33.1891C192.17 33.9568 194.484 34.7222 196.807 35.4899C198.827 35.3512 199.918 35.2593 199.918 35.2593C199.918 35.2593 199.15 34.5662 197.705 33.3171C195.122 32.4611 192.537 31.6111 189.945 30.7527C191.205 30.5062 192.41 30.1785 193.572 29.7925C193.253 29.5233 192.926 29.2458 192.576 28.9614C191.063 29.4429 189.463 29.8075 187.788 30.0456C185.981 29.4463 184.181 28.8552 182.374 28.2559C184.82 27.7744 187.161 27.1188 189.369 26.2999C189.039 26.0345 188.711 25.763 188.377 25.4832C186.03 26.3337 183.529 26.996 180.91 27.447C180.735 27.4754 180.616 27.5525 180.545 27.6435C177.223 26.5484 173.903 25.4472 170.582 24.3521C174.643 23.2811 178.627 22.0896 182.543 20.7798C182.205 20.5121 181.861 20.236 181.508 19.9636C177.324 21.3534 173.059 22.6082 168.695 23.7296C165.706 22.7436 162.717 21.7577 159.739 20.7679C165.278 19.2183 170.746 17.5565 176.141 15.7885C175.788 15.5161 175.44 15.2521 175.078 14.9774C169.431 16.83 163.698 18.5598 157.882 20.1607C154.221 18.9481 150.558 17.7416 146.905 16.5313C154.362 14.689 161.683 12.6043 168.863 10.2953C168.499 10.0266 168.136 9.75796 167.772 9.4893C160.326 11.8723 152.728 14.0083 144.971 15.8889C142.555 15.0874 140.144 14.2943 137.735 13.4951C145.245 10.3505 152.747 7.20353 160.257 4.05889C159.897 3.80461 159.538 3.55032 159.171 3.29373C151.481 6.51738 143.792 9.735 136.11 12.961C131.433 11.4163 126.748 9.86935 122.071 8.32469C132.637 5.68085 142.923 2.54983 152.894 -1.03912C152.519 -1.29803 152.133 -1.55322 151.75 -1.81443C141.533 1.84107 130.99 5.01593 120.144 7.69065C115.857 6.27132 111.568 4.85801 107.288 3.44099C118.158 -0.878355 129.029 -5.1977 139.901 -9.52307C139.504 -9.76851 139.116 -10.0116 138.719 -10.2571C127.689 -5.87218 116.658 -1.48126 105.629 2.90363C103.997 2.36114 102.363 1.82468 100.731 1.28219C98.7416 0.623631 96.7524 -0.0349339 94.7695 -0.685156C106.517 -5.63005 118.254 -10.5712 130.001 -15.5161C129.593 -15.7518 129.193 -15.9852 128.784 -16.2209C116.907 -11.2216 105.03 -6.2223 93.1437 -1.2193C90.0766 -2.23443 87.0078 -3.24353 83.9407 -4.25866C95.1556 -10.3009 106.38 -16.3468 117.595 -22.389C117.181 -22.6065 116.768 -22.8241 116.352 -23.0357C105.106 -16.9763 93.8596 -10.9169 82.6133 -4.85756C82.5507 -4.82318 82.5041 -4.78417 82.4735 -4.74055C78.0898 -6.18762 73.7061 -7.63469 69.3242 -9.08779C81.752 -15.3375 94.1718 -21.5896 106.6 -27.8393C106.156 -28.0457 105.713 -28.2521 105.268 -28.4525C92.7774 -22.1684 80.2771 -15.8806 67.7866 -9.59651C64.5048 -10.6801 61.2231 -11.7636 57.9333 -12.8495C68.9026 -20.044 79.8621 -27.2348 90.8315 -34.4293C90.3693 -34.6018 89.8972 -34.7707 89.4331 -34.9372C78.4522 -27.7329 67.4712 -20.5287 56.492 -13.3305C52.9955 -14.4825 49.5009 -15.6406 46.0044 -16.7926C55.3882 -24.7128 65.4183 -32.1452 76.0337 -39.0616C75.5088 -39.1998 74.9821 -39.3319 74.4634 -39.4617C63.9213 -32.5571 53.9743 -25.14 44.6495 -17.2421C38.9732 -19.1142 33.3067 -20.99 27.6304 -22.862C36.0114 -29.9701 44.8742 -36.71 54.1793 -43.0667C53.5452 -43.1315 52.9253 -43.1856 52.3054 -43.2398C43.2374 -37.0048 34.5975 -30.3973 26.4189 -23.4406C26.3705 -23.3956 26.3399 -23.352 26.3076 -23.3023C23.921 -24.0885 21.5364 -24.8808 19.1499 -25.6669C25.4723 -31.6118 31.801 -37.5482 38.1234 -43.4931C37.4683 -43.459 36.8291 -43.4204 36.1864 -43.3697C30.0612 -37.6171 23.9361 -31.8645 17.8092 -26.1058C15.4467 -26.8851 13.0842 -27.6643 10.7236 -28.4496C10.412 -27.7332 10.1484 -27.003 9.93304 -26.2589C10.5914 -26.0429 11.2417 -25.8292 11.8982 -25.6072C13.3615 -18.2835 14.8266 -10.9658 16.2899 -3.64201C16.801 -3.08177 17.3397 -2.52666 17.8999 -1.98501C16.3557 -9.70569 14.8133 -17.4324 13.2691 -25.1531C15.3768 -24.4538 17.4943 -23.7583 19.6019 -23.059C21.5304 -13.9232 23.459 -4.78739 25.3776 4.35215C25.8754 4.72503 26.3811 5.10022 26.8968 5.47169C24.9221 -3.88716 22.9475 -13.246 20.9809 -22.6025C24.2547 -21.5213 27.5284 -20.44 30.8022 -19.3588C32.7518 -8.99115 34.7096 1.37878 36.6592 11.7464C37.1281 12.0126 37.605 12.2812 38.0899 12.5521C36.115 2.06573 34.1401 -8.4206 32.1651 -18.9069C35.0193 -17.9663 37.8797 -17.0173 40.7339 -16.0766C40.8141 -16.0535 40.8925 -16.0243 40.9708 -15.9952C43.7407 -4.96513 45.7974 6.0888 47.1278 17.1235C47.5792 17.3322 48.0323 17.5349 48.4836 17.7437C47.1677 6.66075 45.1273 -4.44746 42.364 -15.5281C42.7293 -15.4097 43.1007 -15.283 43.466 -15.1646C43.5407 -15.1234 43.6209 -15.1003 43.6967 -15.0915C46.0912 -14.303 48.4839 -13.5085 50.8785 -12.72C54.9277 -0.960638 58.2788 10.8596 60.9149 22.7098C61.3808 22.8703 61.8466 23.0308 62.3125 23.1913C59.7219 11.3346 56.3887 -0.487093 52.3653 -12.2455Z" fill="#97C9CE"/>
</svg>
