<svg width="123" height="68" viewBox="0 0 123 68" fill="none" xmlns="http://www.w3.org/2000/svg">
<path d="M34.9981 13.7884C35.017 13.9292 35.0501 14.0696 35.0759 14.2032C35.0837 14.2241 35.0773 14.2456 35.0851 14.2665C35.1109 14.4001 35.1366 14.5336 35.1692 14.6599C35.1697 14.674 35.1775 14.695 35.178 14.7091C35.211 14.8495 35.2368 14.983 35.2767 15.1161C35.2777 15.1444 35.2928 15.1722 35.2937 15.2004C35.3336 15.3335 35.3594 15.4671 35.3993 15.6001C35.4071 15.6211 35.408 15.6494 35.4158 15.6703C35.4557 15.8034 35.4956 15.9365 35.5355 16.0695L35.5428 16.0764C35.5827 16.2094 35.6299 16.3493 35.6766 16.4751C35.6844 16.4961 35.6922 16.517 35.7 16.538C35.7467 16.6638 35.7934 16.7895 35.8402 16.9153C35.848 16.9362 35.8557 16.9572 35.8708 16.985C35.9176 17.1108 35.9716 17.2433 36.0183 17.3691C36.0256 17.3759 36.0188 17.3832 36.0261 17.3901C36.0728 17.5158 36.1264 17.6343 36.1799 17.7527C36.1877 17.7737 36.195 17.7805 36.2028 17.8015C36.2564 17.92 36.3099 18.0384 36.3708 18.1637C36.3786 18.1847 36.3864 18.2056 36.3941 18.2266C36.4477 18.345 36.5085 18.4703 36.5689 18.5815C36.5762 18.5883 36.5767 18.6024 36.5913 18.6161C36.6449 18.7346 36.7126 18.8525 36.7729 18.9637C36.7803 18.9705 36.7734 18.9778 36.7807 18.9846C36.8411 19.0958 36.9088 19.2138 36.9692 19.3249C36.977 19.3459 36.9916 19.3595 36.9921 19.3737C37.0524 19.4848 37.1196 19.5887 37.18 19.6998C37.1873 19.7066 37.1951 19.7276 37.2024 19.7344C37.3373 19.9562 37.479 20.1708 37.6207 20.3853C37.6281 20.3921 37.6358 20.4131 37.6431 20.4199C37.7104 20.5237 37.7844 20.6203 37.8584 20.7168C37.8657 20.7236 37.8803 20.7373 37.8808 20.7514C38.0294 20.9586 38.1842 21.1444 38.3391 21.3302C38.3464 21.337 38.3464 21.337 38.3538 21.3438C38.4346 21.433 38.5013 21.5228 38.5822 21.612C38.5895 21.6188 38.5968 21.6256 38.6041 21.6325C38.685 21.7217 38.7585 21.8041 38.8394 21.8933C39.0006 22.0576 39.1619 22.222 39.3226 22.3722C39.3299 22.379 39.3372 22.3858 39.3372 22.3858C39.4176 22.4609 39.5048 22.5287 39.5779 22.597L39.5852 22.6038C39.7528 22.7467 39.9126 22.8686 40.0865 22.99L40.0938 22.9969C40.1737 23.0578 40.2604 23.1115 40.3398 23.1583L40.3472 23.1651C40.6 23.3193 40.8451 23.4524 41.1034 23.5569L41.1107 23.5637C41.3616 23.6613 41.6048 23.7379 41.847 23.7863L41.8543 23.7931C41.9327 23.8117 42.0107 23.8161 42.096 23.8274C42.2593 23.8431 42.4079 23.8451 42.5702 23.8325C42.6477 23.8228 42.7184 23.8204 42.7954 23.7965C42.7954 23.7965 42.7954 23.7965 42.8022 23.7892C43.8146 23.5992 44.6557 22.7428 45.143 21.0494C47.3844 13.3038 41.6737 4.94401 39.3806 2.00791C40.8834 2.50871 42.3852 2.98124 43.9007 3.43915C44.9372 3.75062 45.9732 4.04794 47.0092 4.34527L48.4594 4.75588C52.3023 5.82808 56.1578 6.85739 59.9812 7.97977C59.9475 8.03044 59.9139 8.08111 59.8729 8.12496C59.7715 8.26283 59.6769 8.3934 59.5754 8.53127C59.5145 8.61117 59.4676 8.69059 59.4067 8.77049C59.3189 8.89375 59.2452 9.01653 59.1574 9.13979C59.1038 9.22651 59.0501 9.31324 58.9965 9.39996C58.9228 9.52274 58.8419 9.6387 58.775 9.75417C58.7214 9.84089 58.6677 9.92762 58.6214 10.0212C58.5545 10.1366 58.4809 10.2594 58.4214 10.3817C58.3677 10.4684 58.3282 10.5547 58.2818 10.6482C58.2223 10.7705 58.1555 10.886 58.096 11.0083C58.0565 11.0946 58.0101 11.1881 57.9633 11.2675C57.9038 11.3898 57.8442 11.5121 57.792 11.6413C57.7525 11.7275 57.713 11.8138 57.6803 11.8927C57.6281 12.0218 57.5759 12.1509 57.5168 12.2874C57.4841 12.3663 57.4514 12.4453 57.4187 12.5242C57.3602 12.6748 57.3085 12.818 57.2499 12.9686C57.2309 13.0329 57.2045 13.0904 57.1782 13.1479C57.1074 13.3555 57.0366 13.5631 56.9731 13.7775C56.9736 13.7916 56.96 13.8062 56.9605 13.8204C56.9033 14.0133 56.8462 14.2063 56.7891 14.3993C56.7701 14.4636 56.7583 14.5347 56.7393 14.5991C56.7017 14.7418 56.6641 14.8846 56.6333 15.0201C56.6148 15.0986 56.5962 15.177 56.5776 15.2555C56.5537 15.3836 56.5156 15.5123 56.4917 15.6405C56.4731 15.7189 56.4618 15.8042 56.4506 15.8895C56.4267 16.0176 56.4095 16.1385 56.3856 16.2667C56.3743 16.352 56.3631 16.4372 56.3445 16.5157C56.3274 16.6366 56.3103 16.7574 56.2932 16.8783C56.2819 16.9636 56.2707 17.0488 56.2594 17.1341C56.2423 17.255 56.2325 17.3827 56.2222 17.4962C56.2109 17.5815 56.2065 17.6595 56.1953 17.7448C56.1855 17.8725 56.1825 17.9928 56.1726 18.1205C56.1682 18.1985 56.1638 18.2765 56.1594 18.3545C56.1496 18.4821 56.1471 18.6167 56.1446 18.7512C56.147 18.8218 56.142 18.8857 56.1376 18.9637C56.1356 19.1123 56.1409 19.2678 56.1389 19.4164C56.1403 19.4588 56.1349 19.5085 56.1437 19.5578C56.1504 19.7556 56.1571 19.9535 56.1638 20.1514C56.1648 20.1797 56.1726 20.2006 56.1662 20.2221C56.172 20.3917 56.1919 20.5608 56.1977 20.7304C56.2069 20.7938 56.2161 20.8571 56.2112 20.921C56.2228 21.055 56.234 21.1749 56.2524 21.3016C56.2622 21.3791 56.2714 21.4425 56.2811 21.52C56.2922 21.6399 56.3102 21.7525 56.3282 21.8651C56.3379 21.9426 56.3476 22.0201 56.3641 22.0903C56.3821 22.2028 56.4001 22.3154 56.4176 22.4139C56.4273 22.4914 56.4511 22.5684 56.4609 22.6459C56.4857 22.7512 56.4963 22.8569 56.5211 22.9622C56.5308 23.0397 56.5547 23.1167 56.5644 23.1942C56.5892 23.2995 56.614 23.4048 56.6315 23.5033C56.648 23.5735 56.665 23.6578 56.6816 23.728C56.7064 23.8333 56.738 23.9312 56.7628 24.0365C56.7793 24.1067 56.8032 24.1837 56.8197 24.2539C56.8445 24.3592 56.8835 24.464 56.9083 24.5693C56.9316 24.6322 56.9482 24.7024 56.9715 24.7652C57.0109 24.8842 57.0431 24.9963 57.0825 25.1152C57.0985 25.1713 57.1141 25.2132 57.1302 25.2693C57.1851 25.4301 57.2401 25.591 57.3093 25.7514C57.3321 25.8001 57.3482 25.8562 57.3711 25.9049C57.41 26.0097 57.4563 26.1213 57.4952 26.2262C57.5259 26.2959 57.5492 26.3587 57.5799 26.4285C57.6184 26.5191 57.6495 26.603 57.6948 26.6863C57.7255 26.756 57.7561 26.8258 57.7868 26.8955C57.8248 26.972 57.8628 27.0485 57.8939 27.1324C57.9246 27.2021 57.9694 27.2713 58 27.341C58.038 27.4176 58.0687 27.4873 58.1135 27.5565C58.1442 27.6262 58.189 27.6954 58.2196 27.7651C58.2571 27.8275 58.2951 27.9041 58.3326 27.9665C58.3774 28.0357 58.4081 28.1054 58.4529 28.1747C58.4904 28.2371 58.5279 28.2995 58.5727 28.3687C58.6175 28.4379 58.655 28.5003 58.6998 28.5695C58.7373 28.6319 58.7816 28.687 58.8191 28.7494C58.8639 28.8187 58.9014 28.8811 58.953 28.943C58.9974 28.9981 59.0275 29.0537 59.0646 29.1019C59.1094 29.1712 59.161 29.2331 59.1985 29.2955C59.2355 29.3438 59.2652 29.3852 59.3022 29.4335C59.4873 29.6748 59.6792 29.9088 59.8775 30.1214C59.914 30.1556 59.9364 30.1902 59.9729 30.2243C60.0246 30.2862 60.083 30.3409 60.1415 30.3955C60.178 30.4296 60.2145 30.4637 60.2443 30.5052C60.3027 30.5598 60.3539 30.6076 60.4123 30.6622C60.4489 30.6963 60.4854 30.7305 60.5219 30.7646C60.5731 30.8124 60.6315 30.867 60.6895 30.9075C60.7261 30.9416 60.7553 30.9689 60.7986 30.9958C60.8566 31.0362 60.9078 31.084 60.9657 31.1245C60.995 31.1518 61.0383 31.1786 61.0744 31.1986C61.1324 31.2391 61.1903 31.2796 61.2483 31.3201C61.2844 31.3401 61.3136 31.3674 61.3497 31.3874C61.4076 31.4279 61.4724 31.461 61.5304 31.5015C61.5665 31.5215 61.5952 31.5347 61.6313 31.5547C61.6961 31.5879 61.7541 31.6284 61.8189 31.6615C61.8476 31.6747 61.8691 31.681 61.8978 31.6942C61.9626 31.7274 62.0274 31.7606 62.099 31.7864L62.1063 31.7933C62.3578 31.905 62.6078 31.9743 62.8568 32.0154C62.8709 32.0149 62.8924 32.0213 62.9138 32.0276C62.9849 32.0393 63.0488 32.0442 63.1126 32.0491C63.1409 32.0482 63.1623 32.0545 63.1979 32.0604C63.2618 32.0653 63.3183 32.0634 63.3821 32.0683C63.4104 32.0673 63.4387 32.0664 63.4742 32.0722C63.5308 32.0703 63.5873 32.0684 63.6507 32.0592C63.6789 32.0582 63.714 32.0499 63.7423 32.049C63.7989 32.0471 63.8549 32.031 63.9183 32.0218C63.9534 32.0135 63.9816 32.0125 64.0094 31.9975C64.0655 31.9814 64.1215 31.9653 64.1776 31.9493C64.2127 31.941 64.2405 31.9259 64.2614 31.9181C64.3175 31.9021 64.3731 31.8719 64.4291 31.8558C64.4569 31.8407 64.4847 31.8256 64.5057 31.8179C64.5612 31.7877 64.6241 31.7643 64.6797 31.7341C64.7006 31.7263 64.7211 31.7044 64.7421 31.6966C65.3105 31.3519 65.8357 30.7751 66.2592 29.9117C69.7635 22.8943 63.271 11.7239 61.1185 8.34441C63.7421 9.13965 66.3535 9.99191 68.9332 10.9514L69.0335 10.9904C69.1125 11.0231 69.1841 11.049 69.2699 11.0744C69.2699 11.0744 69.2699 11.0744 69.2772 11.0812L70.7541 11.6536C73.9745 12.938 77.0885 14.4241 80.0962 16.1119C79.9108 16.4861 79.6659 16.9826 79.3966 17.5932C79.3634 17.658 79.3444 17.7223 79.3112 17.7871C79.1999 18.0526 79.0682 18.3401 78.9511 18.6413C78.9184 18.7202 78.8925 18.7918 78.8598 18.8708C78.7949 19.0428 78.7232 19.2221 78.6515 19.4014C78.5993 19.5305 78.547 19.6597 78.5021 19.7956C78.4631 19.896 78.4241 19.9964 78.3855 20.1109C78.2557 20.4549 78.1337 20.8199 78.0121 21.199C77.9477 21.3851 77.8906 21.5781 77.8334 21.7711C77.0875 24.1808 76.4842 27.0384 76.5188 29.9309C76.5236 30.0723 76.5211 30.2068 76.5259 30.3481C76.5274 30.3905 76.5288 30.4329 76.5302 30.4753C76.5409 30.5811 76.5374 30.6874 76.5481 30.7931C76.5496 30.8355 76.5505 30.8638 76.5519 30.9062C76.5636 31.0402 76.5684 31.1816 76.58 31.3156C76.581 31.3439 76.5815 31.358 76.5824 31.3863C76.5863 31.4993 76.6042 31.6119 76.6149 31.7177C76.6163 31.7601 76.6246 31.7952 76.626 31.8376C76.6367 31.9434 76.6474 32.0491 76.6649 32.1476C76.6658 32.1758 76.6668 32.2041 76.6746 32.2251C76.693 32.3518 76.7115 32.4785 76.73 32.6053C76.7309 32.6335 76.7392 32.6686 76.747 32.6896C76.7645 32.788 76.782 32.8865 76.7995 32.9849C76.8077 33.02 76.816 33.0551 76.8243 33.0902C76.8422 33.2028 76.8602 33.3154 76.885 33.4207C76.8855 33.4348 76.8928 33.4417 76.886 33.449C76.9113 33.5684 76.9365 33.6878 76.9618 33.8072C76.9701 33.8423 76.9779 33.8633 76.9788 33.8915C77.0032 33.9827 77.0275 34.0739 77.0445 34.1582C77.0455 34.1864 77.0606 34.2142 77.0615 34.2425C77.0936 34.3546 77.1257 34.4667 77.1579 34.5788C77.1579 34.5788 77.1652 34.5857 77.1583 34.593C77.1831 34.6982 77.2221 34.8031 77.2537 34.901C77.2615 34.922 77.2698 34.9571 77.2775 34.978C77.3087 35.0619 77.333 35.153 77.3642 35.2369C77.372 35.2578 77.3724 35.272 77.3802 35.2929C77.4192 35.3977 77.4508 35.4957 77.4966 35.5932C77.497 35.6073 77.5043 35.6142 77.5117 35.621C77.5428 35.7049 77.5813 35.7955 77.6192 35.8721C77.627 35.893 77.6348 35.914 77.6426 35.9349C77.6811 36.0256 77.7195 36.1163 77.7648 36.1996L77.7721 36.2065C77.8106 36.2971 77.8631 36.3873 77.9084 36.4707C77.9157 36.4775 77.9162 36.4917 77.9308 36.5053C77.9688 36.5818 78.0136 36.6511 78.0516 36.7276C78.0589 36.7344 78.0667 36.7554 78.074 36.7622C78.1714 36.9216 78.2615 37.0742 78.3652 37.2122C78.3725 37.219 78.3798 37.2259 78.3803 37.24C78.4319 37.3019 78.4694 37.3643 78.5211 37.4262C78.5284 37.4331 78.5284 37.4331 78.5357 37.4399C78.6462 37.5706 78.7563 37.6871 78.8659 37.7895C78.8732 37.7963 78.8806 37.8032 78.8879 37.81C79.0048 37.9192 79.1139 38.0075 79.2372 38.0953C79.2951 38.1358 79.3599 38.1689 79.4106 38.2026C79.4179 38.2094 79.4179 38.2094 79.4252 38.2162C79.5407 38.2831 79.6698 38.3353 79.7985 38.3734L79.8058 38.3802C79.8701 38.3992 79.9271 38.4114 79.9914 38.4305C79.9914 38.4305 79.9987 38.4373 80.0056 38.43C80.1337 38.4539 80.2614 38.4638 80.3959 38.4663L80.4101 38.4658C81.4769 38.4225 82.6379 37.3996 83.7473 35.0695C86.3678 29.5255 82.7411 20.2388 81.1788 16.7402C83.8713 18.3113 86.4695 20.0272 88.9605 21.9165L90.4065 23.0348C90.879 23.4079 91.3448 23.7883 91.8105 24.1686C93.6671 25.7116 95.4418 27.3423 97.1413 29.0533C97.074 29.1547 97.0072 29.2701 96.9267 29.4002C96.8794 29.4655 96.8394 29.5376 96.7994 29.6097C96.7053 29.7544 96.6116 29.9133 96.5043 30.0867C96.1824 30.6071 95.8078 31.2424 95.3595 32.0005C95.2195 32.2529 95.0585 32.5131 94.9054 32.7942C94.8254 32.9384 94.7454 33.0827 94.6581 33.2201C93.8303 34.6774 92.8653 36.4719 91.7838 38.5816C91.7306 38.6825 91.6774 38.7834 91.6384 38.8837C91.6184 38.9198 91.6052 38.9485 91.5852 38.9846C91.552 39.0494 91.5262 39.121 91.4862 39.1931C91.4662 39.2292 91.4535 39.2721 91.4335 39.3081C91.4003 39.3729 91.3813 39.4373 91.3481 39.5021C91.3354 39.5449 91.3086 39.5883 91.2959 39.6312C91.2695 39.6887 91.2437 39.7603 91.2173 39.8178C91.2046 39.8607 91.1778 39.9041 91.1651 39.9469C91.1388 40.0044 91.1197 40.0688 91.0939 40.1404C91.0812 40.1833 91.0616 40.2335 91.0416 40.2695C91.0226 40.3338 90.9963 40.3913 90.9704 40.463C90.9577 40.5058 90.945 40.5487 90.925 40.5848C90.8991 40.6564 90.8801 40.7207 90.8611 40.7851C90.8484 40.8279 90.8352 40.8567 90.8225 40.8996C90.7971 40.9853 90.7717 41.0711 90.7463 41.1569C90.74 41.1783 90.7336 41.1998 90.7273 41.2212C90.6956 41.3284 90.6638 41.4356 90.6321 41.5428C90.6189 41.5716 90.6131 41.6071 90.614 41.6354C90.5955 41.7139 90.5769 41.7923 90.551 41.8639C90.5383 41.9068 90.5325 41.9424 90.5198 41.9853C90.5007 42.0496 90.489 42.1208 90.47 42.1851C90.4573 42.228 90.4519 42.2777 90.4392 42.3206C90.4201 42.3849 90.4152 42.4487 90.403 42.5057C90.3903 42.5486 90.385 42.5983 90.3796 42.648C90.3674 42.705 90.3556 42.7762 90.3434 42.8332C90.338 42.8829 90.3253 42.9258 90.3199 42.9755C90.3077 43.0325 90.3028 43.0964 90.2838 43.1607C90.2784 43.2104 90.2657 43.2533 90.2603 43.303C90.2554 43.3668 90.2432 43.4239 90.2315 43.495C90.2261 43.5447 90.2202 43.5803 90.2148 43.63C90.2031 43.7012 90.1982 43.765 90.1865 43.8361C90.1806 43.8717 90.182 43.9141 90.1762 43.9497C90.1654 44.0491 90.1551 44.1627 90.1443 44.2621C90.1385 44.2977 90.1394 44.3259 90.1336 44.3615C90.1218 44.4327 90.1242 44.5033 90.1125 44.5745C90.1071 44.6242 90.1086 44.6666 90.1032 44.7163C90.0983 44.7801 90.1002 44.8367 90.088 44.8937C90.0826 44.9434 90.084 44.9858 90.0859 45.0423C90.0879 45.0989 90.0825 45.1486 90.0844 45.2051C90.079 45.2548 90.0878 45.3041 90.0824 45.3538C90.0843 45.4103 90.0789 45.46 90.0808 45.5165C90.0754 45.5663 90.0842 45.6155 90.0788 45.6652C90.0807 45.7217 90.0822 45.7641 90.0841 45.8207C90.086 45.8772 90.0875 45.9196 90.0894 45.9761C90.084 46.0258 90.0927 46.0751 90.0947 46.1316C90.0966 46.1882 90.098 46.2306 90.0999 46.2871C90.1014 46.3295 90.1033 46.386 90.1047 46.4284C90.1067 46.485 90.1154 46.5342 90.11 46.5839C90.1115 46.6263 90.1202 46.6755 90.1217 46.7179C90.1323 46.8237 90.1362 46.9368 90.1541 47.0494C90.1624 47.0845 90.1565 47.12 90.1648 47.1551C90.1667 47.2117 90.1828 47.2677 90.1847 47.3243C90.1862 47.3667 90.1944 47.4018 90.1959 47.4442C90.2046 47.4934 90.2138 47.5567 90.2226 47.606C90.2308 47.6411 90.2323 47.6835 90.2406 47.7186C90.2493 47.7678 90.2585 47.8312 90.2673 47.8804C90.2755 47.9155 90.277 47.9579 90.2853 47.993C90.294 48.0422 90.3101 48.0983 90.312 48.1548C90.3203 48.1899 90.3285 48.225 90.3368 48.2601C90.3528 48.3161 90.3616 48.3654 90.3776 48.4214C90.3859 48.4565 90.3942 48.4916 90.4024 48.5267C90.4185 48.5828 90.4273 48.632 90.4433 48.688C90.4443 48.7163 90.4594 48.7441 90.4603 48.7724C90.4764 48.8284 90.4924 48.8845 90.5085 48.9405C90.509 48.9547 90.5168 48.9756 90.5241 48.9825C90.5878 49.1925 90.6657 49.4022 90.7362 49.6049C90.7367 49.6191 90.744 49.6259 90.7445 49.64C90.7679 49.7029 90.7908 49.7517 90.8209 49.8072C90.8287 49.8282 90.8365 49.8492 90.8443 49.8701C90.8672 49.9189 90.8974 49.9744 90.9134 50.0305C90.9212 50.0515 90.929 50.0724 90.9441 50.1002C90.967 50.149 90.9899 50.1977 91.0201 50.2533C91.0278 50.2742 91.0356 50.2952 91.0575 50.3157C91.0804 50.3644 91.1033 50.4132 91.1403 50.4614C91.1481 50.4824 91.1627 50.4961 91.1705 50.517C91.1934 50.5658 91.2304 50.614 91.2533 50.6628C91.2679 50.6764 91.2684 50.6906 91.283 50.7042C91.3132 50.7598 91.3502 50.8081 91.3799 50.8495C91.3872 50.8563 91.3872 50.8563 91.3945 50.8632C91.5509 51.0913 91.7135 51.2981 91.8967 51.4829C91.904 51.4897 91.9113 51.4965 91.9113 51.4965C91.9552 51.5375 91.9917 51.5716 92.0355 51.6126C92.0428 51.6194 92.0575 51.6331 92.0648 51.6399C92.1013 51.674 92.1451 51.715 92.1817 51.7491C92.1963 51.7628 92.2036 51.7696 92.2182 51.7833C92.2547 51.8174 92.2981 51.8442 92.342 51.8852C92.3566 51.8988 92.3639 51.9057 92.3853 51.912C92.4287 51.9388 92.4652 51.973 92.5159 52.0066C92.5232 52.0134 92.5378 52.0271 92.5519 52.0266C92.5953 52.0534 92.646 52.0871 92.6893 52.1139C92.6966 52.1208 92.6966 52.1208 92.704 52.1276C92.9276 52.2544 93.1576 52.3598 93.4007 52.4364C93.4577 52.4486 93.5079 52.4682 93.565 52.4804C93.5791 52.4799 93.5864 52.4867 93.6005 52.4862C93.6575 52.4985 93.7073 52.5038 93.7574 52.5234C93.7716 52.5229 93.793 52.5292 93.8072 52.5288C93.8569 52.5341 93.9139 52.5463 93.9636 52.5517C93.9777 52.5513 93.9992 52.5576 94.0133 52.5571C94.063 52.5625 94.1269 52.5674 94.1766 52.5728C94.1907 52.5723 94.2121 52.5787 94.2263 52.5782C94.2828 52.5763 94.3325 52.5817 94.3964 52.5866C94.4105 52.5861 94.4246 52.5856 94.4388 52.5851C95.047 52.5786 95.7138 52.4215 96.4387 52.0997C103.213 49.0678 99.5411 34.922 98.0605 30.0763C100.767 32.8922 103.268 35.9132 105.521 39.1125C105.521 39.1266 105.521 39.1266 105.521 39.1407L106.362 40.3362C107.65 42.2381 108.856 44.1994 109.972 46.2132C109.965 46.2347 109.959 46.2561 109.952 46.2776C109.908 46.4277 109.863 46.5636 109.826 46.7064C109.819 46.7278 109.82 46.742 109.813 46.7634C109.776 46.9062 109.738 47.049 109.708 47.1986C109.708 47.2127 109.702 47.2341 109.695 47.2415C109.665 47.3911 109.635 47.5407 109.604 47.6903C109.605 47.7185 109.592 47.7473 109.593 47.7756C109.57 47.9179 109.539 48.0675 109.523 48.2166C109.524 48.2449 109.518 48.2663 109.519 48.2946C109.496 48.451 109.48 48.6001 109.464 48.7634L109.464 48.7775C109.448 48.9267 109.439 49.0826 109.43 49.2386C109.431 49.2668 109.425 49.2883 109.426 49.3165C109.417 49.4725 109.415 49.6211 109.413 49.7698C109.414 49.7981 109.415 49.8263 109.409 49.8619C109.407 50.0105 109.398 50.1665 109.404 50.322C109.397 50.3434 109.405 50.3644 109.406 50.3926C109.404 50.5413 109.409 50.6968 109.421 50.8449C109.422 50.8591 109.422 50.8732 109.423 50.8873C109.428 51.0428 109.441 51.2051 109.453 51.3533C109.454 51.3815 109.455 51.4098 109.456 51.4381C109.468 51.5862 109.487 51.7412 109.499 51.8894C109.5 51.9177 109.501 51.9459 109.502 51.9742C109.522 52.1292 109.541 52.2842 109.56 52.4392C109.561 52.4533 109.568 52.4602 109.569 52.4743C109.588 52.6293 109.614 52.777 109.634 52.932C109.642 52.9529 109.643 52.9812 109.643 52.9953C109.669 53.143 109.696 53.3048 109.722 53.4525C109.723 53.4808 109.731 53.5159 109.739 53.5368C109.773 53.6914 109.799 53.839 109.833 53.9936C109.84 54.0145 109.841 54.0428 109.849 54.0637C109.883 54.2183 109.923 54.3655 109.957 54.52C109.964 54.5268 109.957 54.5341 109.964 54.5409C110.005 54.7023 110.046 54.8495 110.087 55.0108C110.094 55.0318 110.103 55.0669 110.11 55.0878C110.151 55.235 110.198 55.3891 110.239 55.5363C110.254 55.5641 110.255 55.5923 110.27 55.6201C110.318 55.7742 110.365 55.9282 110.42 56.0749C110.42 56.0891 110.435 56.1027 110.435 56.1168C110.49 56.2636 110.53 56.4108 110.585 56.5575C110.593 56.5785 110.6 56.5994 110.601 56.6136C110.655 56.7603 110.71 56.907 110.764 57.0537C110.779 57.0815 110.78 57.1098 110.796 57.1376C110.85 57.2843 110.911 57.4237 110.966 57.5704C110.974 57.5914 110.989 57.6192 110.997 57.6402C111.058 57.7937 111.12 57.9331 111.182 58.0867C111.25 58.2329 111.312 58.3865 111.381 58.5327C111.388 58.5537 111.404 58.5815 111.411 58.6024C111.473 58.7418 111.548 58.8808 111.609 59.0202C111.625 59.048 111.632 59.069 111.647 59.0967C111.723 59.2357 111.784 59.3751 111.86 59.514C111.868 59.535 111.875 59.5418 111.883 59.5628C111.951 59.6949 112.026 59.8338 112.094 59.9659C112.102 59.9728 112.11 59.9937 112.117 60.0006C112.192 60.1395 112.26 60.2716 112.343 60.4032C112.358 60.431 112.366 60.452 112.381 60.4798C112.456 60.6046 112.531 60.7435 112.606 60.8683C112.614 60.8893 112.636 60.9098 112.644 60.9307C112.726 61.0624 112.808 61.194 112.891 61.3256L112.898 61.3324C112.98 61.4641 113.062 61.5957 113.144 61.7132C113.152 61.7342 113.167 61.7478 113.175 61.7688C113.256 61.8863 113.331 62.0111 113.42 62.1354C113.436 62.1632 113.45 62.1769 113.465 62.2046C113.547 62.3221 113.636 62.4465 113.718 62.564C113.733 62.5776 113.733 62.5917 113.748 62.6054C113.83 62.7229 113.918 62.8331 114 62.9506C114.007 62.9574 114.015 62.9642 114.015 62.9784C114.104 63.0886 114.186 63.2061 114.274 63.3162C114.289 63.3299 114.304 63.3577 114.319 63.3713C114.407 63.4815 114.489 63.5849 114.577 63.6951C114.592 63.7087 114.6 63.7297 114.621 63.7502C114.71 63.8604 114.806 63.9633 114.894 64.0734L114.902 64.0803C114.997 64.1832 115.078 64.2865 115.174 64.3894C115.188 64.4031 115.196 64.4099 115.21 64.4235C115.299 64.5196 115.387 64.6157 115.475 64.7117C115.489 64.7254 115.504 64.739 115.526 64.7595C115.614 64.8555 115.709 64.9443 115.79 65.0335C115.805 65.0472 115.812 65.054 115.827 65.0677C115.922 65.1564 116.01 65.2525 116.104 65.3271L116.112 65.3339C116.207 65.4227 116.294 65.5046 116.389 65.5792C116.403 65.5928 116.418 65.6065 116.425 65.6133C116.513 65.6953 116.607 65.7699 116.695 65.8377C116.709 65.8513 116.717 65.8581 116.731 65.8718C116.826 65.9464 116.92 66.021 117.007 66.0888C117.015 66.0956 117.015 66.0956 117.022 66.1025C117.109 66.1703 117.204 66.2449 117.298 66.3053C117.305 66.3122 117.312 66.319 117.32 66.3258C117.407 66.3936 117.501 66.4541 117.588 66.5078C117.602 66.5214 117.616 66.5209 117.631 66.5346C117.718 66.5882 117.812 66.6487 117.899 66.7024C117.906 66.7092 117.92 66.7087 117.935 66.7224C118.122 66.8292 118.295 66.9224 118.475 67.0082C118.482 67.0151 118.496 67.0146 118.504 67.0214C118.59 67.0609 118.676 67.1005 118.755 67.1331C118.762 67.14 118.777 67.1395 118.791 67.1531C118.877 67.1927 118.963 67.2181 119.049 67.2434C119.049 67.2434 119.056 67.2503 119.063 67.243C119.149 67.2683 119.235 67.2937 119.313 67.3123L119.327 67.3118C119.406 67.3304 119.484 67.3489 119.569 67.3602C119.584 67.3597 119.591 67.3665 119.605 67.366C119.773 67.3037 119.844 67.3155 119.922 67.3199C119.936 67.3194 119.936 67.3194 119.95 67.3189C120.106 67.3278 120.269 67.3293 120.417 67.3172C120.431 67.3168 120.431 67.3167 120.445 67.3163C120.523 67.3066 120.586 67.2973 120.656 67.2808C120.67 67.2803 120.677 67.273 120.691 67.2725C120.762 67.256 120.832 67.2395 120.901 67.2088C120.901 67.2088 120.908 67.2015 120.922 67.201C120.985 67.1776 121.055 67.147 121.125 67.1163L121.132 67.109C121.201 67.0783 121.264 67.0408 121.326 67.0033C121.333 66.996 121.347 66.9955 121.354 66.9882C121.416 66.9507 121.471 66.9064 121.533 66.8548C121.54 66.8475 121.547 66.8402 121.554 66.8329C121.602 66.7959 121.664 66.7442 121.719 66.6858C122.354 66.0345 122.775 64.8811 122.899 63.1081C123.566 52.7698 114.787 47.3727 111.555 45.7491C110.416 43.6723 109.18 41.6554 107.861 39.698L107.117 38.6196C104.804 35.3092 102.235 32.1702 99.4543 29.2436C103.963 31.1705 115.402 35.3028 120.058 30.1C121.292 28.7209 121.709 27.4827 121.539 26.4201C121.532 26.4133 121.538 26.406 121.531 26.3992C121.478 26.0897 121.376 25.7889 121.225 25.511L121.218 25.5042C121.067 25.2263 120.867 24.9572 120.632 24.7105L120.625 24.7036C120.39 24.4569 120.106 24.2189 119.794 24.0102C119.787 24.0033 119.787 24.0033 119.78 23.9965C119.722 23.956 119.657 23.9087 119.592 23.8756C119.332 23.7146 119.05 23.5614 118.755 23.4087C118.748 23.4019 118.726 23.3956 118.719 23.3887C118.654 23.3556 118.583 23.3297 118.511 23.2897C118.503 23.2829 118.489 23.2833 118.482 23.2765C118.259 23.178 118.03 23.0867 117.786 22.9959C117.779 22.9891 117.765 22.9896 117.757 22.9828C117.686 22.9569 117.614 22.931 117.542 22.9052C117.521 22.8988 117.492 22.8856 117.471 22.8793C117.399 22.8534 117.335 22.8344 117.256 22.8158C117.235 22.8095 117.213 22.8031 117.185 22.79C116.949 22.7201 116.713 22.6503 116.478 22.5946C116.449 22.5815 116.421 22.5824 116.399 22.5761C116.335 22.557 116.264 22.5453 116.193 22.5336C116.157 22.5277 116.114 22.515 116.078 22.5092C116.007 22.4974 115.943 22.4784 115.872 22.4667C115.829 22.454 115.793 22.4481 115.744 22.4427C115.673 22.431 115.608 22.4119 115.544 22.407C115.509 22.4012 115.473 22.3953 115.438 22.3894C115.309 22.3655 115.181 22.3415 115.054 22.3317C115.004 22.3263 114.954 22.321 114.911 22.3083C114.847 22.3034 114.79 22.2911 114.727 22.2862C114.677 22.2809 114.62 22.2686 114.563 22.2706C114.5 22.2657 114.443 22.2534 114.379 22.2485C114.322 22.2363 114.265 22.2382 114.201 22.2333C114.137 22.2284 114.088 22.223 114.024 22.2181C113.939 22.2069 113.861 22.2025 113.769 22.1985C113.697 22.1868 113.627 22.1892 113.556 22.1775C113.478 22.173 113.414 22.1681 113.336 22.1637C113.286 22.1583 113.229 22.1602 113.18 22.1548C113.116 22.1499 113.045 22.1523 112.981 22.1474C112.925 22.1494 112.875 22.144 112.819 22.1459C112.748 22.1483 112.67 22.1439 112.606 22.139C112.556 22.1336 112.514 22.135 112.458 22.1369C112.337 22.134 112.224 22.1378 112.104 22.1348C112.075 22.1358 112.047 22.1367 112.012 22.1309C111.919 22.1269 111.828 22.1371 111.736 22.1332C111.693 22.1346 111.637 22.1365 111.594 22.138C111.524 22.1404 111.439 22.1432 111.368 22.1457C111.326 22.1471 111.269 22.149 111.227 22.1505C111.142 22.1533 111.065 22.163 110.98 22.1659C110.937 22.1674 110.895 22.1688 110.853 22.1702C110.733 22.1814 110.613 22.1925 110.493 22.2037C110.479 22.2042 110.458 22.212 110.436 22.2056C110.331 22.2163 110.225 22.227 110.119 22.2376C110.077 22.2391 110.042 22.2473 109.992 22.2561C109.915 22.2658 109.823 22.276 109.746 22.2857C109.703 22.2871 109.654 22.2959 109.619 22.3041C109.535 22.3212 109.45 22.324 109.366 22.3411C109.33 22.3493 109.288 22.3508 109.253 22.359C109.126 22.3775 109.014 22.3955 108.894 22.4207C108.88 22.4212 108.873 22.4285 108.866 22.4217C108.753 22.4397 108.648 22.4645 108.535 22.4825C108.5 22.4907 108.465 22.499 108.416 22.5077C108.332 22.5248 108.247 22.5418 108.17 22.5656C108.128 22.5812 108.086 22.5826 108.044 22.5982C107.96 22.6152 107.883 22.6391 107.798 22.6561C107.763 22.6644 107.728 22.6726 107.693 22.6809C107.581 22.713 107.462 22.7383 107.343 22.7777C107.343 22.7777 107.336 22.785 107.329 22.7782C107.216 22.8103 107.104 22.8424 106.992 22.8745C106.957 22.8828 106.922 22.891 106.887 22.9134C106.81 22.9373 106.727 22.9684 106.65 22.9923C106.608 23.0079 106.573 23.0161 106.531 23.0317C106.454 23.0555 106.37 23.0867 106.3 23.1174C106.265 23.1256 106.23 23.148 106.195 23.1563C106.084 23.2025 105.979 23.2415 105.867 23.2877C104.221 23.9663 102.897 24.5914 101.841 25.1509C101.535 25.3169 101.258 25.4679 100.994 25.6183C100.73 25.7688 100.487 25.9115 100.266 26.0605C99.9334 26.2699 99.636 26.471 99.3806 26.6566C99.2977 26.716 99.2148 26.7754 99.1319 26.8348C98.8145 27.072 98.5668 27.2785 98.3611 27.4695C98.306 27.5138 98.265 27.5577 98.2172 27.6088C98.1489 27.6819 98.0734 27.7481 98.0188 27.8066C96.2904 26.0824 94.4797 24.4317 92.6012 22.8683L91.1241 21.6661C88.3686 19.4887 85.4707 17.4929 82.4524 15.6993C87.4847 16.1721 101.978 16.8895 102.744 9.65392C102.776 9.34153 102.794 9.05789 102.799 8.77473C102.796 8.70406 102.801 8.64022 102.799 8.56955L102.798 8.55542C102.796 8.48475 102.794 8.42821 102.785 8.36485L102.784 8.35071C102.782 8.29418 102.773 8.23081 102.771 8.17428L102.771 8.16014C102.767 8.06121 102.758 7.99784 102.756 7.94131L102.756 7.92717C102.754 7.87064 102.738 7.81458 102.736 7.75805C102.729 7.75122 102.735 7.74391 102.728 7.73709C102.719 7.68786 102.71 7.62449 102.701 7.57527C102.694 7.56844 102.701 7.56113 102.694 7.5543C102.685 7.50507 102.669 7.44902 102.66 7.39979C102.653 7.39296 102.66 7.38566 102.652 7.37883C102.643 7.3296 102.635 7.28037 102.612 7.23162C102.605 7.2248 102.611 7.21749 102.604 7.21066C102.595 7.16143 102.58 7.11951 102.557 7.07076C102.55 7.06394 102.556 7.05663 102.549 7.0498C102.533 7.00788 102.525 6.95865 102.502 6.90991C102.495 6.90308 102.501 6.89577 102.494 6.88894C102.478 6.84702 102.463 6.8051 102.44 6.75635C102.433 6.74953 102.44 6.74222 102.432 6.73539C102.417 6.69347 102.401 6.65155 102.371 6.61011C102.364 6.60328 102.371 6.59597 102.364 6.58915C102.348 6.54722 102.326 6.51261 102.303 6.46386C102.295 6.45704 102.295 6.45703 102.295 6.4429C102.273 6.40828 102.257 6.36636 102.227 6.32492C102.22 6.3181 102.22 6.31809 102.219 6.30396C102.197 6.26935 102.175 6.23473 102.145 6.19329C102.138 6.18647 102.138 6.18646 102.13 6.17964C102.108 6.14502 102.086 6.11041 102.056 6.06897C102.049 6.06214 102.049 6.06214 102.041 6.05531C102.019 6.0207 101.982 5.98656 101.96 5.95195C101.953 5.94512 101.953 5.94512 101.945 5.9383C101.923 5.90368 101.886 5.86955 101.857 5.84224L101.85 5.83541C101.821 5.8081 101.784 5.77397 101.762 5.73936L101.754 5.73253C101.725 5.70522 101.689 5.67109 101.659 5.64378L101.652 5.63695C101.623 5.60965 101.586 5.57551 101.55 5.55551C101.55 5.55551 101.55 5.55551 101.543 5.54869C101.506 5.51455 101.47 5.49455 101.434 5.46042C101.39 5.43359 101.361 5.40628 101.318 5.37946C100.392 4.7883 99.0933 4.6697 97.5799 4.89801C97.5166 4.90723 97.4532 4.91646 97.3898 4.92569C97.3898 4.92569 97.3898 4.92569 97.383 4.933C97.3197 4.94223 97.2563 4.95145 97.2002 4.96751L97.1861 4.96799C97.1227 4.97722 97.0667 4.99327 97.0033 5.0025C96.9965 5.00981 96.9892 5.00298 96.9824 5.01029C96.919 5.01951 96.8629 5.03557 96.7927 5.05211C96.7859 5.05941 96.7786 5.05259 96.7718 5.05989C96.7084 5.06912 96.6524 5.08517 96.5895 5.10854C96.5754 5.10902 96.5685 5.11633 96.5612 5.1095C96.5052 5.12556 96.4418 5.13478 96.3789 5.15814C96.3648 5.15863 96.358 5.16593 96.3438 5.16641C96.2878 5.18247 96.2244 5.1917 96.1615 5.21506C96.1474 5.21554 96.1406 5.22284 96.1264 5.22333C96.0704 5.23938 96.0143 5.25544 95.9441 5.27197C95.93 5.27245 95.9232 5.27976 95.909 5.28024C95.853 5.2963 95.7901 5.31966 95.734 5.33571C95.7199 5.33619 95.7131 5.3435 95.6921 5.35129C95.6361 5.36734 95.5732 5.3907 95.5171 5.40676C95.503 5.40724 95.4893 5.42185 95.4752 5.42233C95.4191 5.43839 95.3563 5.46175 95.3002 5.47781C95.2861 5.47829 95.2651 5.48607 95.2583 5.49338C95.2022 5.50944 95.1393 5.5328 95.0833 5.54885C95.0692 5.54933 95.0482 5.55712 95.0414 5.56443C94.9853 5.58048 94.9224 5.60384 94.8664 5.6199C94.8454 5.62769 94.8313 5.62817 94.8176 5.64278C94.7616 5.65884 94.6987 5.6822 94.6426 5.69826C94.6217 5.70604 94.6075 5.70652 94.5939 5.72114C94.5378 5.73719 94.4749 5.76055 94.4194 5.79074C94.3984 5.79853 94.3843 5.79901 94.3706 5.81362C94.3077 5.83699 94.259 5.85987 94.1961 5.88323C94.1751 5.89102 94.161 5.8915 94.1401 5.89928C94.0772 5.92265 94.0284 5.94553 93.9655 5.96889C93.9446 5.97668 93.9236 5.98447 93.9168 5.99177C93.8539 6.01514 93.8052 6.03802 93.7423 6.06138C93.7213 6.06917 93.7004 6.07696 93.6935 6.08426C93.6306 6.10763 93.5819 6.13051 93.519 6.15387C93.4981 6.16166 93.4771 6.16944 93.4634 6.18406C93.4006 6.20742 93.345 6.23761 93.2889 6.25366C93.268 6.26145 93.247 6.26924 93.226 6.27702C93.1632 6.30039 93.1076 6.33058 93.0447 6.35394C93.0237 6.36173 93.0028 6.36951 92.996 6.37682C92.9331 6.40018 92.8775 6.43037 92.8146 6.45373C92.7937 6.46152 92.7727 6.46931 92.759 6.48392C92.7035 6.51411 92.6406 6.53747 92.585 6.56766C92.564 6.57545 92.5504 6.59007 92.5294 6.59785C92.4739 6.62804 92.411 6.65141 92.3554 6.68159C92.3344 6.68938 92.3135 6.69717 92.2998 6.71178C92.2442 6.74197 92.1814 6.76533 92.1258 6.79552C92.1048 6.80331 92.0912 6.81792 92.077 6.81841C92.0215 6.84859 91.9518 6.87926 91.8962 6.90945C91.8752 6.91724 91.8616 6.93185 91.8474 6.93233C91.7919 6.96252 91.7221 6.99319 91.6666 7.02338C91.6456 7.03117 91.6388 7.03847 91.6178 7.04626C91.5554 7.08376 91.4925 7.10712 91.4301 7.14462C91.416 7.1451 91.4023 7.15971 91.3882 7.16019C91.3258 7.19769 91.2561 7.22836 91.1937 7.26585C91.1869 7.27316 91.1727 7.27364 91.1591 7.28825C91.0894 7.31892 91.027 7.35642 90.9577 7.40122C90.9509 7.40853 90.9368 7.40901 90.9368 7.40901C90.8603 7.44699 90.7978 7.48448 90.7213 7.52246C90.1724 7.81704 89.6312 8.13259 89.0906 8.46227C89.0282 8.49976 88.959 8.54457 88.8966 8.58206C88.8829 8.59668 88.8688 8.59716 88.8551 8.61177C88.7995 8.64196 88.7444 8.68628 88.6889 8.71647C88.6679 8.72426 88.6474 8.74618 88.6265 8.75397C88.5709 8.78416 88.5226 8.82117 88.467 8.85136C88.4393 8.86646 88.4188 8.88838 88.3978 8.89617C88.3495 8.93318 88.294 8.96337 88.2525 8.99308C88.2247 9.00817 88.197 9.02327 88.1765 9.04519C88.1282 9.08221 88.0795 9.10508 88.0312 9.1421C88.0034 9.1572 87.9688 9.1796 87.941 9.19469C87.8996 9.2244 87.844 9.25459 87.8025 9.2843C87.7679 9.3067 87.7401 9.3218 87.7055 9.3442C87.6641 9.37391 87.6226 9.40362 87.5671 9.43381C87.5325 9.45621 87.5047 9.47131 87.4701 9.49371C87.4286 9.52341 87.3872 9.55313 87.3457 9.58283C87.3111 9.60523 87.2765 9.62764 87.2487 9.64273C87.2073 9.67244 87.1658 9.70215 87.1244 9.73185C87.0898 9.75425 87.0552 9.77666 87.0205 9.79906C86.9791 9.82877 86.9377 9.85848 86.8962 9.88819C86.8616 9.91059 86.827 9.93299 86.7924 9.95539C86.7509 9.9851 86.7095 10.0148 86.6681 10.0445C86.6334 10.0669 86.5988 10.0893 86.5715 10.1185C86.5301 10.1483 86.4886 10.178 86.4472 10.2077C86.4126 10.2301 86.378 10.2525 86.3507 10.2817C86.3092 10.3114 86.2746 10.3338 86.2332 10.3635C86.1985 10.3859 86.1571 10.4156 86.1298 10.4449C86.0883 10.4746 86.0537 10.497 86.0196 10.5335C85.985 10.5559 85.9435 10.5856 85.9162 10.6148C85.8748 10.6446 85.8402 10.667 85.806 10.7035C85.7714 10.7259 85.73 10.7556 85.7027 10.7848C85.6612 10.8145 85.6266 10.8369 85.5925 10.8735C85.5579 10.8959 85.5238 10.9324 85.4891 10.9548C85.4477 10.9845 85.4204 11.0138 85.3789 11.0435C85.3443 11.0659 85.3102 11.1024 85.2756 11.1248C85.241 11.1472 85.2068 11.1837 85.1722 11.2061C85.1376 11.2285 85.1035 11.2651 85.0689 11.2875C85.0342 11.3099 85.0001 11.3464 84.9655 11.3688C84.9309 11.3912 84.8967 11.4278 84.8621 11.4502C84.8275 11.4726 84.7934 11.5091 84.7588 11.5315C84.7241 11.5539 84.69 11.5904 84.6554 11.6128C84.6208 11.6352 84.5867 11.6718 84.552 11.6942C84.5174 11.7166 84.4833 11.7531 84.4487 11.7755C84.4141 11.7979 84.3799 11.8345 84.3453 11.8569C84.3107 11.8793 84.2766 11.9158 84.2419 11.9382C84.2073 11.9606 84.1732 11.9971 84.1386 12.0195C84.1113 12.0488 84.0698 12.0785 84.0425 12.1077C84.0152 12.1369 83.9738 12.1666 83.9465 12.1959C83.9192 12.2251 83.8777 12.2548 83.8504 12.284C83.8231 12.3133 83.7885 12.3357 83.7544 12.3722C83.727 12.4014 83.6856 12.4311 83.6583 12.4604C83.631 12.4896 83.5964 12.512 83.5691 12.5412C83.5418 12.5705 83.5003 12.6002 83.473 12.6294C83.4457 12.6586 83.4111 12.681 83.3838 12.7102C83.3565 12.7395 83.315 12.7692 83.2877 12.7984C83.2604 12.8276 83.2258 12.85 83.1985 12.8793C83.1712 12.9085 83.1298 12.9382 83.1024 12.9674C83.0751 12.9967 83.0405 13.0191 83.0132 13.0483C82.9859 13.0775 82.9445 13.1072 82.9172 13.1365C82.8898 13.1657 82.8625 13.1949 82.8279 13.2173C82.8006 13.2465 82.7665 13.2831 82.7319 13.3055C82.7046 13.3347 82.6773 13.3639 82.6426 13.3863C82.6153 13.4156 82.588 13.4448 82.5466 13.4745C82.5193 13.5037 82.492 13.533 82.4647 13.5622C82.4374 13.5914 82.4032 13.628 82.3759 13.6572C82.3486 13.6864 82.3213 13.7156 82.3008 13.7376C82.2735 13.7668 82.2462 13.796 82.2121 13.8326C82.1848 13.8618 82.1575 13.891 82.137 13.9129C82.1097 13.9422 82.0824 13.9714 82.0551 14.0006C82.0277 14.0299 82.0073 14.0518 81.98 14.081C81.9527 14.1102 81.9253 14.1395 81.898 14.1687C81.8707 14.1979 81.8503 14.2198 81.8229 14.2491C81.7956 14.2783 81.7683 14.3075 81.741 14.3368C81.7137 14.366 81.6932 14.3879 81.6659 14.4171C81.6386 14.4464 81.6113 14.4756 81.584 14.5048C81.5635 14.5267 81.5362 14.556 81.5157 14.5779C81.4884 14.6071 81.4611 14.6363 81.427 14.6729C81.4065 14.6948 81.3792 14.724 81.3587 14.746C81.3314 14.7752 81.2973 14.8117 81.2773 14.8478C81.2704 14.8551 81.2568 14.8697 81.25 14.877C79.0277 13.6082 76.7386 12.4549 74.3968 11.4166C73.7361 11.1278 73.0754 10.8389 72.401 10.5647L71.1599 10.0621C68.5282 9.02655 65.851 8.11285 63.1407 7.26395C67.7733 7.00748 77.2968 5.35375 80.7231 -3.54294C81.3927 -5.28495 81.5268 -6.54181 81.2573 -7.39582C81.2573 -7.39582 81.2499 -7.40265 81.2568 -7.40995C81.2329 -7.48697 81.2023 -7.55668 81.1716 -7.62639C81.1716 -7.62639 81.1643 -7.63322 81.1711 -7.64052C81.1404 -7.71023 81.1029 -7.77263 81.0723 -7.84234C80.99 -7.97398 80.9013 -8.08416 80.7986 -8.19387C80.7474 -8.24166 80.6962 -8.28945 80.6383 -8.32993L80.631 -8.33676C80.573 -8.37724 80.515 -8.41772 80.4502 -8.45089C80.4502 -8.45089 80.4502 -8.45089 80.4429 -8.45772C80.248 -8.57138 80.0331 -8.64897 79.7978 -8.70465C79.7978 -8.70465 79.7904 -8.71148 79.7836 -8.70417C79.7052 -8.72273 79.6199 -8.73399 79.5414 -8.75254C79.5414 -8.75254 79.5341 -8.75937 79.5273 -8.75207C79.2714 -8.78582 78.9951 -8.79766 78.6988 -8.77344L78.6846 -8.77296C78.5857 -8.76959 78.4941 -8.75941 78.3883 -8.74874L78.3742 -8.74826C78.0642 -8.70942 77.7337 -8.64867 77.3901 -8.55917C77.3832 -8.55186 77.3759 -8.55868 77.3691 -8.55137C77.257 -8.51926 77.1517 -8.49446 77.0328 -8.45504C77.0259 -8.44774 77.0118 -8.44726 77.0118 -8.44726C76.8997 -8.41515 76.7808 -8.37573 76.6618 -8.33631L76.655 -8.32901C76.4171 -8.25017 76.1656 -8.15672 75.9141 -8.06328C75.9072 -8.05597 75.8931 -8.05549 75.8931 -8.05549C75.7673 -8.00876 75.6489 -7.95521 75.5231 -7.90849C75.509 -7.90801 75.5022 -7.9007 75.4812 -7.89291C75.3627 -7.83936 75.2301 -7.78533 75.1117 -7.73178C75.1049 -7.72447 75.0907 -7.72399 75.0907 -7.72399C74.8328 -7.6091 74.5754 -7.48008 74.3039 -7.35058C74.2971 -7.34327 74.283 -7.34278 74.2761 -7.33548C74.1508 -7.27462 74.0187 -7.20645 73.8939 -7.13146C73.873 -7.12367 73.8661 -7.11637 73.8452 -7.10858C73.7131 -7.04042 73.5883 -6.96542 73.4562 -6.89726C73.4493 -6.88995 73.4284 -6.88217 73.4215 -6.87486C73.1578 -6.72439 72.8804 -6.55931 72.603 -6.39423C72.5962 -6.38693 72.582 -6.38645 72.5752 -6.37914C72.4436 -6.29684 72.312 -6.21454 72.1803 -6.13224C72.1594 -6.12446 72.1457 -6.10984 72.1247 -6.10205C71.9931 -6.01975 71.8615 -5.93745 71.7372 -5.84833C71.7235 -5.83371 71.7025 -5.82593 71.6889 -5.81131C71.5504 -5.72171 71.4261 -5.63258 71.2876 -5.54297C71.2808 -5.53567 71.274 -5.52835 71.2599 -5.52787C71.1214 -5.43827 70.9903 -5.34183 70.8591 -5.2454C70.8523 -5.23809 70.8455 -5.23079 70.8313 -5.23031C70.7002 -5.13387 70.569 -5.03744 70.4379 -4.94101C70.4242 -4.9264 70.3964 -4.9113 70.3828 -4.89668C70.2516 -4.80025 70.1205 -4.70382 69.9966 -4.60056C69.9761 -4.57864 69.9552 -4.57085 69.9347 -4.54893C69.8035 -4.45249 69.6729 -4.34193 69.5417 -4.2455C69.5281 -4.23088 69.5139 -4.2304 69.5003 -4.21578C69.3623 -4.11204 69.2385 -4.00878 69.1078 -3.89821C69.101 -3.89091 69.0941 -3.8836 69.0873 -3.87629C68.9566 -3.76572 68.826 -3.65516 68.6953 -3.54459C68.6748 -3.52267 68.6539 -3.51488 68.6334 -3.49296C68.5095 -3.3897 68.3789 -3.27913 68.2623 -3.16905C68.2418 -3.14713 68.2141 -3.13203 68.1936 -3.11011C68.0629 -2.99954 67.9464 -2.88946 67.8157 -2.77889C67.802 -2.76427 67.7816 -2.74235 67.7606 -2.73457C67.6372 -2.61717 67.4997 -2.4993 67.3764 -2.3819L67.3696 -2.37459C67.2462 -2.2572 67.116 -2.1325 66.9926 -2.01511C66.9722 -1.99318 66.9585 -1.97857 66.938 -1.95665C66.8147 -1.83926 66.6913 -1.72186 66.5821 -1.60495C66.5616 -1.58303 66.5411 -1.56111 66.5206 -1.53918C66.3973 -1.42179 66.2812 -1.29757 66.172 -1.18065C66.1515 -1.15873 66.1378 -1.14412 66.1174 -1.12219C65.9945 -0.990666 65.8784 -0.866445 65.7555 -0.734916C65.7487 -0.727609 65.7487 -0.727609 65.7419 -0.720302C65.6258 -0.59608 65.5029 -0.464553 65.3869 -0.340332C65.3732 -0.325718 65.3528 -0.303796 65.3391 -0.289181C65.223 -0.16496 65.1143 -0.0339171 64.9982 0.090304C64.9778 0.112226 64.9573 0.134146 64.9368 0.156068C64.828 0.287118 64.7188 0.404032 64.6101 0.535081C64.5896 0.557003 64.5691 0.578923 64.5559 0.607674C64.4472 0.738723 64.3384 0.869767 64.2229 1.00812C64.216 1.01543 64.2024 1.03005 64.1955 1.03735C64.0868 1.1684 63.9854 1.30627 63.8766 1.43732C63.863 1.45194 63.8493 1.46655 63.8429 1.48799C63.7415 1.62586 63.6328 1.75692 63.5381 1.88748C63.5177 1.9094 63.5045 1.93815 63.484 1.96008C63.3894 2.09064 63.288 2.22852 63.1933 2.35908C63.1729 2.38101 63.1597 2.40975 63.1392 2.43168C63.0378 2.56955 62.9505 2.70695 62.8563 2.85165C62.8427 2.86626 62.8363 2.8877 62.8295 2.89501C62.7422 3.0324 62.648 3.17711 62.5607 3.3145C62.5539 3.32181 62.5476 3.34325 62.5407 3.35055C62.4466 3.49525 62.3593 3.63265 62.2793 3.77687C62.2661 3.80562 62.2456 3.82754 62.2393 3.84898C62.152 3.98638 62.072 4.1306 61.9988 4.26751C61.9856 4.29626 61.9652 4.31818 61.952 4.34693C61.872 4.49115 61.792 4.63537 61.7188 4.77229C61.7125 4.79373 61.6988 4.80834 61.6925 4.82979C61.6125 4.97401 61.5398 5.12505 61.4598 5.26928C61.4529 5.27658 61.4461 5.28389 61.4534 5.29072C61.3807 5.44177 61.308 5.59281 61.2422 5.73655C61.2358 5.75799 61.2226 5.78674 61.209 5.80136C61.1431 5.9451 61.0773 6.08884 61.0114 6.23258C60.9982 6.26133 60.985 6.29008 60.9787 6.31152C60.946 6.39046 60.9133 6.46939 60.8738 6.55564C56.8 5.34978 52.6803 4.25162 48.5943 3.10279L46.6655 2.55986C44.4006 1.90808 42.1488 1.22756 39.9233 0.48954C44.1635 -1.52945 57.4477 -8.27773 58.2861 -13.3791C58.5374 -14.9371 58.0043 -16.051 56.9904 -16.7382C56.9758 -16.7519 56.9617 -16.7514 56.9471 -16.7651C56.7663 -16.8792 56.5787 -16.986 56.3702 -17.0851C56.3487 -17.0914 56.3414 -17.0982 56.32 -17.1046C56.1119 -17.1895 55.8897 -17.2739 55.6612 -17.3369C55.6397 -17.3432 55.6256 -17.3428 55.6042 -17.3491C55.4828 -17.3804 55.3688 -17.4048 55.2474 -17.436C55.2474 -17.436 55.2401 -17.4429 55.2333 -17.4356C55.1193 -17.46 54.9984 -17.4771 54.8703 -17.501C54.8488 -17.5074 54.8347 -17.5069 54.8132 -17.5133C54.6924 -17.5304 54.5574 -17.547 54.4297 -17.5568C54.4156 -17.5563 54.4083 -17.5632 54.3941 -17.5627C54.2664 -17.5725 54.1461 -17.5755 54.0184 -17.5853C54.0042 -17.5848 53.9828 -17.5912 53.9618 -17.5834C53.8273 -17.5859 53.6928 -17.5884 53.5515 -17.5836C53.5373 -17.5831 53.5091 -17.5821 53.4949 -17.5817C53.3677 -17.5773 53.2405 -17.573 53.1065 -17.5614C53.0924 -17.5609 53.0782 -17.5604 53.0573 -17.5526C52.9159 -17.5478 52.7751 -17.5289 52.6342 -17.51C52.6059 -17.509 52.585 -17.5012 52.5635 -17.5076C52.4295 -17.4959 52.296 -17.4702 52.1619 -17.4585C52.1478 -17.4581 52.1336 -17.4576 52.1195 -17.4571C51.9787 -17.4382 51.831 -17.4119 51.6833 -17.3857C51.655 -17.3847 51.6272 -17.3696 51.599 -17.3687C51.4586 -17.3356 51.3177 -17.3167 51.1705 -17.2763C51.1637 -17.269 51.1564 -17.2758 51.1496 -17.2685C51.0023 -17.2281 50.8478 -17.1946 50.7006 -17.1542C50.6655 -17.1459 50.6446 -17.1381 50.6095 -17.1299C50.3151 -17.0491 50.0143 -16.9469 49.7209 -16.8379C49.6858 -16.8296 49.658 -16.8145 49.6229 -16.8063C49.4762 -16.7517 49.3294 -16.6972 49.1759 -16.6354C49.169 -16.6281 49.1549 -16.6276 49.1549 -16.6276C49.0155 -16.5663 48.8829 -16.5123 48.7435 -16.4509C48.7157 -16.4358 48.6738 -16.4202 48.646 -16.4052C48.4997 -16.3365 48.3603 -16.2752 48.2214 -16.1997C48.2004 -16.1919 48.1868 -16.1773 48.1658 -16.1695C48.0337 -16.1013 47.9084 -16.0405 47.7836 -15.9655C47.7558 -15.9504 47.7212 -15.928 47.6934 -15.9129C47.5545 -15.8374 47.4228 -15.7551 47.2771 -15.6723C47.2493 -15.6573 47.2356 -15.6426 47.2079 -15.6275C47.083 -15.5526 46.9724 -15.478 46.8476 -15.403C46.8198 -15.388 46.7852 -15.3656 46.7647 -15.3436C46.6262 -15.254 46.5019 -15.1649 46.3708 -15.0685C46.343 -15.0534 46.3157 -15.0241 46.2879 -15.009C46.1704 -14.9272 46.0602 -14.8386 45.95 -14.7499C45.9295 -14.728 45.9017 -14.7129 45.8812 -14.691C45.7574 -14.5877 45.6336 -14.4845 45.5097 -14.3812C45.4824 -14.352 45.4546 -14.3369 45.4273 -14.3077C45.3176 -14.2049 45.2074 -14.1162 45.105 -14.0066C45.0914 -13.992 45.0709 -13.9701 45.0572 -13.9555C44.9407 -13.8454 44.8246 -13.7212 44.7081 -13.6111C44.6808 -13.5819 44.6535 -13.5526 44.6262 -13.5234C44.5238 -13.4138 44.4145 -13.2969 44.3194 -13.1804C44.3126 -13.1731 44.299 -13.1585 44.2921 -13.1512C44.1834 -13.0202 44.0815 -12.8964 43.9727 -12.7654C43.9454 -12.7362 43.9254 -12.7001 43.8981 -12.6709C43.7967 -12.533 43.6879 -12.4019 43.6006 -12.2646C40.6592 -8.04687 39.3924 -4.09834 38.8409 -1.58915C38.6944 -0.904955 38.6005 -0.335757 38.5379 0.112105C34.894 -1.14373 31.3077 -2.5784 27.8521 -4.32882L27.7873 -4.36199C27.744 -4.38882 27.6938 -4.40833 27.6504 -4.43516L26.5268 -5.0196C26.5268 -5.0196 26.5268 -5.01959 26.5127 -5.01912C26.4333 -5.06594 26.347 -5.10547 26.2676 -5.15229L26.2315 -5.17229C25.489 -5.57865 24.7533 -5.99231 24.0239 -6.42741C15.2422 -11.6759 7.7374 -18.9064 2.14717 -27.4684C1.60953 -28.2992 0.418401 -27.3318 0.94873 -26.5079C5.88978 -18.9356 12.3461 -12.3699 19.8203 -7.28924C21.5367 -6.12356 23.3136 -5.05191 25.1159 -4.06603L26.564 -3.3016C30.2368 -1.4029 34.0614 0.172242 37.9709 1.53933C37.8826 1.64846 37.8016 1.76441 37.7207 1.88036C37.7002 1.90228 37.6802 1.93834 37.6597 1.96026C37.5515 2.10544 37.4505 2.25745 37.3495 2.40946C37.3359 2.42408 37.3364 2.43821 37.3227 2.45283C37.2286 2.59753 37.1344 2.74223 37.0403 2.88693C37.0271 2.91568 37.0135 2.93029 36.993 2.95221C36.9062 3.10374 36.812 3.24844 36.7252 3.39997C36.712 3.42872 36.692 3.46477 36.6715 3.48669C36.5847 3.63822 36.5047 3.78244 36.432 3.93349C36.4257 3.95493 36.4052 3.97686 36.3988 3.9983C36.3262 4.14935 36.253 4.28626 36.1803 4.43731C36.1739 4.45875 36.1671 4.46606 36.1535 4.48067C36.0808 4.63172 36.0154 4.78959 35.9495 4.93334C35.9363 4.96208 35.9232 4.99083 35.91 5.01958C35.8514 5.17014 35.7856 5.31389 35.7343 5.47128C35.7211 5.50003 35.7148 5.52148 35.7016 5.55022C35.6431 5.70079 35.5918 5.85819 35.5332 6.00875L35.5264 6.01606C35.4752 6.17345 35.4239 6.33085 35.3727 6.48824C35.3595 6.51699 35.3604 6.54526 35.3473 6.57401C35.3028 6.72409 35.2584 6.87418 35.2213 7.0311C35.2154 7.06667 35.2023 7.09542 35.2032 7.12369C35.1661 7.28061 35.1217 7.43069 35.0914 7.5803C35.0919 7.59443 35.0855 7.61588 35.0787 7.62318C35.0484 7.77279 35.0108 7.91557 34.9873 8.05787C34.981 8.07931 34.9819 8.10758 34.9756 8.12902C34.9453 8.27863 34.9223 8.43506 34.8989 8.57736C34.893 8.61293 34.894 8.64121 34.8881 8.67678C34.8719 8.8259 34.8416 8.97552 34.8255 9.12464C34.8191 9.14608 34.8201 9.17435 34.8137 9.19579C34.7976 9.34492 34.781 9.47992 34.7716 9.62174C34.7721 9.63587 34.7658 9.65731 34.7662 9.67144C34.7501 9.82057 34.7481 9.96922 34.7392 10.1252C34.7402 10.1534 34.7343 10.189 34.7353 10.2173C34.7332 10.3659 34.7239 10.5077 34.7219 10.6564C34.7228 10.6847 34.7238 10.7129 34.7248 10.7412C34.7227 10.8898 34.7207 11.0385 34.7187 11.1871L34.7192 11.2013C34.7171 11.3499 34.7224 11.5054 34.7345 11.6536C34.7355 11.6818 34.7365 11.7101 34.7374 11.7384C34.7422 11.8797 34.7543 12.0279 34.7591 12.1692C34.7601 12.1975 34.7611 12.2257 34.7693 12.2608C34.7814 12.409 34.7935 12.5572 34.8125 12.698C34.813 12.7122 34.8134 12.7263 34.8139 12.7404C34.8255 12.8745 34.8445 13.0153 34.8634 13.1562C34.8644 13.1845 34.8722 13.2054 34.8731 13.2337C34.8921 13.3745 34.911 13.5154 34.9368 13.649C34.9889 13.725 34.9898 13.7533 34.9981 13.7884Z" fill="#3D4775"/>
</svg>
