<svg width="230" height="113" viewBox="0 0 230 113" fill="none" xmlns="http://www.w3.org/2000/svg">
<path d="M0.267612 85.1266C0.267612 85.1266 120.472 94.3941 188.824 58.2323C212.018 45.9652 226.635 31.7784 235.814 18.3785C254.962 -9.55331 237.222 -47.4316 203.388 -50.8791C187.162 -52.5332 166.827 -50.5695 142.437 -40.8471C70.5667 -12.1909 0.267612 85.1266 0.267612 85.1266Z" fill="#2F8C91"/>
<path d="M184.863 -2.83118C180.021 -0.579388 175.181 1.66283 170.338 3.91462C154.643 -7.93135 138.951 -19.7869 123.246 -31.6352C122.696 -31.3302 122.146 -31.0251 121.604 -30.7082C137.256 -18.893 152.907 -7.07788 168.559 4.73727C163.985 6.86051 159.399 8.99102 154.825 11.1143C139.629 0.0185564 124.939 -11.7383 110.808 -24.1232C110.314 -23.7947 109.813 -23.478 109.319 -23.1494C123.36 -10.8165 137.942 0.883664 153.034 11.9442C148.634 13.9873 144.235 16.0305 139.836 18.0736C125.91 6.94804 111.995 -4.17522 98.0697 -15.3008C97.5903 -14.9484 97.1109 -14.596 96.629 -14.234C110.443 -3.19618 124.264 7.85354 138.078 18.8913C133.468 21.0364 128.85 23.1695 124.24 25.3145C110.349 16.0474 96.8452 6.22281 83.7772 -4.14768C83.322 -3.76911 82.8693 -3.40012 82.4237 -3.01923C95.3441 7.24458 108.686 16.9793 122.412 26.1661C117.664 28.3695 112.916 30.5728 108.166 32.7857C95.8047 24.2933 83.8214 15.2816 72.2619 5.77195C71.8261 6.15517 71.3975 6.55031 70.9617 6.93353C82.3663 16.3246 94.1703 25.2322 106.35 33.6301C102.485 35.4258 98.6114 37.2191 94.7471 39.0147C83.2675 31.7915 72.1317 24.0613 61.3761 15.8429C60.9548 16.25 60.536 16.6475 60.1147 17.0545C70.6863 25.1473 81.6162 32.7568 92.8851 39.8786C88.1709 42.0697 83.4568 44.2609 78.7426 46.452C68.3357 41.2049 58.5511 34.8772 49.5268 27.5733C49.1248 27.985 48.7229 28.3967 48.3186 28.818C57.1274 35.9583 66.6554 42.1633 76.7741 47.3716C75.1688 48.1142 73.5611 48.8663 71.9558 49.6089C71.6435 49.5846 71.3263 49.7015 71.1181 49.9971C69.9535 50.5406 68.7913 51.0746 67.6267 51.6181C58.2513 47.6153 49.7258 41.997 42.4012 35.0001C42.0065 35.4237 41.6143 35.8377 41.2196 36.2613C48.3336 43.0348 56.5371 48.5452 65.5444 52.5815C62.0069 54.2218 58.4792 55.8646 54.9417 57.5049C47.5567 53.635 40.4985 49.2438 33.7938 44.348C33.4064 44.7835 33.0214 45.2095 32.634 45.645C39.1039 50.3726 45.9078 54.6314 52.9975 58.41C49.7143 59.9387 46.4238 61.4554 43.1406 62.9841C38.678 59.6643 34.2228 56.3565 29.7602 53.0367C29.0241 52.4937 28.2832 51.9292 27.5471 51.3863C27.1694 51.8241 26.7941 52.2524 26.4188 52.6807C27.5181 53.494 28.5932 54.3218 29.6731 55.1304C33.5642 58.0282 37.4578 60.9163 41.3488 63.814C38.5668 65.1073 35.7969 66.3934 33.0149 67.6867C28.533 65.4197 24.148 62.9725 19.884 60.3309C19.5039 60.7783 19.1335 61.2281 18.7655 61.6683C22.7534 64.1419 26.843 66.457 31.0271 68.6017C27.7802 70.1086 24.543 71.6178 21.2985 73.1151C18.5648 71.614 15.911 70 13.342 68.2538C12.9691 68.7132 12.6084 69.1653 12.25 69.6078C14.5576 71.1691 16.9377 72.6462 19.376 74.0153C17.4197 74.9276 15.4657 75.8303 13.5093 76.7427C11.8919 75.8658 10.272 74.9985 8.66427 74.1239C8.28899 74.5929 7.93793 75.0473 7.58927 75.4922C8.91858 76.2083 10.2479 76.9244 11.5675 77.6381C8.64506 78.9994 5.72503 80.351 2.79289 81.7099C1.13923 83.9049 0.267618 85.1187 0.267618 85.1187C0.267618 85.1187 1.72765 85.2359 4.41286 85.3833C7.67187 83.8691 10.9309 82.355 14.1899 80.8408C13.3473 82.4276 12.6355 84.0662 12.0278 85.7399C12.6186 85.76 13.2191 85.7823 13.8389 85.8094C14.6573 83.6677 15.6669 81.5823 16.892 79.5791C19.1631 78.5188 21.4415 77.4704 23.7126 76.4101C22.0687 79.502 20.7177 82.695 19.6597 85.9888C20.2505 86.0089 20.8437 86.0193 21.4563 86.0344C22.599 82.5678 24.088 79.1945 25.9087 75.9722C26.0346 75.7585 26.0467 75.5479 26.0031 75.3544C30.1919 73.4131 34.371 71.4695 38.5597 69.5282C36.1386 75.0055 33.9233 80.5628 31.8969 86.1859C32.5022 86.1891 33.1172 86.1946 33.7346 86.1906C35.9088 80.1862 38.3105 74.2568 40.935 68.4217C44.6952 66.6722 48.4651 64.9251 52.2252 63.1756C49.0173 70.7513 46.003 78.4142 43.1801 86.1333C43.7975 86.1292 44.4077 86.1133 45.0372 86.1019C48.003 78.0207 51.1771 70.0098 54.5666 62.0813C59.1766 59.9363 63.7964 57.7936 68.4064 55.6486C63.8208 65.5466 59.6251 75.6095 55.8143 85.8158C56.4366 85.7926 57.0589 85.7694 57.6908 85.7485C61.6565 75.1728 66.046 64.7497 70.8422 54.5059C73.8809 53.0912 76.9292 51.6789 79.9679 50.2643C76.7964 61.885 73.6249 73.5057 70.4534 85.1264C71.0587 85.0889 71.664 85.0514 72.279 85.0163C75.5304 73.12 78.7721 61.2213 82.0259 49.3154C87.9265 46.5759 93.8271 43.8363 99.7277 41.0967C93.2754 55.1718 87.6028 69.5767 82.7365 84.2466C83.3661 84.1947 83.9859 84.1404 84.6154 84.0884C89.6294 69.0778 95.4764 54.3488 102.149 39.9708C107.551 37.457 112.95 34.9527 118.362 32.4412C113.51 48.965 108.656 65.4984 103.804 82.0222C104.431 81.9391 105.056 81.8657 105.673 81.7803C110.598 65.0096 115.522 48.2389 120.437 31.4659C122.497 30.5075 124.558 29.549 126.616 28.6001C129.119 27.433 131.63 26.2778 134.134 25.1107C129.197 43.312 124.258 61.5229 119.322 79.7242C119.944 79.6196 120.576 79.5174 121.201 79.4032C126.191 60.9911 131.192 42.5717 136.182 24.1595C140.046 22.3639 143.911 20.5682 147.775 18.7726C144.536 37.8598 141.297 56.947 138.067 76.0366C138.678 75.8986 139.288 75.7607 139.9 75.6131C143.142 56.4756 146.393 37.3405 149.634 18.203C149.651 18.0952 149.644 18.002 149.637 17.9087C155.165 15.3439 160.683 12.7766 166.21 10.2117C162.134 30.7852 158.047 51.3564 153.97 71.9299C154.593 71.744 155.225 71.5605 155.847 71.3746C159.953 50.686 164.058 29.9975 168.155 9.30667C172.297 7.38481 176.43 5.46062 180.573 3.53877C178.845 23.8433 177.124 44.1597 175.396 64.4642C176.004 64.2138 176.602 63.9611 177.202 63.6988C178.928 43.3632 180.666 23.0203 182.392 2.68476C186.801 0.643936 191.202 -1.40879 195.612 -3.44962C196.104 16.1992 195.482 35.8649 193.759 55.4588C194.383 55.1007 194.996 54.7498 195.601 54.387C197.271 34.8819 197.849 15.3074 197.314 -4.25023C204.461 -7.57453 211.616 -10.8869 218.763 -14.2112C219.251 3.3827 218.883 20.9846 217.695 38.5417C218.329 37.9825 218.942 37.4283 219.557 36.8645C220.668 19.6955 220.977 2.48623 220.48 -14.7033C220.475 -14.8062 220.458 -14.9018 220.42 -14.9924C223.424 -16.3948 226.436 -17.7854 229.441 -19.1878C230.451 -5.16891 231.452 8.84767 232.464 22.857C233.012 22.1549 233.539 21.4481 234.055 20.7486C233.076 7.1744 232.098 -6.39976 231.129 -19.9716C234.107 -21.3499 237.087 -22.7379 240.056 -24.1185C239.533 -25.3423 238.944 -26.5513 238.317 -27.7289C237.492 -27.3479 236.666 -26.9669 235.84 -26.5859C226.346 -34.5111 216.852 -42.4363 207.368 -50.3592C206.29 -50.5674 205.191 -50.7301 204.075 -50.8663C214.085 -42.5019 224.097 -34.1471 234.116 -25.7804C231.453 -24.55 228.797 -23.3078 226.134 -22.0774C214.204 -31.8693 202.262 -41.6539 190.332 -51.4458C189.474 -51.4282 188.603 -51.3938 187.729 -51.3497C199.949 -41.3253 212.179 -31.2986 224.398 -21.2646C220.267 -19.35 216.146 -17.4331 212.015 -15.5185C198.681 -26.868 185.344 -38.208 172.01 -49.5575C171.288 -49.426 170.567 -49.2945 169.831 -49.1461C183.318 -37.6684 196.807 -26.2002 210.284 -14.7248C206.686 -13.0482 203.081 -11.3834 199.483 -9.70678C199.379 -9.66064 199.284 -9.61218 199.18 -9.56603C184.371 -20.9346 170.185 -33.0584 156.659 -45.8875C156.027 -45.7039 155.393 -45.5108 154.756 -45.308C168.323 -32.3979 182.563 -20.2003 197.413 -8.75064C196.948 -8.53707 196.483 -8.32351 196.028 -8.1076C195.919 -8.08297 195.815 -8.03682 195.737 -7.97411C192.723 -6.57401 189.708 -5.17389 186.684 -3.77611C169.926 -14.7898 153.727 -26.5942 138.117 -39.1416C137.526 -38.877 136.928 -38.6242 136.335 -38.35C151.948 -25.6902 168.134 -13.8785 184.863 -2.83118Z" fill="#286F7F"/>
</svg>
