<svg width="145" height="113" viewBox="0 0 145 113" fill="none" xmlns="http://www.w3.org/2000/svg">
<path d="M144.682 56.7654C144.682 56.7654 86.0097 -0.171448 34.434 -10.956C16.9344 -14.6175 3.06774 -13.5607 -7.61414 -10.5566C-29.8875 -4.30052 -37.2783 23.1293 -21.1326 39.5926C-13.39 47.4883 -1.91222 55.2797 15.0932 60.7859C65.2062 77.0071 144.682 56.7654 144.682 56.7654Z" fill="#2F8C91"/>
<path d="M9.65358 22.576C13.1714 23.5017 16.6838 24.4314 20.2017 25.3571C23.1872 38.3349 26.1672 51.3167 29.1567 64.2999C29.5778 64.3792 29.9988 64.4585 30.4212 64.5285C27.4449 51.5856 24.4686 38.6427 21.4923 25.6999C24.8133 26.5761 28.1439 27.4537 31.4649 28.33C34.5199 40.7005 37.02 53.1963 38.9521 65.7769C39.3544 65.8198 39.7552 65.8721 40.1575 65.9149C38.2493 53.4003 35.7812 40.9813 32.7651 28.6742C35.9599 29.5165 39.1547 30.3589 42.3495 31.2013C44.7278 43.0364 47.102 54.866 49.4802 66.7011C49.8854 66.7252 50.2906 66.7494 50.7013 66.7696C48.3426 55.0286 45.9853 43.2782 43.6267 31.5372C46.9762 32.4178 50.3243 33.3077 53.6739 34.1884C56.8515 45.0401 59.5817 56.0145 61.8444 67.0844C62.2485 67.0844 62.647 67.0884 63.047 67.083C60.8145 56.1327 58.1295 45.2755 55.0026 34.537C58.4498 35.447 61.8971 36.3571 65.3498 37.2632C68.0691 47.0478 70.3629 56.9393 72.2166 66.9066C72.6126 66.8959 73.01 66.8757 73.406 66.8649C71.581 57.0266 69.335 47.267 66.669 37.6103C69.4757 38.3497 72.2864 39.0945 75.093 39.8339C77.9102 48.575 80.3249 57.4312 82.3267 66.3771C82.7256 66.3476 83.1189 66.322 83.5178 66.2925C81.5569 57.4919 79.1966 48.7877 76.4448 40.1909C79.869 41.0926 83.2932 41.9943 86.7174 42.896C89.8433 50.1421 92.1693 57.6817 93.6693 65.4005C94.0601 65.3601 94.4509 65.3198 94.8472 65.2755C93.3878 57.7355 91.1418 50.3711 88.1492 43.2701C89.3137 43.579 90.4836 43.884 91.6481 44.1929C91.8005 44.3409 92.0174 44.4175 92.2561 44.3537C93.103 44.5753 93.9444 44.8009 94.7913 45.0225C97.9258 51.173 99.9064 57.797 100.654 64.6189C101.046 64.5692 101.433 64.5235 101.825 64.4738C101.089 57.8597 99.2294 51.4315 96.3018 45.4231C98.8696 46.1017 101.433 46.7749 104.001 47.4535C106.155 52.6719 107.909 58.0203 109.257 63.4785C109.651 63.4194 110.039 63.3643 110.432 63.3053C109.133 58.0366 107.454 52.8674 105.414 47.8247C107.8 48.4513 110.184 49.0873 112.57 49.7139C113.441 53.3787 114.312 57.034 115.182 60.6988C115.328 61.3009 115.466 61.9163 115.612 62.5184C116.002 62.4539 116.386 62.3934 116.77 62.3329C116.554 61.4324 116.356 60.5349 116.148 59.6453C115.391 56.4483 114.628 53.2552 113.871 50.0582C115.891 50.5901 117.903 51.1207 119.924 51.6527C121.267 54.7772 122.48 57.9535 123.544 61.1788C123.94 61.1103 124.331 61.0365 124.716 60.9667C123.722 57.9486 122.605 54.9692 121.364 52.0376C123.721 52.6598 126.074 53.2766 128.426 53.9028C129.194 55.8702 129.869 57.8619 130.443 59.8856C130.839 59.8079 131.226 59.7286 131.608 59.6533C131.09 57.8393 130.497 56.0376 129.826 54.2671C131.248 54.6397 132.665 55.0163 134.087 55.389C134.546 56.5471 135.01 57.7014 135.465 58.8542C135.867 58.7725 136.25 58.6878 136.628 58.6071C136.249 57.6576 135.87 56.7081 135.495 55.7641C137.619 56.3215 139.737 56.883 141.865 57.4459C143.693 57.0188 144.682 56.7641 144.682 56.7641C144.682 56.7641 143.971 56.0701 142.634 54.8292C140.268 54.2055 137.901 53.5818 135.534 52.9581C136.671 52.4964 137.763 51.951 138.816 51.3421C138.516 51.0755 138.213 50.8036 137.901 50.5208C136.532 51.2822 135.089 51.9314 133.568 52.4442C131.917 52.0123 130.266 51.571 128.615 51.139C130.832 50.2403 132.941 49.1619 134.941 47.9039C134.642 47.6373 134.337 47.3747 134.024 47.1012C131.903 48.4126 129.643 49.5251 127.276 50.4152C127.116 50.472 127.017 50.5765 126.955 50.6962C123.915 49.8921 120.879 49.0934 117.839 48.2892C121.511 46.4842 125.11 44.5482 128.64 42.4962C128.325 42.2321 128.007 41.9626 127.683 41.697C123.908 43.8838 120.048 45.9328 116.112 47.8362C113.38 47.1179 110.644 46.3941 107.912 45.6758C112.917 43.1183 117.86 40.4313 122.727 37.6322C122.403 37.3666 122.077 37.1104 121.743 36.8434C116.643 39.7694 111.464 42.5684 106.209 45.2311C102.859 44.3505 99.5057 43.4645 96.1562 42.5839C102.901 39.4132 109.516 35.9877 115.992 32.3205C115.657 32.0628 115.322 31.8052 114.983 31.5421C108.263 35.3347 101.389 38.8639 94.3822 42.1235C92.1741 41.5434 89.9619 40.958 87.7537 40.3779C94.518 35.6965 101.282 31.015 108.047 26.3336C107.714 26.0907 107.382 25.8478 107.045 25.5995C100.118 30.39 93.1949 35.1859 86.2622 39.9803C81.9776 38.8501 77.6929 37.7199 73.4083 36.5897C82.9643 32.0513 92.2583 27.0031 101.248 21.4672C100.896 21.2213 100.549 20.9809 100.197 20.7351C90.981 26.3845 81.4535 31.5261 71.6494 36.1268C67.7244 35.0952 63.8048 34.0596 59.8758 33.0226C69.6727 26.5142 79.4752 20.0018 89.2721 13.4934C88.9082 13.2648 88.5498 13.0323 88.19 12.8092C78.2466 19.4147 68.3032 26.0203 58.3638 32.6313C56.8668 32.2376 55.3698 31.8439 53.8783 31.4462C52.0583 30.9691 50.2398 30.4827 48.4197 30.0056C58.9984 22.6597 69.5825 15.3098 80.1611 7.96382C79.7903 7.74855 79.4155 7.52788 79.0392 7.31655C68.34 14.7493 57.6314 22.1806 46.9323 29.6134C44.1256 28.874 41.3189 28.1346 38.5123 27.3952C48.5943 18.8517 58.6763 10.3082 68.7544 1.75926C68.3752 1.56665 67.996 1.37405 67.6114 1.18539C57.506 9.75403 47.3965 18.3173 37.2911 26.8859C37.2349 26.9347 37.1977 26.9865 37.1605 27.0382C33.1473 25.9786 29.1382 24.9244 25.125 23.8648C36.2977 14.9099 47.4745 5.96036 58.6473 -2.99458C58.2407 -3.16746 57.8301 -3.34575 57.4235 -3.51863C46.1851 5.48367 34.9466 14.486 23.7121 23.4937C20.7046 22.6993 17.7011 21.9104 14.6936 21.1161C24.5221 11.2832 34.3519 1.4409 44.1804 -8.392C43.7531 -8.52497 43.3298 -8.65252 42.901 -8.77613C33.0601 1.07403 23.2098 10.9227 13.3689 20.7729C10.1701 19.9251 6.96979 19.0867 3.77095 18.2389C12.1521 7.78517 21.1221 -2.19449 30.6356 -11.6592C30.1521 -11.7433 29.678 -11.826 29.2026 -11.8993C19.7559 -2.45787 10.8487 7.49316 2.53042 17.9182C-2.66221 16.5522 -7.85339 15.1768 -13.046 13.8108C-5.56569 4.43015 2.36433 -4.58412 10.7031 -13.2192C10.1262 -13.2028 9.56273 -13.1795 8.99383 -13.1523C0.866064 -4.68583 -6.86099 4.14897 -14.1585 13.3231C-14.2012 13.3788 -14.2344 13.4359 -14.254 13.5C-16.4391 12.9283 -18.6228 12.3472 -20.8079 11.7755C-15.1722 4.03138 -9.53242 -3.70734 -3.90218 -11.4475C-4.49649 -11.3188 -5.08275 -11.1793 -5.65948 -11.0383C-11.1161 -3.53958 -16.5728 3.95911 -22.0334 11.4524C-24.194 10.8797 -26.3601 10.3109 -28.5167 9.74361C-28.7817 10.6081 -29.006 11.4933 -29.1963 12.3789C-28.5978 12.5383 -27.9993 12.6977 -27.4008 12.857C-25.9287 21.1032 -24.4567 29.3494 -22.9886 37.5902C-22.5177 38.1659 -22.0153 38.7272 -21.4925 39.282C-23.0408 30.5834 -24.5945 21.8886 -26.1467 13.1846C-24.2155 13.6979 -22.2828 14.202 -20.3516 14.7154C-18.4285 24.9904 -16.496 35.2669 -14.573 45.5419C-14.1178 45.9044 -13.6476 46.2643 -13.172 46.6203C-15.1445 36.0981 -17.121 25.5705 -19.088 15.0443C-16.09 15.8372 -13.096 16.6247 -10.098 17.4175C-8.12663 29.1132 -6.14978 40.8049 -4.17842 52.5006C-3.74393 52.7449 -3.30945 52.9891 -2.85997 53.2309C-4.85463 41.4023 -6.85476 29.5776 -8.84538 17.7544C-6.23004 18.4403 -3.61617 19.1357 -1.00083 19.8216C-0.926196 19.8427 -0.855595 19.8584 -0.78096 19.8795C1.9518 32.2243 4.02773 44.693 5.44855 57.2427C5.85914 57.421 6.27521 57.5953 6.69676 57.7657C5.29009 45.1559 3.21881 32.6257 0.500191 20.2207C0.836758 20.311 1.17333 20.4012 1.50586 20.486C1.57357 20.5204 1.64821 20.5415 1.71623 20.5424C3.90537 21.1195 6.0945 21.6966 8.28768 22.2791C12.194 35.284 15.4607 48.4585 18.0936 61.7651C18.5183 61.8833 18.9416 62.0109 19.3718 62.1251C16.7871 48.7588 13.5299 35.5858 9.65358 22.576Z" fill="#286F7F"/>
</svg>
