<svg width="145" height="325" viewBox="0 0 145 325" fill="none" xmlns="http://www.w3.org/2000/svg">
<path d="M53.2389 324.365C53.2389 324.365 69.6817 107.47 4.54652 -15.9413C-17.5493 -57.8185 -43.0807 -84.2227 -67.1876 -100.812C-117.438 -135.416 -185.503 -103.475 -191.639 -42.4273C-194.584 -13.1507 -191.016 23.5474 -173.493 67.5785C-121.845 197.324 53.2389 324.365 53.2389 324.365Z" fill="#2F8C91"/>
<path d="M-105.228 -8.90547C-101.171 -0.162918 -97.1312 8.57526 -93.0742 17.3178C-114.342 45.6174 -135.627 73.9127 -156.899 102.23C-156.35 103.222 -155.8 104.215 -155.229 105.194C-134.017 76.9728 -112.805 48.7517 -91.5921 20.5307C-87.7667 28.788 -83.9282 37.0672 -80.1028 45.3246C-100.023 72.7255 -121.132 99.2121 -143.372 124.688C-142.78 125.58 -142.21 126.485 -141.618 127.377C-119.472 102.062 -98.4644 75.7724 -78.6076 48.5593C-74.9265 56.5019 -71.2454 64.4445 -67.5644 72.3871C-87.5403 97.4942 -107.512 122.584 -127.488 147.691C-126.853 148.557 -126.219 149.422 -125.567 150.292C-105.749 125.386 -85.9094 100.467 -66.0911 75.5607C-62.2265 83.8836 -58.3833 92.2196 -54.5187 100.542C-71.1535 125.592 -88.7913 149.941 -107.411 173.503C-106.73 174.325 -106.066 175.142 -105.38 175.947C-86.9517 152.652 -69.4751 128.595 -52.9843 103.843C-49.0146 112.415 -45.0449 120.987 -41.058 129.563C-56.303 151.853 -72.4822 173.46 -89.5573 194.301C-88.8675 195.088 -88.1564 195.862 -87.4667 196.649C-70.6045 176.087 -54.6121 154.804 -39.5367 132.842C-36.3015 139.818 -33.0706 146.812 -29.8354 153.789C-42.8002 174.49 -56.6772 194.57 -71.4323 213.963C-70.6997 214.724 -69.9844 215.481 -69.2519 216.242C-54.7222 197.181 -41.0618 177.472 -28.279 157.151C-24.3313 165.661 -20.3836 174.172 -16.4359 182.683C-25.8501 201.452 -37.208 219.097 -50.3224 235.368C-49.5815 236.094 -48.8406 236.82 -48.0825 237.55C-35.262 221.668 -24.1241 204.486 -14.7791 186.237C-13.4413 189.135 -12.0862 192.038 -10.7483 194.936C-10.7913 195.499 -10.5806 196.072 -10.0488 196.448C-9.06955 198.551 -8.10758 200.649 -7.12837 202.752C-14.3074 219.662 -24.3923 235.036 -36.9579 248.24C-36.1956 248.953 -35.4505 249.661 -34.6882 250.374C-22.5241 237.55 -12.6326 222.757 -5.39263 206.511C-2.4372 212.897 0.522401 219.266 3.47784 225.653C-3.46597 238.972 -11.3475 251.7 -20.1369 263.789C-19.3532 264.489 -18.5867 265.185 -17.803 265.885C-9.31576 254.219 -1.67163 241.949 5.10847 229.163C7.86261 235.09 10.5953 241.031 13.3495 246.958C7.38941 255.005 1.45075 263.038 -4.50934 271.084C-5.48414 272.412 -6.4976 273.748 -7.47242 275.075C-6.68456 275.757 -5.91393 276.435 -5.1433 277.113C-3.68316 275.131 -2.19689 273.193 -0.745091 271.246C4.45726 264.23 9.64237 257.209 14.8447 250.193C17.1749 255.216 19.492 260.216 21.8221 265.239C17.7546 273.322 13.3632 281.23 8.62177 288.92C9.42686 289.607 10.2361 290.276 11.0282 290.941C15.468 283.749 19.6226 276.374 23.4705 268.828C26.1855 274.69 28.9046 280.534 31.6023 286.392C28.9086 291.322 26.0118 296.107 22.8772 300.74C23.7037 301.414 24.5172 302.065 25.3133 302.713C28.116 298.552 30.7672 294.26 33.224 289.862C34.8677 293.394 36.4942 296.922 38.1379 300.454C36.5644 303.371 35.0081 306.292 33.4388 309.192C34.2825 309.87 35.1001 310.504 35.9005 311.134C37.1855 308.737 38.4705 306.34 39.7513 303.96C42.2038 309.236 44.639 314.508 47.0873 319.801C51.0363 322.789 53.22 324.365 53.22 324.365C53.22 324.365 53.4281 321.73 53.6882 316.885C50.9602 311.001 48.2322 305.117 45.5042 299.234C48.3584 300.757 51.3054 302.045 54.3156 303.144C54.3505 302.078 54.3896 300.995 54.4371 299.876C50.5855 298.396 46.8345 296.57 43.231 294.355C41.3207 290.255 39.4318 286.142 37.5215 282.041C43.0831 285.014 48.8256 287.458 54.7491 289.373C54.7841 288.307 54.8018 287.237 54.8279 286.131C48.5936 284.063 42.5266 281.369 36.7303 278.078C36.3459 277.85 35.9672 277.828 35.6195 277.906C32.1219 270.344 28.6201 262.799 25.1225 255.237C34.9739 259.616 44.9686 263.624 55.0812 267.291C55.0859 266.199 55.0947 265.089 55.0863 263.975C44.2879 260.041 33.624 255.696 23.1291 250.949C19.9771 244.16 16.8293 237.354 13.6773 230.565C27.3024 236.368 41.084 241.822 54.9662 246.931C54.9578 245.817 54.928 244.716 54.9065 243.579C40.3729 238.212 25.9655 232.47 11.7058 226.338C7.84117 218.015 3.98076 209.675 0.116183 201.352C17.9188 209.646 36.0171 217.236 54.3726 224.132C54.3297 223.009 54.2868 221.886 54.2481 220.745C35.2282 213.569 16.4822 205.629 -1.94261 196.955C-4.49129 191.469 -7.0358 185.965 -9.58448 180.479C11.3125 186.224 32.2095 191.969 53.1065 197.714C53.038 196.622 52.9696 195.529 52.9053 194.419C31.5126 188.53 10.1158 182.658 -11.2941 176.764C-16.2299 166.111 -21.1657 155.458 -26.1016 144.805C-0.786103 156.475 25.1208 166.738 51.5027 175.547C51.4081 174.411 51.3094 173.293 51.2148 172.157C24.2202 163.08 -2.26972 152.502 -28.13 140.434C-32.6591 130.682 -37.1709 120.934 -41.6958 111.164C-11.9812 119.95 17.7508 128.741 47.4655 137.527C47.315 136.395 47.1818 135.268 47.0271 134.153C16.8685 125.236 -13.2902 116.318 -43.453 107.418C-45.1798 103.698 -46.9066 99.9779 -48.6162 96.2623C-50.719 91.7424 -52.8003 87.2094 -54.903 82.6895C-22.1724 91.6316 10.5754 100.578 43.306 109.52C43.1169 108.397 42.932 107.257 42.7256 106.129C9.61585 97.0905 -23.507 88.03 -56.6168 78.9914C-59.8519 72.0148 -63.087 65.0383 -66.3221 58.0617C-32.002 63.9426 2.31824 69.8235 36.6426 75.687C36.3935 74.5857 36.1443 73.4844 35.8779 72.3787C1.46738 66.4933 -32.939 60.5905 -67.3495 54.7051C-67.5433 54.6743 -67.7109 54.6873 -67.8785 54.7002C-72.4996 44.7206 -77.1249 34.7585 -81.746 24.7788C-44.7523 32.1742 -7.76277 39.5871 29.2309 46.9824C28.8956 45.8592 28.5644 44.7185 28.2291 43.5953C-8.97141 36.1472 -46.1719 28.6992 -83.3766 21.2687C-86.8392 13.7895 -90.3059 6.32768 -93.7685 -1.15157C-57.2627 2.00517 -20.7354 5.14881 15.7704 8.30555C15.3192 7.20842 14.8638 6.12876 14.3911 5.04471C-22.1706 1.89229 -58.7454 -1.282 -95.3071 -4.43442C-98.984 -12.3945 -102.682 -20.3415 -106.359 -28.3016C-71.0362 -29.1526 -35.6809 -27.9938 -0.452374 -24.8471C-1.09739 -25.975 -1.72932 -27.081 -2.38267 -28.174C-37.4513 -31.2244 -72.6427 -32.3044 -107.802 -31.3746C-113.791 -44.2786 -119.759 -57.1957 -125.748 -70.0997C-94.1192 -70.9458 -62.4745 -70.2495 -30.9088 -68.0721C-31.9152 -69.2179 -32.9127 -70.3243 -33.9274 -71.4351C-64.7953 -73.4719 -95.734 -74.0627 -126.636 -73.1984C-126.821 -73.1898 -126.993 -73.1594 -127.155 -73.0897C-129.682 -78.5144 -132.187 -83.9523 -134.714 -89.3771C-109.513 -91.1734 -84.3166 -92.9523 -59.133 -94.753C-60.3963 -95.7417 -61.6678 -96.6955 -62.9263 -97.6274C-87.3277 -95.8871 -111.729 -94.1467 -136.126 -92.4238C-138.61 -97.8005 -141.11 -103.182 -143.598 -108.541C-145.797 -107.599 -147.969 -106.54 -150.085 -105.41C-149.399 -103.92 -148.712 -102.429 -148.026 -100.938C-162.256 -83.8212 -176.487 -66.704 -190.713 -49.6042C-191.085 -47.6603 -191.376 -45.677 -191.619 -43.663C-176.599 -61.7101 -161.598 -79.7615 -146.575 -97.8261C-144.358 -93.0177 -142.12 -88.2224 -139.903 -83.414C-157.485 -61.9047 -175.054 -40.3736 -192.635 -18.8644C-192.602 -17.3177 -192.539 -15.7447 -192.458 -14.1673C-174.459 -36.2004 -156.455 -58.251 -138.439 -80.2798C-134.989 -72.8224 -131.535 -65.3825 -128.086 -57.9251C-148.466 -33.8845 -168.828 -9.83961 -189.208 14.2009C-188.97 15.5032 -188.732 16.8055 -188.464 18.134C-167.854 -6.18158 -147.262 -30.5015 -126.656 -54.7996C-123.635 -48.3039 -120.636 -41.7951 -117.615 -35.2994C-117.532 -35.1114 -117.445 -34.9409 -117.362 -34.753C-137.773 -8.05162 -159.543 17.5255 -182.582 41.9085C-182.251 43.0492 -181.902 44.1943 -181.537 45.3438C-158.352 20.8866 -136.449 -4.78647 -115.892 -31.562C-115.508 -30.7227 -115.123 -29.8834 -114.734 -29.0616C-114.689 -28.8649 -114.606 -28.677 -114.493 -28.537C-111.971 -23.0948 -109.448 -17.6526 -106.93 -12.1929C-126.7 18.0264 -147.892 47.2349 -170.421 75.3803C-169.944 76.4469 -169.488 77.5265 -168.994 78.5975C-146.263 50.4479 -125.058 21.2613 -105.228 -8.90547Z" fill="#286F7F"/>
</svg>
