<svg width="97" height="329" viewBox="0 0 97 329" fill="none" xmlns="http://www.w3.org/2000/svg">
<path d="M-3.48423 240.294C-19.1279 237.873 -39.3393 247.187 -46.5047 250.844C-40.5941 242.218 -35.2586 233.456 -30.5254 224.558C21.8274 222.168 69.9034 194.766 69.9034 194.766C69.9034 194.766 58.2795 198.819 25.4834 202.87C-3.46505 206.451 -22.8664 218.125 -29.5672 222.738C-25.1949 214.354 -21.3578 205.88 -18.0668 197.323C-16.8742 194.221 -15.758 191.105 -14.7125 187.987C-0.792557 179.996 23.5584 185.46 46.3666 180.999C63.5322 177.648 79.1822 151.703 79.1822 151.703C79.1822 151.703 62.8868 173.441 36.1426 170.764C14.782 168.626 -6.79573 182.208 -14.6394 187.764C-11.3289 177.835 -8.74931 167.816 -6.92074 157.746C-2.1322 156.882 13.8505 153.837 29.5019 149.184C47.9396 143.694 87.1462 123.749 87.1462 123.749C87.1462 123.749 69.936 124.306 46.3292 130.062C27.2579 134.719 0.039806 152.383 -6.76661 156.929C-5.28196 148.555 -4.30352 140.146 -3.8419 131.706C0.871956 130.296 16.8094 125.452 33.1589 119.576C52.6366 112.571 96.6784 81.0751 96.6784 81.0751C96.6784 81.0751 82.2136 86.2475 51.1713 97.0048C24.4865 106.259 1.98666 125.54 -3.80609 130.774C-3.42211 123.164 -3.4514 115.537 -3.90459 107.897C-1.16072 102.427 4.58376 85.999 -1.69587 52.2631C-9.07646 12.5871 -14.5073 0.447837 -14.5073 0.447837C-14.5073 0.447837 -26.0768 73.0734 -6.70892 107.523C-6.28236 114.449 -6.22481 121.233 -6.46561 127.878C-11.4512 121.419 -29.9107 98.5175 -54.6392 80.3065C-83.7215 58.8976 -93.1921 53.5796 -93.1921 53.5796C-93.1921 53.5796 -53.6772 99.1177 -34.6104 111.955C-19.5643 122.078 -9.92082 127.228 -6.51757 128.959C-6.91207 138.034 -7.90807 146.846 -9.3876 155.358C-14.3437 149.107 -33.9847 125.823 -56.8104 118.021C-83.2765 108.973 -96.7028 90.3141 -96.7028 90.3141C-96.7028 90.3141 -88.3486 111.26 -55.7586 128.758C-28.7248 143.277 -13.7994 153.076 -9.49368 156.007C-11.4767 167.175 -14.2931 177.833 -17.7436 187.939C-21.5279 182.103 -34.1127 164.609 -54.7791 154.152C-79.8611 141.457 -104.503 118.007 -104.503 118.007C-104.503 118.007 -80.9226 154.627 -52.0166 173.204C-31.1699 186.603 -21.9416 189.351 -18.4055 189.843C-22.4182 201.32 -27.2231 212.082 -32.437 222.065C-35.0059 216.649 -44.4571 199.187 -66.2423 182.603C-92.4473 162.649 -112.76 147.264 -112.76 147.264C-112.76 147.264 -63.8789 211.771 -33.0751 223.297C-38.325 233.189 -43.9733 242.297 -49.7017 250.567C-51.4017 245.597 -57.7196 230.777 -75.2708 219.423C-96.6603 205.589 -102.99 196.273 -109.805 182.843C-109.805 182.843 -100.401 212.857 -85.6985 223.961C-68.4992 236.946 -54.9484 242.349 -49.913 250.869C-53.7407 256.392 -57.5991 261.525 -61.3635 266.269C-91.6749 304.342 -123.746 325.95 -124.069 326.175C-124.709 326.609 -124.894 327.471 -124.485 328.122C-124.427 328.202 -124.37 328.282 -124.302 328.355C-123.851 328.801 -123.137 328.887 -122.569 328.523C-122.241 328.309 -89.8627 306.498 -59.2704 268.097C-55.1111 262.878 -51.1824 257.592 -47.4676 252.245C-40.9394 252.177 -17.1033 251.986 -1.42885 252.902C16.8733 253.97 51.7545 225.761 51.7545 225.761C51.7545 225.761 15.8671 243.291 -3.48423 240.294Z" fill="#E5674E"/>
</svg>
