<svg width="108" height="304" viewBox="0 0 108 304" fill="none" xmlns="http://www.w3.org/2000/svg">
<path d="M139.72 245.252C154.867 238.77 177.403 242.982 185.473 244.824C177.462 237.645 170.012 230.158 163.137 222.4C109.936 233.464 55.064 218.198 55.064 218.198C55.064 218.198 67.711 219.297 101.643 214.941C131.588 211.096 153.89 217.885 161.718 220.823C155.319 213.489 149.439 205.914 144.076 198.118C142.131 195.3 140.279 192.437 138.481 189.56C122.592 185.07 99.3975 196.879 75.4297 198.254C57.3699 199.282 35.4524 177.132 35.4524 177.132C35.4524 177.132 57.0244 194.882 83.266 185.291C104.22 177.622 129.167 185.779 138.374 189.37C132.674 180.206 127.693 170.749 123.428 161.034C118.407 161.392 101.623 162.45 84.7657 161.768C64.9193 160.968 20.7561 150.932 20.7561 150.932C20.7561 150.932 38.188 147.048 63.2968 146.79C83.5737 146.566 115.165 157.406 123.092 160.244C119.6 152.173 116.604 143.931 114.12 135.521C109.043 135.315 91.8759 134.531 74.0315 132.8C52.7578 130.71 0.96791 110.247 0.96791 110.247C0.96791 110.247 16.7385 111.747 50.5108 114.615C79.5448 117.073 106.76 130.75 113.835 134.556C111.631 126.966 109.847 119.253 108.464 111.416C104.394 106.593 94.6886 91.4937 92.9464 55.7896C90.8872 13.8104 93.4253 0.150407 93.4253 0.150407C93.4253 0.150407 122.426 70.5276 111.193 110.301C112.412 117.401 113.97 124.28 115.817 130.915C119.279 123.1 132.36 95.2151 152.861 70.4642C176.973 41.3416 185.209 33.542 185.209 33.542C185.209 33.542 156.384 89.7116 140.288 107.602C127.591 121.697 119.132 129.404 116.106 132.026C118.673 141.093 121.776 149.724 125.307 157.944C128.801 150.366 142.959 121.77 164.04 108.012C188.481 92.0607 197.504 69.7507 197.504 69.7507C197.504 69.7507 194.124 93.0605 165.55 119.128C141.853 140.763 129.206 154.502 125.57 158.564C130.237 169.327 135.609 179.363 141.49 188.688C143.907 181.821 152.359 160.92 170.635 145.021C192.805 125.733 211.974 95.7129 211.974 95.7129C211.974 95.7129 197.033 138.784 172.423 164.989C154.672 183.898 146.055 189.045 142.625 190.455C149.405 201.02 156.802 210.65 164.441 219.382C165.727 213.239 171.049 193.181 188.99 170.806C210.557 143.899 227.288 123.126 227.288 123.126C227.288 123.126 193.588 200.877 165.374 220.444C173.004 229.085 180.874 236.829 188.61 243.711C189.142 238.255 191.931 221.641 206.859 205.662C225.052 186.181 229.18 175.144 232.828 159.819C232.828 159.819 230.561 192.565 218.438 207.563C204.256 225.11 191.938 234.06 188.908 243.955C194.066 248.537 199.17 252.735 204.113 256.557C243.683 287.225 281.082 300.776 281.442 300.919C282.199 301.188 282.585 302.019 282.32 302.788C282.292 302.894 282.232 302.978 282.188 303.064C281.835 303.627 281.135 303.904 280.481 303.68C280.102 303.554 242.343 289.861 202.42 258.961C196.996 254.769 191.78 250.434 186.77 245.993C180.197 247.595 156.186 253.551 140.644 258.516C122.507 264.302 80.6942 244.813 80.6942 244.813C80.6942 244.813 120.972 253.255 139.72 245.252Z" fill="#FCF4DF"/>
</svg>
