<svg width="143" height="254" viewBox="0 0 143 254" fill="none" xmlns="http://www.w3.org/2000/svg">
<path d="M101.011 253.042C101.011 253.042 203.304 147.583 222.685 54.8842C229.264 23.4315 227.368 -1.49086 221.972 -20.689C210.736 -60.7203 161.46 -74.0002 131.882 -44.9794C117.697 -31.0627 103.699 -10.4326 93.8048 20.132C64.6577 110.202 101.011 253.042 101.011 253.042Z" fill="#2F8C91"/>
<path d="M162.449 10.3503C160.785 16.6731 159.114 22.986 157.451 29.3088C134.136 34.6763 110.815 40.034 87.4903 45.4088C87.3478 46.1655 87.2053 46.9222 87.0796 47.6815C110.331 42.3305 133.583 36.9795 156.835 31.6285C155.261 37.5975 153.683 43.5836 152.109 49.5527C129.885 55.0449 107.437 59.54 84.8357 63.0141C84.7586 63.7372 84.6647 64.4576 84.5877 65.1807C107.07 61.7495 129.381 57.3119 151.49 51.8895C149.977 57.6317 148.463 63.3738 146.949 69.116C125.688 73.3919 104.436 77.6606 83.1742 81.9365C83.1308 82.6648 83.0873 83.393 83.0509 84.1311C104.144 79.8904 125.253 75.6522 146.346 71.4114C144.763 77.4317 143.164 83.4494 141.582 89.4697C122.087 95.1821 102.371 100.091 82.484 104.159C82.4839 104.885 82.4767 105.601 82.4864 106.32C102.159 102.306 121.664 97.4792 140.955 91.8578C139.32 98.0537 137.685 104.25 136.057 110.455C118.478 115.344 100.708 119.468 82.8021 122.801C82.8214 123.512 82.8576 124.227 82.8769 124.938C100.551 121.657 118.085 117.619 135.433 112.826C134.104 117.871 132.766 122.923 131.437 127.967C115.734 133.031 99.8234 137.373 83.7522 140.972C83.8051 141.688 83.851 142.395 83.904 143.112C99.7143 139.587 115.351 135.344 130.796 130.397C129.175 136.551 127.555 142.706 125.935 148.86C112.917 154.479 99.372 158.661 85.5053 161.358C85.5777 162.06 85.6501 162.762 85.7296 163.475C99.2752 160.851 112.505 156.813 125.263 151.434C124.707 153.526 124.159 155.629 123.604 157.722C123.338 157.996 123.201 158.386 123.315 158.815C122.917 160.337 122.512 161.849 122.114 163.372C111.064 169.006 99.1639 172.567 86.9085 173.911C86.9977 174.616 87.0798 175.311 87.169 176.016C99.0512 174.693 110.599 171.349 121.394 166.086C120.174 170.702 118.965 175.31 117.745 179.925C108.37 183.797 98.7617 186.95 88.9562 189.373C89.0622 190.08 89.1611 190.778 89.2672 191.486C98.7322 189.15 108.019 186.131 117.078 182.464C115.952 186.752 114.809 191.038 113.683 195.327C107.1 196.891 100.533 198.458 93.949 200.022C92.8674 200.284 91.7618 200.533 90.6802 200.795C90.7959 201.495 90.9046 202.186 91.0133 202.876C92.6309 202.487 94.2432 202.133 95.8414 201.758C101.585 200.397 107.321 199.025 113.065 197.663C112.109 201.296 111.155 204.911 110.2 208.543C104.586 210.957 98.88 213.138 93.0858 215.052C93.2086 215.762 93.3412 216.465 93.4667 217.158C98.8886 215.371 104.241 213.362 109.508 211.131C108.39 215.368 107.281 219.598 106.156 223.825C102.622 225.204 99.0437 226.419 95.408 227.45C95.5476 228.163 95.6899 228.858 95.8251 229.544C99.0841 228.613 102.321 227.546 105.502 226.34C104.832 228.897 104.155 231.443 103.486 234C101.405 234.824 99.3313 235.659 97.2603 236.477C97.4071 237.199 97.5591 237.888 97.704 238.566C99.4098 237.885 101.116 237.203 102.812 236.529C101.81 240.347 100.801 244.154 99.7895 247.979C100.556 251.265 101.014 253.042 101.014 253.042C101.014 253.042 102.261 251.765 104.49 249.362C105.611 245.107 106.732 240.853 107.852 236.599C108.682 238.643 109.661 240.606 110.755 242.498C111.234 241.96 111.723 241.414 112.231 240.854C110.863 238.394 109.697 235.799 108.776 233.067C109.552 230.098 110.345 227.132 111.121 224.163C112.736 228.149 114.673 231.939 116.932 235.534C117.411 234.995 117.883 234.447 118.374 233.884C116.019 230.073 114.02 226.011 112.422 221.757C112.32 221.47 112.132 221.292 111.917 221.18C113.362 215.716 114.797 210.259 116.242 204.795C119.484 211.394 122.962 217.864 126.648 224.208C127.122 223.642 127.606 223.069 128.084 222.487C124.156 215.703 120.475 208.765 117.056 201.692C118.347 196.782 119.647 191.864 120.938 186.954C125.532 195.949 130.359 204.832 135.387 213.579C135.864 212.996 136.324 212.411 136.804 211.812C131.548 202.644 126.52 193.337 121.737 183.892C123.32 177.872 124.912 171.845 126.494 165.824C132.189 177.947 138.342 189.834 144.93 201.474C145.393 200.871 145.856 200.269 146.328 199.66C139.516 187.583 133.176 175.23 127.322 162.636C128.364 158.667 129.416 154.691 130.458 150.722C138.867 162.879 147.277 175.036 155.686 187.193C156.122 186.596 156.559 185.998 157.005 185.393C148.4 172.943 139.785 160.501 131.173 148.042C133.204 140.341 135.235 132.64 137.265 124.939C145.417 142.113 154.485 158.817 164.429 174.973C164.871 174.341 165.303 173.717 165.744 173.085C155.597 156.521 146.361 139.398 138.097 121.777C139.951 114.723 141.812 107.678 143.675 100.616C155.366 118.224 167.064 135.841 178.755 153.448C179.166 152.794 179.584 152.15 179.985 151.503C168.119 133.632 156.254 115.762 144.378 97.8987C145.086 95.2081 145.793 92.5175 146.508 89.8368C147.365 86.5656 148.239 83.297 149.097 80.0258C162.292 99.0379 175.495 118.06 188.69 137.072C189.077 136.405 189.473 135.732 189.853 135.055C176.502 115.827 163.153 96.581 149.801 77.3523C151.13 72.3078 152.459 67.2633 153.787 62.2187C169.134 80.3382 184.481 98.4576 199.838 116.57C200.184 115.888 200.53 115.207 200.869 114.515C185.477 96.3539 170.095 78.1853 154.702 60.0239C154.615 59.9229 154.522 59.856 154.429 59.7892C156.333 52.5761 158.227 45.3703 160.131 38.1573C176.217 58.237 192.293 78.3239 208.379 98.4036C208.69 97.6729 209.01 96.9349 209.321 96.2041C193.15 76.0063 176.979 55.8085 160.798 35.6179C162.226 30.2124 163.643 24.8141 165.071 19.4086C182.734 37.0721 200.414 54.7381 218.077 72.4015C218.316 71.6335 218.545 70.8727 218.768 70.102C201.073 52.4163 183.382 34.7135 165.687 17.0277C167.211 11.2783 168.717 5.5263 170.241 -0.223113C189.019 14.839 206.947 30.9595 223.948 48.0571C224.1 47.188 224.248 46.336 224.38 45.4814C207.42 28.504 189.544 12.4964 170.817 -2.45276C173.272 -11.7857 175.743 -21.116 178.198 -30.4489C195.049 -17.0056 211.242 -2.75412 226.753 12.2321C226.724 11.1951 226.682 10.1825 226.633 9.15999C211.425 -5.44699 195.554 -19.3337 179.074 -32.4484C178.974 -32.5251 178.871 -32.5847 178.756 -32.62C179.784 -36.5474 180.828 -40.4721 181.855 -44.3995C195.766 -34.2714 209.668 -24.1361 223.572 -14.0178C223.341 -15.086 223.091 -16.1396 222.837 -17.1762C209.367 -26.9825 195.896 -36.7887 182.436 -46.6023C183.465 -50.4856 184.487 -54.3788 185.506 -58.2549C183.953 -58.731 182.363 -59.1341 180.772 -59.476C180.486 -58.4003 180.199 -57.3246 179.913 -56.2489C165.099 -53.6021 150.284 -50.9553 135.48 -48.3157C134.446 -47.4692 133.437 -46.5663 132.44 -45.6265C148.068 -48.4103 163.688 -51.2039 179.324 -53.9949C178.402 -50.5238 177.496 -47.0501 176.574 -43.579C158.115 -40.1215 139.653 -36.6468 121.194 -33.1892C120.543 -32.3711 119.896 -31.526 119.257 -30.6711C138.16 -34.2176 157.072 -37.7713 175.982 -41.308C174.558 -35.9195 173.143 -30.5384 171.718 -25.1499C150.707 -21.6053 129.703 -18.0508 108.692 -14.5062C108.253 -13.7252 107.814 -12.9443 107.379 -12.1364C128.629 -15.7229 149.872 -19.3193 171.113 -22.8985C169.88 -18.1979 168.631 -13.4999 167.398 -8.79924C167.36 -8.6651 167.332 -8.5382 167.294 -8.40406C145.117 -3.49086 122.717 0.241786 100.171 2.79703C99.851 3.53501 99.5378 4.28283 99.2316 5.04051C121.885 2.51069 144.395 -1.21362 166.681 -6.1014C166.519 -5.49647 166.357 -4.89154 166.204 -4.29387C166.142 -4.17217 166.104 -4.03801 166.103 -3.91577C165.066 0.0188572 164.029 3.95348 162.982 7.89536C139.619 14.9178 115.951 20.7907 92.0454 25.5245C91.833 26.288 91.6038 27.0488 91.3985 27.822C115.411 23.1747 139.076 17.3189 162.449 10.3503Z" fill="#286F7F"/>
</svg>
