<svg width="62" height="221" viewBox="0 0 62 221" fill="none" xmlns="http://www.w3.org/2000/svg">
<path d="M97.2298 62.3939C96.9767 62.428 96.7246 62.4874 96.4846 62.5337C96.447 62.5477 96.4085 62.5363 96.3708 62.5503C96.1309 62.5966 95.891 62.6429 95.6642 62.7015C95.6388 62.7023 95.6011 62.7163 95.5757 62.7172C95.3235 62.7766 95.0836 62.8229 94.8446 62.8947C94.7938 62.8964 94.7439 62.9235 94.6931 62.9252C94.454 62.997 94.2141 63.0433 93.975 63.115C93.9374 63.129 93.8866 63.1307 93.849 63.1447C93.6099 63.2164 93.3708 63.2881 93.1318 63.3598L93.1195 63.3729C92.8804 63.4447 92.6291 63.5295 92.4032 63.6135C92.3655 63.6275 92.3279 63.6415 92.2902 63.6555C92.0643 63.7394 91.8384 63.8234 91.6124 63.9074C91.5748 63.9214 91.5371 63.9354 91.4872 63.9625C91.2613 64.0465 91.0231 64.1436 90.7971 64.2276C90.7849 64.2407 90.7717 64.2285 90.7595 64.2416C90.5335 64.3256 90.3208 64.4218 90.108 64.5181C90.0703 64.5321 90.058 64.5452 90.0204 64.5592C89.8076 64.6554 89.5948 64.7517 89.3697 64.8611C89.332 64.8751 89.2944 64.8891 89.2567 64.9031C89.0439 64.9993 88.8189 65.1087 88.6192 65.2172C88.6069 65.2304 88.5815 65.2312 88.557 65.2575C88.3442 65.3537 88.1322 65.4754 87.9326 65.5839C87.9203 65.597 87.9072 65.5848 87.8949 65.5979C87.6952 65.7064 87.4833 65.8281 87.2836 65.9366C87.246 65.9506 87.2214 65.9769 87.196 65.9777C86.9964 66.0862 86.8098 66.207 86.6101 66.3156C86.5979 66.3287 86.5602 66.3427 86.5479 66.3558C86.1494 66.5983 85.7641 66.853 85.3787 67.1077C85.3665 67.1208 85.3288 67.1348 85.3165 67.1479C85.13 67.2687 84.9566 67.4018 84.7831 67.5348C84.7709 67.548 84.7463 67.5742 84.721 67.5751C84.3487 67.8421 84.015 68.1205 83.6813 68.3989C83.669 68.412 83.669 68.412 83.6567 68.4251C83.4965 68.5705 83.3353 68.6904 83.175 68.8357C83.1627 68.8489 83.1505 68.862 83.1382 68.8751C82.9779 69.0205 82.8299 69.1527 82.6696 69.298C82.3744 69.5878 82.0792 69.8776 81.8094 70.1665C81.7971 70.1796 81.7848 70.1928 81.7848 70.1928C81.6499 70.3372 81.5281 70.494 81.4055 70.6253L81.3932 70.6384C81.1366 70.9397 80.9175 71.2269 80.6994 71.5395L80.6871 71.5526C80.5776 71.6962 80.4812 71.8521 80.3971 71.9948L80.3848 72.008C80.1079 72.4624 79.8687 72.9029 79.6811 73.3671L79.6688 73.3802C79.4935 73.8313 79.3558 74.2683 79.2689 74.7036L79.2566 74.7168C79.2233 74.8578 79.2153 74.9979 79.1951 75.1512C79.1669 75.4446 79.1633 75.7118 79.1859 76.0035C79.2034 76.1428 79.2077 76.2698 79.2505 76.4082C79.2505 76.4082 79.2505 76.4082 79.2636 76.4205C79.6051 78.2401 81.1435 79.7519 84.1856 80.6276C98.1003 84.6562 113.118 74.3921 118.393 70.2707C117.493 72.9718 116.644 75.6711 115.822 78.3949C115.262 80.2578 114.728 82.1198 114.194 83.9819L113.456 86.5884C111.53 93.4953 109.681 100.425 107.665 107.297C107.574 107.236 107.483 107.176 107.404 107.102C107.156 106.92 106.922 106.75 106.674 106.568C106.53 106.458 106.388 106.374 106.244 106.264C106.023 106.106 105.802 105.974 105.581 105.816C105.425 105.72 105.269 105.623 105.113 105.527C104.893 105.395 104.685 105.249 104.477 105.129C104.321 105.033 104.165 104.936 103.997 104.853C103.79 104.733 103.569 104.6 103.35 104.493C103.194 104.397 103.039 104.326 102.871 104.243C102.651 104.136 102.444 104.015 102.224 103.908C102.069 103.837 101.901 103.754 101.758 103.67C101.539 103.563 101.319 103.456 101.087 103.362C100.932 103.291 100.777 103.22 100.635 103.161C100.403 103.068 100.171 102.974 99.9263 102.868C99.7845 102.809 99.6427 102.75 99.5009 102.691C99.2304 102.586 98.973 102.493 98.7025 102.388C98.5869 102.354 98.4837 102.306 98.3804 102.259C98.0075 102.132 97.6345 102.004 97.2494 101.89C97.224 101.891 97.1977 101.867 97.1723 101.868C96.8257 101.765 96.479 101.662 96.1323 101.56C96.0168 101.525 95.889 101.504 95.7734 101.47C95.5169 101.402 95.2604 101.335 95.017 101.28C94.8761 101.246 94.7351 101.213 94.5942 101.18C94.3639 101.136 94.1328 101.068 93.9026 101.025C93.7617 100.992 93.6084 100.971 93.4552 100.951C93.225 100.908 93.0079 100.877 92.7776 100.834C92.6244 100.814 92.4712 100.794 92.3303 100.761C92.1131 100.73 91.896 100.699 91.6789 100.668C91.5257 100.648 91.3725 100.628 91.2193 100.608C91.0022 100.577 90.7728 100.559 90.5688 100.541C90.4156 100.52 90.2755 100.513 90.1223 100.492C89.8929 100.475 89.6766 100.469 89.4473 100.452C89.3072 100.444 89.1671 100.436 89.027 100.428C88.7976 100.41 88.556 100.406 88.3143 100.401C88.1874 100.405 88.0727 100.397 87.9326 100.389C87.6656 100.385 87.3863 100.395 87.1192 100.391C87.0431 100.394 86.9537 100.384 86.8653 100.4C86.5098 100.412 86.1544 100.424 85.7989 100.436C85.7481 100.438 85.7105 100.452 85.6719 100.44C85.3672 100.45 85.0634 100.486 84.7587 100.497C84.6449 100.513 84.5311 100.53 84.4164 100.521C84.1756 100.542 83.9602 100.562 83.7325 100.595C83.5933 100.613 83.4795 100.629 83.3403 100.647C83.1249 100.667 82.9226 100.699 82.7203 100.731C82.5811 100.749 82.4419 100.766 82.3158 100.796C82.1135 100.828 81.9113 100.86 81.7344 100.892C81.5952 100.909 81.4568 100.952 81.3176 100.97C81.1285 101.014 80.9384 101.033 80.7493 101.078C80.6101 101.095 80.4717 101.138 80.3325 101.156C80.1434 101.2 79.9542 101.245 79.7774 101.276C79.6513 101.306 79.4998 101.337 79.3737 101.366C79.1845 101.411 79.0085 101.468 78.8194 101.512C78.6933 101.542 78.555 101.585 78.4289 101.615C78.2397 101.659 78.0514 101.729 77.8623 101.774C77.7493 101.816 77.6232 101.845 77.5103 101.887C77.2966 101.958 77.0952 102.016 76.8815 102.087C76.7808 102.116 76.7055 102.144 76.6048 102.173C76.3159 102.271 76.0269 102.37 75.7388 102.495C75.6512 102.536 75.5505 102.565 75.4629 102.606C75.2746 102.676 75.0741 102.759 74.8858 102.829C74.7606 102.884 74.6476 102.926 74.5224 102.981C74.3595 103.05 74.2089 103.106 74.0591 103.187C73.9339 103.243 73.8087 103.298 73.6834 103.353C73.5459 103.421 73.4084 103.489 73.2578 103.545C73.1326 103.6 73.0082 103.681 72.883 103.736C72.7455 103.804 72.6203 103.859 72.4959 103.94C72.3707 103.995 72.2463 104.076 72.1211 104.131C72.009 104.198 71.8715 104.266 71.7594 104.334C71.635 104.414 71.5098 104.469 71.3854 104.55C71.2733 104.617 71.1612 104.685 71.0368 104.765C70.9125 104.846 70.8004 104.913 70.676 104.994C70.5639 105.061 70.4649 105.141 70.3528 105.208C70.2285 105.289 70.1163 105.356 70.0051 105.449C69.9061 105.529 69.8063 105.583 69.7196 105.649C69.5952 105.73 69.484 105.823 69.3719 105.89C69.2852 105.957 69.2107 106.01 69.124 106.077C68.6904 106.409 68.27 106.754 67.8881 107.11C67.8268 107.176 67.7646 107.216 67.7033 107.282C67.592 107.375 67.4939 107.48 67.3958 107.585C67.3345 107.651 67.2732 107.716 67.1987 107.77C67.1006 107.875 67.0147 107.967 66.9166 108.072C66.8553 108.137 66.794 108.203 66.7327 108.269C66.6468 108.361 66.5487 108.466 66.476 108.57C66.4147 108.636 66.3656 108.688 66.3174 108.766C66.2447 108.87 66.1588 108.962 66.0861 109.066C66.0371 109.119 65.9889 109.197 65.9529 109.262C65.8802 109.366 65.8075 109.47 65.7348 109.574C65.6988 109.639 65.6498 109.692 65.6139 109.756C65.5411 109.861 65.4815 109.977 65.4088 110.081C65.3729 110.146 65.3492 110.198 65.3133 110.263C65.2537 110.379 65.181 110.483 65.1214 110.6C65.0977 110.651 65.0863 110.69 65.0626 110.742C65.003 110.858 64.9435 110.975 64.897 111.103L64.8847 111.116C64.684 111.568 64.5594 112.018 64.4857 112.465C64.4865 112.491 64.4751 112.529 64.4637 112.568C64.4426 112.696 64.4338 112.81 64.425 112.925C64.4268 112.976 64.4154 113.014 64.4048 113.078C64.396 113.193 64.3995 113.295 64.3906 113.409C64.3924 113.46 64.3941 113.511 64.3836 113.575C64.387 113.677 64.3905 113.778 64.407 113.892C64.4088 113.943 64.4236 114.006 64.4253 114.057C64.4288 114.158 64.4576 114.259 64.4742 114.373C64.4891 114.436 64.4908 114.487 64.5179 114.537C64.5467 114.638 64.5756 114.738 64.6044 114.839C64.6193 114.902 64.6464 114.952 64.6604 114.99C64.6892 115.091 64.7435 115.191 64.7723 115.291C64.7994 115.341 64.8265 115.391 64.8405 115.429C64.8948 115.529 64.9367 115.642 64.991 115.742C65.005 115.779 65.0443 115.816 65.0583 115.854C65.6777 116.875 66.7139 117.819 68.2649 118.581C80.8713 124.879 100.938 113.21 107.01 109.341C105.581 114.057 104.05 118.75 102.326 123.387L102.256 123.567C102.197 123.709 102.151 123.838 102.105 123.992C102.105 123.992 102.105 123.992 102.093 124.005L101.065 126.659C98.7575 132.448 96.0878 138.044 93.0557 143.45C92.3834 143.117 91.4915 142.677 90.3947 142.193C90.2782 142.133 90.1627 142.099 90.0463 142.039C89.5692 141.839 89.0527 141.603 88.5118 141.392C88.37 141.333 88.2413 141.287 88.0995 141.228C87.7905 141.111 87.4683 140.983 87.1462 140.854C86.9142 140.76 86.6823 140.666 86.438 140.585C86.2577 140.515 86.0774 140.445 85.8716 140.376C85.2536 140.142 84.598 139.923 83.9169 139.704C83.5825 139.589 83.2358 139.486 82.8892 139.383C78.5603 138.043 73.4267 136.958 68.2303 137.02C67.9764 137.029 67.7347 137.025 67.4808 137.033C67.4047 137.036 67.3285 137.038 67.2523 137.041C67.0623 137.06 66.8714 137.054 66.6814 137.073C66.6053 137.076 66.5545 137.077 66.4783 137.08C66.2375 137.101 65.9836 137.11 65.7428 137.13C65.692 137.132 65.6667 137.133 65.6159 137.135C65.4127 137.142 65.2105 137.174 65.0205 137.193C64.9443 137.196 64.8813 137.211 64.8051 137.213C64.6151 137.232 64.4251 137.252 64.2482 137.283C64.1974 137.285 64.1466 137.286 64.109 137.3C63.8813 137.334 63.6537 137.367 63.426 137.4C63.3752 137.402 63.3122 137.417 63.2745 137.431C63.0977 137.462 62.9208 137.493 62.7439 137.525C62.6809 137.54 62.6178 137.555 62.5548 137.569C62.3525 137.602 62.1502 137.634 61.9611 137.679C61.9357 137.68 61.9234 137.693 61.9103 137.68C61.6958 137.726 61.4812 137.771 61.2667 137.817C61.2037 137.832 61.166 137.846 61.1152 137.847C60.9515 137.891 60.7877 137.935 60.6363 137.965C60.5855 137.967 60.5355 137.994 60.4848 137.996C60.2834 138.054 60.082 138.111 59.8806 138.169C59.8806 138.169 59.8683 138.182 59.8552 138.17C59.666 138.214 59.4778 138.284 59.3017 138.341C59.2641 138.355 59.201 138.37 59.1634 138.384C59.0128 138.44 58.849 138.484 58.6984 138.54C58.6607 138.554 58.6353 138.555 58.5977 138.569C58.4094 138.639 58.2334 138.696 58.0583 138.778C58.0329 138.779 58.0206 138.792 58.0083 138.805C57.8577 138.861 57.6948 138.93 57.5573 138.998C57.5197 139.012 57.482 139.026 57.4444 139.04C57.2815 139.109 57.1186 139.179 56.9688 139.26L56.9566 139.273C56.7937 139.342 56.6317 139.437 56.4819 139.518C56.4696 139.531 56.4442 139.532 56.4197 139.558C56.2822 139.627 56.1579 139.707 56.0204 139.775C56.0081 139.789 55.9704 139.803 55.9582 139.816C55.6718 139.991 55.3977 140.153 55.1498 140.339C55.1375 140.352 55.1253 140.365 55.0999 140.366C54.9886 140.459 54.8765 140.526 54.7653 140.619C54.753 140.632 54.753 140.632 54.7408 140.645C54.506 140.844 54.2967 141.042 54.1127 141.239C54.1004 141.252 54.0882 141.265 54.0759 141.278C53.8797 141.489 53.7211 141.685 53.5634 141.906C53.4907 142.01 53.4311 142.127 53.3706 142.218C53.3584 142.231 53.3584 142.231 53.3461 142.244C53.226 142.452 53.1322 142.684 53.0638 142.915L53.0516 142.928C53.0174 143.044 52.9954 143.146 52.9612 143.262C52.9612 143.262 52.949 143.275 52.9621 143.287C52.9191 143.518 52.9014 143.747 52.8969 143.989L52.8978 144.014C52.9756 145.932 54.8132 148.019 58.9991 150.013C68.9586 154.722 85.6418 148.204 91.927 145.396C89.1044 150.235 86.0219 154.905 82.6279 159.382L80.6189 161.981C79.9487 162.831 79.2654 163.668 78.582 164.505C75.8101 167.842 72.8807 171.031 69.8069 174.086C69.6249 173.965 69.4174 173.845 69.1837 173.7C69.0665 173.615 68.9369 173.543 68.8074 173.471C68.5474 173.302 68.2621 173.134 67.9505 172.941C67.0157 172.362 65.8743 171.689 64.5124 170.883C64.059 170.632 63.5916 170.343 63.0865 170.067C62.8274 169.923 62.5684 169.78 62.3215 169.623C59.7035 168.135 56.4798 166.401 52.6897 164.457C52.5085 164.361 52.3273 164.266 52.147 164.195C52.0822 164.159 52.0305 164.136 51.9658 164.1C51.8494 164.04 51.7207 163.994 51.5911 163.922C51.5264 163.886 51.4493 163.863 51.3846 163.827C51.2681 163.767 51.1526 163.733 51.0362 163.674C50.9591 163.651 50.8812 163.603 50.8042 163.58C50.7009 163.532 50.5722 163.486 50.4689 163.439C50.3919 163.416 50.314 163.368 50.237 163.345C50.1337 163.297 50.0181 163.263 49.8894 163.217C49.8124 163.194 49.7222 163.159 49.6575 163.123C49.5419 163.089 49.4386 163.041 49.3099 162.995C49.2329 162.972 49.1559 162.949 49.0911 162.913C48.9624 162.867 48.8469 162.832 48.7313 162.798C48.6543 162.775 48.6026 162.752 48.5256 162.729C48.3715 162.683 48.2174 162.638 48.0634 162.592C48.0249 162.581 47.9863 162.569 47.9478 162.558C47.7552 162.501 47.5626 162.444 47.3701 162.387C47.3184 162.363 47.2545 162.353 47.2037 162.354C47.0628 162.321 46.9218 162.288 46.7931 162.241C46.7161 162.218 46.6522 162.208 46.5752 162.185C46.4596 162.151 46.3318 162.13 46.2162 162.095C46.1392 162.073 46.0499 162.063 45.9729 162.04C45.8573 162.006 45.7426 161.997 45.6402 161.975C45.5631 161.952 45.4738 161.943 45.3846 161.933C45.2821 161.911 45.1543 161.89 45.0519 161.868C44.9626 161.858 44.8855 161.835 44.7962 161.826C44.6938 161.804 44.5791 161.795 44.4636 161.761C44.3743 161.751 44.2972 161.728 44.2079 161.719C44.0932 161.71 43.9908 161.688 43.863 161.667C43.7737 161.657 43.7098 161.646 43.6205 161.637C43.4927 161.616 43.378 161.607 43.2502 161.586C43.1862 161.575 43.1101 161.578 43.0462 161.567C42.8676 161.548 42.6636 161.529 42.485 161.51C42.4211 161.5 42.3703 161.501 42.3064 161.491C42.1785 161.47 42.0516 161.474 41.9238 161.453C41.8345 161.443 41.7583 161.446 41.669 161.436C41.5543 161.427 41.4527 161.431 41.3503 161.409C41.261 161.399 41.1848 161.402 41.0833 161.405C40.9817 161.409 40.8924 161.399 40.7908 161.402C40.7015 161.393 40.6131 161.408 40.5238 161.399C40.4222 161.402 40.3329 161.393 40.2314 161.396C40.1421 161.386 40.0536 161.402 39.9643 161.392C39.8628 161.396 39.7866 161.398 39.685 161.402C39.5835 161.405 39.5073 161.408 39.4057 161.411C39.3164 161.402 39.228 161.417 39.1264 161.421C39.0249 161.424 38.9487 161.427 38.8471 161.43C38.771 161.433 38.6694 161.436 38.5932 161.439C38.4917 161.442 38.4032 161.458 38.3139 161.448C38.2377 161.451 38.1493 161.467 38.0731 161.469C37.8831 161.488 37.68 161.495 37.4777 161.528C37.4147 161.543 37.3508 161.532 37.2877 161.547C37.1862 161.55 37.0855 161.579 36.9839 161.583C36.9077 161.585 36.8447 161.6 36.7685 161.603C36.6801 161.618 36.5662 161.635 36.4778 161.651C36.4148 161.666 36.3386 161.668 36.2755 161.683C36.1871 161.699 36.0733 161.715 35.9848 161.731C35.9218 161.746 35.8456 161.749 35.7826 161.763C35.6941 161.779 35.5934 161.808 35.4919 161.811C35.4288 161.826 35.3658 161.841 35.3027 161.856C35.202 161.885 35.1136 161.901 35.0129 161.929C34.9498 161.944 34.8868 161.959 34.8237 161.974C34.723 162.003 34.6346 162.019 34.5339 162.047C34.4831 162.049 34.4332 162.076 34.3824 162.078C34.2817 162.107 34.181 162.136 34.0803 162.165C34.0549 162.165 34.0173 162.179 34.005 162.193C33.6276 162.307 33.251 162.447 32.8867 162.574C32.8614 162.575 32.8491 162.588 32.8237 162.589C32.7107 162.631 32.6232 162.672 32.5233 162.726C32.4857 162.74 32.448 162.754 32.4104 162.768C32.3228 162.809 32.2229 162.864 32.1222 162.892C32.0846 162.906 32.0469 162.92 31.997 162.948C31.9094 162.989 31.8219 163.03 31.722 163.084C31.6844 163.098 31.6467 163.112 31.6099 163.151C31.5223 163.193 31.4348 163.234 31.3481 163.3C31.3104 163.314 31.2859 163.34 31.2482 163.354C31.1606 163.396 31.0739 163.462 30.9864 163.503C30.9618 163.53 30.9364 163.53 30.9119 163.557C30.8121 163.611 30.7254 163.677 30.6509 163.731C30.6386 163.744 30.6386 163.744 30.6264 163.757C30.2165 164.038 29.8451 164.33 29.5131 164.66C29.5008 164.673 29.4886 164.686 29.4886 164.686C29.415 164.765 29.3537 164.83 29.2801 164.909C29.2678 164.922 29.2433 164.949 29.231 164.962C29.1697 165.027 29.0961 165.106 29.0348 165.172C29.0103 165.198 28.998 165.211 28.9735 165.238C28.9122 165.303 28.864 165.381 28.7904 165.46C28.7659 165.486 28.7536 165.499 28.7422 165.538C28.694 165.616 28.6327 165.681 28.5722 165.773C28.56 165.786 28.5354 165.812 28.5363 165.837C28.4881 165.915 28.4276 166.006 28.3795 166.084C28.3672 166.097 28.3672 166.097 28.3549 166.111C28.1271 166.513 27.9378 166.926 27.8001 167.363C27.7781 167.465 27.7431 167.556 27.7211 167.658C27.722 167.683 27.7097 167.697 27.7106 167.722C27.6886 167.825 27.679 167.914 27.6439 168.004C27.6448 168.029 27.6334 168.068 27.6342 168.093C27.6246 168.183 27.6026 168.285 27.5929 168.375C27.5938 168.4 27.5824 168.439 27.5833 168.464C27.5736 168.553 27.5648 168.668 27.5551 168.757C27.556 168.783 27.5446 168.821 27.5454 168.847C27.5489 168.948 27.5392 169.038 27.5304 169.152C27.5312 169.178 27.5321 169.203 27.533 169.229C27.5447 170.322 27.8269 171.52 28.405 172.823C33.8517 184.998 59.2641 178.399 67.9692 175.738C62.9105 180.602 57.4834 185.098 51.7361 189.146C51.7107 189.147 51.7107 189.147 51.6853 189.148L49.5377 190.658C46.1211 192.974 42.5977 195.141 38.9798 197.146C38.9413 197.135 38.9028 197.123 38.8642 197.112C38.5946 197.032 38.3504 196.951 38.0939 196.884C38.0554 196.872 38.03 196.873 37.9915 196.862C37.735 196.794 37.4784 196.727 37.2097 196.672C37.1843 196.673 37.1458 196.662 37.1327 196.649C36.8639 196.595 36.5951 196.541 36.3264 196.486C36.2756 196.488 36.2239 196.464 36.1731 196.466C35.9175 196.424 35.6487 196.369 35.3808 196.34C35.3301 196.342 35.2915 196.331 35.2408 196.332C34.9597 196.291 34.6918 196.262 34.3985 196.234L34.3732 196.235C34.1053 196.206 33.8251 196.19 33.5449 196.174C33.4941 196.175 33.4556 196.164 33.4048 196.166C33.1247 196.15 32.8576 196.146 32.5906 196.143C32.5398 196.144 32.489 196.146 32.4251 196.136C32.1581 196.132 31.8779 196.116 31.5986 196.125C31.5601 196.114 31.5224 196.128 31.4717 196.13C31.2046 196.126 30.9253 196.136 30.6591 196.157C30.6338 196.158 30.6084 196.159 30.583 196.16C30.3037 196.169 30.0121 196.192 29.7459 196.214C29.6951 196.216 29.6444 196.217 29.5936 196.219C29.3274 196.241 29.049 196.276 28.7828 196.297C28.732 196.299 28.6812 196.301 28.6304 196.303C28.352 196.338 28.0736 196.372 27.7951 196.407C27.7697 196.408 27.7575 196.421 27.7321 196.422C27.4536 196.457 27.1883 196.504 26.9099 196.539C26.8722 196.553 26.8214 196.555 26.7961 196.556C26.5307 196.603 26.24 196.651 25.9747 196.698C25.9239 196.7 25.8609 196.715 25.8232 196.729C25.5457 196.789 25.2804 196.836 25.0028 196.896C24.9651 196.91 24.9143 196.912 24.8767 196.926C24.5991 196.987 24.3347 197.059 24.0571 197.119C24.0448 197.133 24.0317 197.12 24.0194 197.133C23.7296 197.207 23.4651 197.279 23.1753 197.353C23.1376 197.367 23.0746 197.382 23.0369 197.396C22.7725 197.468 22.4958 197.554 22.2313 197.627C22.1814 197.654 22.1306 197.655 22.0807 197.683C21.804 197.768 21.5273 197.854 21.2637 197.952C21.2383 197.953 21.2138 197.979 21.1884 197.98C20.9248 198.078 20.6603 198.15 20.3968 198.248C20.3591 198.262 20.3214 198.276 20.296 198.277C20.0325 198.375 19.7689 198.473 19.5053 198.571C19.4554 198.598 19.4046 198.6 19.3547 198.627C19.0911 198.725 18.8406 198.835 18.577 198.933C18.5394 198.947 18.4895 198.975 18.4518 198.989C18.1759 199.1 17.9255 199.21 17.6496 199.321C17.3869 199.444 17.1111 199.555 16.8483 199.679C16.8107 199.693 16.7608 199.72 16.7231 199.734C16.4727 199.844 16.2231 199.98 15.9726 200.09C15.9227 200.117 15.885 200.131 15.8351 200.158C15.5855 200.294 15.335 200.404 15.0854 200.54C15.0478 200.554 15.0355 200.567 14.9979 200.581C14.7605 200.704 14.5109 200.839 14.2736 200.962C14.2613 200.975 14.2237 200.989 14.2114 201.002C13.9618 201.138 13.7245 201.26 13.488 201.408C13.4381 201.435 13.4004 201.449 13.3505 201.476C13.1263 201.611 12.8767 201.747 12.6525 201.882C12.6149 201.896 12.5781 201.935 12.5404 201.949C12.3039 202.097 12.0675 202.245 11.831 202.393L11.8187 202.406C11.5823 202.554 11.3458 202.702 11.1347 202.849C11.0971 202.863 11.0725 202.889 11.0349 202.903C10.8238 203.05 10.5996 203.185 10.3762 203.345C10.3263 203.372 10.3018 203.398 10.2519 203.426C10.0408 203.573 9.81746 203.733 9.60638 203.88C9.58185 203.906 9.55646 203.907 9.53193 203.933C9.32085 204.08 9.1229 204.24 8.91182 204.387C8.89956 204.4 8.88729 204.413 8.8619 204.414C8.66395 204.573 8.45287 204.72 8.25492 204.88C8.23039 204.906 8.18047 204.933 8.15594 204.959C7.95799 205.119 7.7723 205.265 7.57435 205.424C7.54982 205.45 7.51217 205.464 7.47537 205.504C7.27742 205.663 7.09259 205.835 6.89464 205.994L6.88238 206.007C6.69755 206.179 6.51187 206.325 6.32704 206.496C6.30251 206.523 6.29025 206.536 6.26572 206.562C6.09316 206.721 5.9206 206.879 5.74804 207.038C5.72351 207.064 5.69898 207.09 5.66219 207.129C5.48962 207.288 5.33019 207.459 5.16989 207.604C5.14536 207.63 5.1331 207.643 5.10857 207.67C4.94914 207.84 4.77658 207.999 4.64253 208.169L4.63027 208.182C4.47084 208.353 4.32367 208.51 4.18962 208.68C4.1651 208.706 4.14057 208.733 4.1283 208.746C3.98113 208.903 3.84709 209.073 3.72531 209.23C3.70078 209.256 3.68852 209.269 3.66399 209.296C3.52995 209.465 3.3959 209.635 3.27412 209.792C3.26186 209.805 3.26186 209.805 3.24959 209.818C3.12782 209.975 2.99378 210.145 2.88512 210.314C2.87286 210.327 2.86059 210.34 2.84833 210.353C2.72655 210.51 2.6179 210.679 2.52151 210.835C2.49698 210.861 2.49784 210.887 2.47332 210.913C2.37693 211.069 2.26828 211.238 2.17189 211.394C2.15962 211.407 2.16049 211.432 2.13596 211.458C1.94405 211.796 1.77667 212.107 1.62241 212.43C1.61014 212.443 1.611 212.468 1.59874 212.481C1.52774 212.636 1.45675 212.791 1.39801 212.933C1.38575 212.946 1.38661 212.972 1.36208 212.998C1.29109 213.153 1.24548 213.307 1.19987 213.461C1.19987 213.461 1.18761 213.474 1.20074 213.487C1.15513 213.641 1.10953 213.795 1.07618 213.936L1.07705 213.961C1.04371 214.102 1.01037 214.243 0.99015 214.397C0.991014 214.422 0.97875 214.435 0.979612 214.461C1.09153 214.762 1.07045 214.89 1.0625 215.03C1.06337 215.056 1.06337 215.056 1.06423 215.081C1.04833 215.361 1.04556 215.654 1.06731 215.92C1.06817 215.946 1.06817 215.946 1.06904 215.971C1.08648 216.11 1.10305 216.224 1.13276 216.35C1.13362 216.376 1.14675 216.388 1.14761 216.413C1.17732 216.539 1.20702 216.666 1.26212 216.791C1.26212 216.791 1.27524 216.803 1.27611 216.829C1.31808 216.942 1.37317 217.067 1.42827 217.192L1.44139 217.204C1.49649 217.33 1.56385 217.442 1.63121 217.554C1.64434 217.566 1.6452 217.592 1.65833 217.604C1.72569 217.716 1.80531 217.815 1.89807 217.926C1.91119 217.939 1.92432 217.951 1.93745 217.963C2.00394 218.05 2.09669 218.161 2.20171 218.26C3.37174 219.402 5.44376 220.158 8.62887 220.381C27.2011 221.581 36.8969 205.801 39.8136 199.992C43.5445 197.945 47.1677 195.723 50.6842 193.353L52.6216 192.015C58.5686 187.858 64.2076 183.241 69.4651 178.243C66.0036 186.347 58.58 206.907 67.9266 215.275C70.4041 217.492 72.6285 218.243 74.5374 217.937C74.5496 217.924 74.5627 217.936 74.575 217.923C75.131 217.827 75.6713 217.644 76.1705 217.373L76.1828 217.359C76.682 217.088 77.1655 216.728 77.6087 216.306L77.621 216.293C78.0642 215.871 78.4917 215.361 78.8667 214.801C78.879 214.788 78.879 214.788 78.8913 214.775C78.964 214.671 79.049 214.553 79.1086 214.437C79.3977 213.969 79.6729 213.464 79.9472 212.933C79.9595 212.92 79.9709 212.882 79.9831 212.868C80.0427 212.752 80.0892 212.623 80.1611 212.494C80.1733 212.48 80.1725 212.455 80.1847 212.442C80.3618 212.042 80.5257 211.629 80.6888 211.191C80.7011 211.178 80.7002 211.153 80.7125 211.14C80.7589 211.011 80.8054 210.882 80.8519 210.753C80.8633 210.715 80.8869 210.663 80.8983 210.625C80.9448 210.496 80.979 210.38 81.0123 210.239C81.0237 210.201 81.0351 210.162 81.0588 210.111C81.1842 209.687 81.3096 209.263 81.4097 208.84C81.4333 208.788 81.4316 208.737 81.443 208.699C81.4772 208.583 81.4983 208.455 81.5194 208.327C81.5299 208.263 81.5527 208.186 81.5632 208.122C81.5843 207.995 81.6185 207.879 81.6396 207.751C81.6624 207.674 81.6729 207.61 81.6826 207.521C81.7037 207.393 81.7379 207.277 81.7467 207.162C81.7573 207.098 81.7678 207.035 81.7783 206.971C81.8213 206.74 81.8644 206.51 81.882 206.28C81.8917 206.191 81.9013 206.102 81.9241 206.025C81.933 205.91 81.9549 205.807 81.9637 205.693C81.9734 205.603 81.9953 205.501 81.9919 205.399C82.0007 205.284 82.0226 205.182 82.0314 205.067C82.0534 204.965 82.0499 204.863 82.0587 204.748C82.0676 204.634 82.0772 204.544 82.086 204.43C82.1063 204.276 82.1142 204.136 82.1213 203.971C82.1424 203.843 82.1381 203.716 82.1591 203.588C82.1671 203.448 82.1759 203.333 82.1839 203.193C82.1935 203.103 82.1901 203.002 82.1998 202.912C82.2086 202.798 82.2043 202.671 82.2131 202.556C82.2096 202.454 82.2193 202.365 82.2158 202.263C82.2115 202.136 82.2195 201.996 82.2283 201.881C82.238 201.792 82.2354 201.716 82.2319 201.614C82.2373 201.398 82.2304 201.195 82.2357 200.978C82.234 200.928 82.2323 200.877 82.2428 200.813C82.2499 200.647 82.2316 200.483 82.2387 200.317C82.2361 200.241 82.2327 200.139 82.2301 200.063C82.2258 199.936 82.2206 199.784 82.2163 199.656C82.2137 199.58 82.2102 199.479 82.2076 199.402C82.2025 199.25 82.185 199.111 82.1798 198.958C82.1773 198.882 82.1747 198.806 82.1721 198.73C82.1521 198.514 82.132 198.299 82.112 198.083C82.1111 198.058 82.0971 198.02 82.1085 197.982C82.0894 197.792 82.0702 197.601 82.051 197.411C82.0485 197.335 82.0336 197.272 82.0179 197.184C82.0004 197.044 81.9821 196.88 81.9647 196.74C81.9621 196.664 81.9464 196.576 81.9315 196.513C81.901 196.361 81.8958 196.209 81.8652 196.057C81.8504 195.994 81.8478 195.918 81.8329 195.855C81.7998 195.627 81.7675 195.424 81.7221 195.21C81.7212 195.184 81.7081 195.172 81.7203 195.159C81.688 194.957 81.6435 194.767 81.6112 194.565C81.5963 194.502 81.5815 194.439 81.5658 194.35C81.5352 194.199 81.5046 194.047 81.4618 193.909C81.4338 193.834 81.4312 193.757 81.4033 193.682C81.3727 193.53 81.3299 193.392 81.2993 193.24C81.2844 193.177 81.2696 193.114 81.2547 193.051C81.1971 192.85 81.1516 192.635 81.0808 192.421C81.0808 192.421 81.0677 192.409 81.08 192.396C81.0223 192.194 80.9646 191.993 80.9069 191.791C80.8921 191.728 80.8772 191.665 80.837 191.603C80.7941 191.465 80.7382 191.314 80.6953 191.175C80.6674 191.1 80.6525 191.037 80.6245 190.962C80.5817 190.823 80.5257 190.673 80.4706 190.547C80.4558 190.484 80.4155 190.422 80.4007 190.359C80.3176 190.158 80.2477 189.97 80.1646 189.769C78.9456 186.81 77.8226 184.432 76.8175 182.533C76.5192 181.984 76.2481 181.484 75.9778 181.01C75.7075 180.536 75.4511 180.1 75.1834 179.702C74.8073 179.104 74.4459 178.57 74.1126 178.111C74.0058 177.962 73.8991 177.813 73.7923 177.664C73.3662 177.093 72.9952 176.648 72.6522 176.278C72.5726 176.179 72.4938 176.106 72.4019 176.02C72.2707 175.897 72.1517 175.761 72.0466 175.663C75.1441 172.557 78.1095 169.302 80.9181 165.926L83.0777 163.271C86.9895 158.319 90.5748 153.11 93.7969 147.685C92.9474 156.73 91.6587 182.779 104.657 184.155C105.218 184.212 105.728 184.246 106.237 184.254C106.364 184.25 106.478 184.259 106.605 184.254L106.631 184.254C106.758 184.249 106.859 184.246 106.973 184.229L106.998 184.228C107.1 184.225 107.214 184.208 107.315 184.205L107.341 184.204C107.518 184.198 107.632 184.181 107.734 184.178L107.759 184.177C107.861 184.174 107.961 184.145 108.063 184.141C108.075 184.128 108.088 184.14 108.101 184.127C108.189 184.112 108.303 184.095 108.391 184.079C108.404 184.066 108.417 184.078 108.429 184.065C108.517 184.049 108.618 184.021 108.707 184.005C108.719 183.992 108.732 184.004 108.744 183.991C108.833 183.975 108.921 183.959 109.009 183.918C109.021 183.905 109.034 183.917 109.046 183.904C109.135 183.889 109.21 183.861 109.298 183.819C109.31 183.806 109.323 183.819 109.335 183.805C109.411 183.777 109.499 183.762 109.587 183.721C109.599 183.708 109.612 183.72 109.624 183.707C109.7 183.679 109.775 183.651 109.863 183.61C109.875 183.596 109.888 183.609 109.9 183.596C109.976 183.568 110.051 183.54 110.125 183.486C110.138 183.473 110.151 183.485 110.163 183.472C110.238 183.444 110.3 183.404 110.388 183.363C110.4 183.35 110.4 183.35 110.426 183.349C110.488 183.309 110.563 183.281 110.638 183.227C110.65 183.214 110.65 183.214 110.675 183.213C110.737 183.173 110.8 183.133 110.874 183.079C110.886 183.066 110.886 183.066 110.899 183.053C110.961 183.013 111.023 182.972 111.097 182.919C111.11 182.906 111.11 182.906 111.122 182.893C111.184 182.852 111.245 182.787 111.308 182.747C111.32 182.733 111.32 182.733 111.332 182.72C111.394 182.68 111.456 182.614 111.505 182.562L111.517 182.549C111.566 182.496 111.627 182.43 111.69 182.39L111.702 182.377C111.751 182.325 111.812 182.259 111.861 182.206L111.873 182.193C111.923 182.141 111.984 182.075 112.02 182.01C112.02 182.01 112.02 182.01 112.032 181.997C112.093 181.931 112.129 181.867 112.191 181.801C112.239 181.723 112.288 181.67 112.336 181.593C113.398 179.929 113.611 177.594 113.201 174.874C113.184 174.76 113.168 174.647 113.151 174.533C113.151 174.533 113.151 174.533 113.138 174.52C113.122 174.407 113.105 174.293 113.076 174.192L113.075 174.166C113.059 174.053 113.03 173.952 113.013 173.838C113 173.826 113.012 173.813 112.999 173.8C112.983 173.686 112.954 173.586 112.924 173.459C112.911 173.447 112.923 173.434 112.91 173.422C112.894 173.308 112.865 173.207 112.823 173.094C112.822 173.069 112.809 173.056 112.821 173.043C112.792 172.943 112.776 172.829 112.734 172.716C112.733 172.69 112.72 172.678 112.719 172.653C112.69 172.552 112.673 172.438 112.631 172.325C112.631 172.3 112.617 172.287 112.617 172.262C112.588 172.161 112.559 172.06 112.529 171.934C112.528 171.909 112.515 171.897 112.514 171.871C112.485 171.77 112.444 171.657 112.415 171.557C112.414 171.531 112.401 171.519 112.387 171.481C112.358 171.381 112.316 171.268 112.287 171.167C112.286 171.141 112.26 171.117 112.259 171.091C112.23 170.991 112.188 170.878 112.159 170.777C112.159 170.751 112.145 170.714 112.131 170.702C112.103 170.601 112.061 170.488 112.032 170.387C112.031 170.362 112.017 170.324 112.004 170.312C111.975 170.211 111.933 170.098 111.904 169.997C111.89 169.959 111.889 169.934 111.863 169.91C111.834 169.809 111.792 169.696 111.763 169.595C111.749 169.557 111.749 169.532 111.722 169.507C111.693 169.407 111.651 169.294 111.597 169.194C111.583 169.156 111.582 169.131 111.556 169.106C111.514 168.993 111.473 168.905 111.431 168.792C111.417 168.755 111.416 168.729 111.402 168.692C111.36 168.579 111.319 168.491 111.277 168.378C111.263 168.34 111.249 168.303 111.236 168.29C111.194 168.177 111.153 168.09 111.111 167.977C111.097 167.939 111.083 167.901 111.07 167.889C111.028 167.776 110.987 167.689 110.945 167.576C110.931 167.538 110.917 167.5 110.891 167.476C110.849 167.363 110.794 167.263 110.766 167.162C110.752 167.124 110.738 167.087 110.724 167.049C110.682 166.936 110.627 166.836 110.585 166.723C110.571 166.685 110.557 166.648 110.544 166.635C110.502 166.522 110.448 166.422 110.406 166.309C110.392 166.272 110.378 166.234 110.352 166.21C110.298 166.11 110.256 165.997 110.202 165.897C110.188 165.859 110.161 165.835 110.147 165.797C110.093 165.697 110.051 165.584 109.997 165.484C109.983 165.446 109.969 165.409 109.943 165.384C109.888 165.284 109.846 165.171 109.792 165.071C109.778 165.034 109.752 165.009 109.751 164.984C109.697 164.884 109.642 164.759 109.587 164.659C109.574 164.621 109.547 164.597 109.546 164.571C109.492 164.471 109.437 164.346 109.383 164.246C109.369 164.208 109.356 164.196 109.342 164.158C109.274 164.046 109.232 163.933 109.165 163.821C109.164 163.796 109.138 163.771 109.137 163.746C109.07 163.634 109.015 163.508 108.947 163.396C108.934 163.384 108.933 163.358 108.907 163.334C108.852 163.209 108.785 163.096 108.704 162.972C108.691 162.96 108.69 162.934 108.69 162.934C108.622 162.797 108.554 162.685 108.486 162.547C107.957 161.56 107.39 160.588 106.798 159.616C106.731 159.504 106.65 159.38 106.583 159.267C106.556 159.243 106.556 159.217 106.529 159.193C106.475 159.093 106.395 158.994 106.341 158.894C106.327 158.856 106.288 158.82 106.274 158.782C106.22 158.682 106.153 158.595 106.099 158.495C106.072 158.445 106.032 158.409 106.018 158.371C105.952 158.284 105.898 158.184 105.844 158.11C105.817 158.06 105.79 158.01 105.751 157.973C105.684 157.886 105.643 157.799 105.577 157.712C105.55 157.662 105.509 157.6 105.482 157.55C105.429 157.475 105.375 157.376 105.321 157.301C105.281 157.239 105.254 157.189 105.214 157.127C105.16 157.052 105.107 156.978 105.053 156.878C105.012 156.816 104.985 156.766 104.945 156.704C104.892 156.629 104.838 156.555 104.785 156.48C104.745 156.418 104.704 156.356 104.677 156.306C104.624 156.231 104.571 156.157 104.517 156.082C104.477 156.02 104.437 155.958 104.396 155.896C104.343 155.821 104.29 155.747 104.236 155.672C104.196 155.61 104.156 155.548 104.116 155.485C104.062 155.411 104.009 155.337 103.955 155.262C103.915 155.2 103.875 155.138 103.822 155.089C103.769 155.014 103.716 154.94 103.662 154.865C103.622 154.803 103.582 154.741 103.529 154.692C103.476 154.617 103.436 154.555 103.382 154.48C103.342 154.418 103.289 154.344 103.236 154.295C103.183 154.22 103.143 154.158 103.077 154.097C103.037 154.034 102.983 153.96 102.931 153.911C102.878 153.836 102.837 153.774 102.772 153.713C102.731 153.651 102.678 153.576 102.626 153.527C102.572 153.452 102.532 153.39 102.466 153.329C102.426 153.267 102.36 153.205 102.32 153.143C102.267 153.069 102.214 153.02 102.161 152.945C102.121 152.883 102.055 152.822 102.015 152.759C101.975 152.697 101.909 152.636 101.869 152.574C101.828 152.511 101.763 152.45 101.723 152.388C101.682 152.326 101.617 152.264 101.576 152.202C101.536 152.14 101.471 152.078 101.43 152.016C101.39 151.954 101.324 151.893 101.284 151.83C101.244 151.768 101.178 151.707 101.138 151.645C101.098 151.582 101.032 151.521 100.992 151.459C100.952 151.397 100.886 151.335 100.846 151.273C100.806 151.211 100.74 151.15 100.7 151.087C100.659 151.025 100.594 150.964 100.554 150.902C100.513 150.839 100.448 150.778 100.407 150.716C100.355 150.667 100.302 150.592 100.249 150.543C100.197 150.494 100.143 150.42 100.091 150.37C100.038 150.321 99.9848 150.247 99.9323 150.198C99.8798 150.149 99.8395 150.087 99.7739 150.025C99.7214 149.976 99.668 149.902 99.6155 149.853C99.563 149.803 99.5228 149.741 99.4702 149.692C99.4177 149.643 99.3644 149.569 99.3119 149.519C99.2594 149.47 99.2191 149.408 99.1666 149.359C99.1141 149.31 99.0607 149.236 99.0082 149.186C98.9557 149.137 98.9155 149.075 98.863 149.026C98.8104 148.977 98.7571 148.903 98.7046 148.853C98.6521 148.804 98.6118 148.742 98.5593 148.693C98.5068 148.644 98.4534 148.57 98.4009 148.52C98.3484 148.471 98.2959 148.422 98.2557 148.36C98.2032 148.311 98.1375 148.25 98.0973 148.187C98.0448 148.138 97.9923 148.089 97.952 148.027C97.8995 147.978 97.847 147.929 97.7936 147.854C97.7411 147.805 97.6886 147.756 97.6361 147.707C97.5836 147.658 97.518 147.597 97.4655 147.548C97.4129 147.499 97.3604 147.449 97.3211 147.413C97.2686 147.364 97.216 147.315 97.1504 147.253C97.0979 147.204 97.0454 147.155 97.006 147.118C96.9535 147.069 96.901 147.02 96.8485 146.971C96.796 146.922 96.7566 146.885 96.7041 146.836C96.6516 146.787 96.5991 146.738 96.5466 146.689C96.4941 146.64 96.4547 146.603 96.4022 146.554C96.3497 146.505 96.2972 146.456 96.2446 146.407C96.1921 146.357 96.1528 146.321 96.1003 146.272C96.0477 146.222 95.9952 146.173 95.9427 146.124C95.9033 146.088 95.8508 146.038 95.8115 146.002C95.759 145.953 95.7064 145.903 95.6408 145.842C95.6014 145.805 95.5489 145.756 95.5095 145.719C95.457 145.67 95.3914 145.609 95.3266 145.573C95.3135 145.561 95.2873 145.536 95.2741 145.524C97.5534 141.53 99.6252 137.416 101.491 133.207C102.009 132.019 102.528 130.831 103.021 129.619L103.924 127.389C105.784 122.659 107.426 117.847 108.951 112.975C109.411 121.302 112.382 138.419 128.365 144.577C131.494 145.78 133.752 146.022 135.286 145.537C135.286 145.537 135.299 145.524 135.312 145.536C135.45 145.493 135.575 145.438 135.701 145.383C135.701 145.383 135.713 145.37 135.726 145.382C135.851 145.327 135.963 145.26 136.089 145.205C136.325 145.057 136.523 144.897 136.72 144.713C136.806 144.621 136.892 144.529 136.964 144.425L136.977 144.411C137.049 144.307 137.122 144.203 137.182 144.087C137.182 144.087 137.182 144.087 137.194 144.073C137.398 143.723 137.538 143.337 137.638 142.914C137.638 142.914 137.65 142.901 137.637 142.888C137.67 142.747 137.69 142.594 137.724 142.453C137.724 142.453 137.736 142.44 137.723 142.428C137.783 141.968 137.805 141.471 137.761 140.939L137.76 140.913C137.754 140.735 137.736 140.571 137.717 140.381L137.716 140.355C137.646 139.798 137.537 139.204 137.376 138.586C137.363 138.574 137.375 138.561 137.362 138.549C137.305 138.347 137.26 138.158 137.189 137.944C137.176 137.932 137.175 137.907 137.175 137.907C137.118 137.705 137.047 137.491 136.976 137.278L136.963 137.265C136.821 136.838 136.653 136.386 136.485 135.934C136.472 135.921 136.471 135.896 136.471 135.896C136.387 135.67 136.291 135.457 136.207 135.231C136.206 135.205 136.193 135.193 136.179 135.156C136.083 134.943 135.986 134.704 135.89 134.491C135.877 134.479 135.876 134.454 135.876 134.454C135.67 133.99 135.438 133.528 135.205 133.04C135.192 133.027 135.191 133.002 135.178 132.99C135.069 132.764 134.946 132.527 134.811 132.303C134.797 132.265 134.784 132.253 134.77 132.215C134.648 131.978 134.513 131.753 134.391 131.516C134.378 131.504 134.364 131.466 134.35 131.454C134.08 130.98 133.784 130.481 133.487 129.982C133.474 129.97 133.473 129.945 133.46 129.933C133.312 129.696 133.164 129.459 133.016 129.223C133.002 129.185 132.976 129.161 132.962 129.123C132.814 128.886 132.666 128.65 132.506 128.426C132.48 128.402 132.466 128.364 132.44 128.339C132.279 128.091 132.119 127.867 131.958 127.618C131.945 127.606 131.932 127.594 131.931 127.568C131.77 127.32 131.596 127.084 131.423 126.848C131.41 126.836 131.397 126.824 131.396 126.798C131.223 126.562 131.05 126.327 130.876 126.091C130.85 126.066 130.823 126.016 130.797 125.992C130.624 125.756 130.45 125.521 130.265 125.298C130.225 125.261 130.211 125.223 130.172 125.187C129.999 124.951 129.8 124.716 129.627 124.48C129.601 124.456 129.6 124.43 129.574 124.406C129.387 124.158 129.202 123.935 129.003 123.7C128.99 123.688 128.977 123.676 128.964 123.664C128.765 123.429 128.566 123.194 128.368 122.959C128.328 122.922 128.314 122.885 128.275 122.848C128.09 122.625 127.891 122.39 127.693 122.181C127.654 122.144 127.627 122.094 127.587 122.057C127.389 121.822 127.191 121.613 126.992 121.378C126.966 121.354 126.927 121.317 126.913 121.279C126.702 121.057 126.49 120.81 126.279 120.588L126.266 120.576C126.055 120.354 125.831 120.12 125.62 119.899C125.581 119.862 125.554 119.837 125.515 119.801C125.304 119.579 125.093 119.357 124.883 119.161C124.844 119.124 124.805 119.087 124.765 119.05C124.554 118.829 124.331 118.62 124.121 118.424C124.082 118.387 124.055 118.362 124.016 118.326C123.78 118.105 123.557 117.896 123.32 117.675C123.307 117.663 123.307 117.663 123.294 117.651C123.071 117.442 122.835 117.221 122.611 117.013C122.585 116.988 122.546 116.951 122.52 116.927C122.296 116.718 122.061 116.523 121.838 116.314C121.798 116.277 121.759 116.241 121.72 116.204C121.484 116.008 121.274 115.812 121.039 115.616C120.999 115.58 120.96 115.543 120.908 115.519C120.673 115.324 120.438 115.128 120.189 114.921C120.176 114.908 120.15 114.884 120.136 114.871C119.901 114.676 119.653 114.494 119.418 114.298C119.392 114.274 119.365 114.249 119.327 114.238C119.079 114.055 118.844 113.86 118.609 113.69C118.57 113.653 118.518 113.629 118.479 113.593C118.244 113.423 117.997 113.24 117.762 113.07C117.723 113.033 117.671 113.01 117.632 112.973C117.384 112.791 117.137 112.634 116.877 112.464C116.851 112.44 116.812 112.428 116.799 112.416C116.552 112.259 116.293 112.09 116.046 111.933C116.033 111.921 115.994 111.909 115.981 111.897C115.721 111.728 115.474 111.571 115.215 111.427C115.163 111.404 115.124 111.367 115.086 111.355C114.839 111.198 114.58 111.055 114.334 110.923C114.282 110.9 114.243 110.863 114.191 110.839C113.932 110.695 113.673 110.551 113.427 110.42C113.388 110.409 113.362 110.384 113.324 110.373C113.064 110.229 112.793 110.098 112.534 109.954C112.521 109.942 112.508 109.93 112.495 109.943C112.224 109.812 111.953 109.682 111.695 109.563C111.656 109.552 111.604 109.528 111.578 109.504C111.32 109.385 111.062 109.267 110.803 109.148C110.752 109.125 110.7 109.101 110.662 109.09C110.52 109.031 110.378 108.972 110.223 108.901C112.389 101.579 114.362 94.1747 116.426 86.8308L117.401 83.3642C118.572 79.2933 119.795 75.2461 121.121 71.2462C124.748 78.8672 136.871 102.743 146.035 104.25C148.834 104.702 150.835 103.744 152.07 101.921C152.094 101.895 152.093 101.87 152.118 101.844C152.323 101.519 152.515 101.181 152.693 100.807C152.704 100.768 152.716 100.755 152.728 100.716C152.88 100.342 153.032 99.9431 153.145 99.5323C153.156 99.4938 153.156 99.4684 153.167 99.4299C153.223 99.2118 153.267 99.0068 153.323 98.7887C153.323 98.7887 153.335 98.7756 153.322 98.7633C153.366 98.5584 153.397 98.3412 153.44 98.1108C153.451 98.0723 153.451 98.0469 153.462 98.0083C153.493 97.7911 153.523 97.5485 153.54 97.319C153.539 97.2936 153.552 97.2804 153.551 97.255C153.568 97.0255 153.574 96.8092 153.591 96.5797C153.59 96.5543 153.602 96.5157 153.588 96.4781C153.592 96.2363 153.597 95.9945 153.588 95.7405C153.587 95.7151 153.586 95.6643 153.585 95.6389C153.577 95.4103 153.569 95.1816 153.548 94.9407C153.548 94.9153 153.547 94.8899 153.533 94.8523C153.524 94.5982 153.49 94.345 153.456 94.0919C153.454 94.0411 153.44 94.0034 153.452 93.9649C153.431 93.7239 153.385 93.4839 153.364 93.243C153.363 93.2176 153.362 93.1922 153.361 93.1668C153.327 92.9136 153.28 92.6482 153.233 92.3827C153.231 92.3319 153.204 92.282 153.202 92.2312C153.143 91.9789 153.109 91.7257 153.036 91.4611C153.023 91.4489 153.035 91.4357 153.022 91.4235C152.95 91.1589 152.889 90.8812 152.817 90.6166C152.802 90.5535 152.788 90.5158 152.773 90.4528C152.628 89.9236 152.445 89.383 152.249 88.8556C152.234 88.7925 152.207 88.7426 152.192 88.6795C152.094 88.4158 151.996 88.1521 151.885 87.8761C151.872 87.8638 151.871 87.8384 151.871 87.8384C151.761 87.5878 151.664 87.3495 151.553 87.099C151.526 87.049 151.498 86.9737 151.471 86.9237C151.348 86.6609 151.238 86.4103 151.102 86.1606C151.088 86.1229 151.062 86.0983 151.048 86.0607C150.925 85.8232 150.816 85.598 150.681 85.3737C150.654 85.3238 150.614 85.2616 150.587 85.2116C150.451 84.9619 150.304 84.7253 150.155 84.4633C150.128 84.4134 150.101 84.3889 150.074 84.3389C149.94 84.1146 149.806 83.9157 149.671 83.6914C149.644 83.6414 149.604 83.5792 149.564 83.5424C149.403 83.2936 149.243 83.0701 149.07 82.8344C149.043 82.7844 148.99 82.7353 148.963 82.6854C148.816 82.4742 148.657 82.2762 148.498 82.0781C148.458 82.0413 148.431 81.9914 148.392 81.9546C148.206 81.732 148.021 81.5094 147.835 81.2868C147.783 81.2377 147.756 81.1878 147.703 81.1387C147.519 80.9415 147.359 80.7435 147.162 80.5594C147.136 80.5349 147.097 80.4981 147.071 80.4735C146.873 80.2641 146.65 80.0555 146.452 79.846C146.399 79.7969 146.347 79.7479 146.294 79.6988C146.097 79.5147 145.887 79.3184 145.678 79.1475C145.665 79.1352 145.639 79.1107 145.626 79.0984C145.39 78.9029 145.168 78.7197 144.933 78.5243C144.88 78.4752 144.815 78.4393 144.763 78.3902C144.515 78.2079 144.28 78.0124 144.033 77.8555C136.456 72.5687 129.363 70.292 124.855 69.3008C123.626 69.0374 122.603 68.8687 121.799 68.7561C124.055 62.2068 126.632 55.761 129.777 49.5502L129.836 49.4337C129.884 49.3558 129.919 49.2656 129.968 49.1877L131.018 47.1682C131.018 47.1682 131.018 47.1682 131.017 47.1428C131.101 47.0001 131.172 46.845 131.256 46.7023L131.292 46.6375C132.022 45.3029 132.765 43.9806 133.547 42.6696C142.975 26.8859 155.965 13.3973 171.346 3.34984C172.838 2.38351 171.101 0.242657 169.62 1.19585C156.017 10.0766 144.222 21.6807 135.095 35.1143C133.001 38.1993 131.076 41.393 129.305 44.6323L127.931 47.235C124.52 53.8363 121.691 60.7103 119.235 67.737C119.039 67.5783 118.83 67.4328 118.622 67.2873C118.583 67.2505 118.518 67.2145 118.479 67.1777C118.218 66.9831 117.945 66.8017 117.672 66.6202C117.645 66.5957 117.62 66.5965 117.594 66.572C117.334 66.4028 117.074 66.2336 116.814 66.0644C116.762 66.0408 116.736 66.0162 116.697 65.9794C116.424 65.8233 116.164 65.6542 115.892 65.4981C115.84 65.4744 115.776 65.4385 115.736 65.4017C115.464 65.2456 115.205 65.1018 114.934 64.9711C114.895 64.9597 114.856 64.9229 114.817 64.9115C114.546 64.7809 114.3 64.6494 114.029 64.5187C113.99 64.5073 113.977 64.495 113.951 64.4705C113.679 64.3398 113.396 64.2223 113.138 64.1039C113.086 64.0802 113.034 64.0566 112.983 64.0329C112.712 63.9276 112.454 63.8092 112.171 63.7171C112.119 63.6935 112.081 63.6821 112.029 63.6584C111.759 63.5531 111.476 63.461 111.206 63.3558L111.192 63.3435C110.91 63.2514 110.627 63.1592 110.344 63.0671C110.293 63.0434 110.242 63.0452 110.19 63.0215C109.92 62.9417 109.651 62.8618 109.369 62.7951C109.305 62.7845 109.253 62.7609 109.203 62.7626C108.921 62.6959 108.651 62.616 108.382 62.5616C108.357 62.5624 108.318 62.551 108.305 62.5388C108.037 62.4843 107.78 62.4167 107.524 62.3746C107.486 62.3632 107.435 62.3649 107.397 62.3535C107.128 62.299 106.847 62.2577 106.591 62.2155C106.527 62.205 106.476 62.2067 106.413 62.1962C106.145 62.1671 105.876 62.1127 105.608 62.0837C105.569 62.0723 105.519 62.074 105.48 62.0626C105.212 62.0335 104.97 62.0036 104.715 61.9869C104.69 61.9877 104.651 61.9763 104.626 61.9772C104.358 61.9481 104.091 61.9445 103.811 61.9286C103.76 61.9303 103.696 61.9198 103.645 61.9215C103.378 61.9179 103.123 61.9011 102.856 61.8975C102.805 61.8992 102.755 61.9009 102.704 61.9026C102.437 61.899 102.17 61.8954 101.903 61.8917L101.877 61.8926C101.61 61.8889 101.331 61.8984 101.065 61.9202C101.014 61.9219 100.963 61.9237 100.913 61.9254C100.659 61.934 100.392 61.9558 100.139 61.9644C100.088 61.9661 100.037 61.9679 99.9739 61.9827C99.7078 62.0045 99.4416 62.0263 99.1885 62.0603C99.1632 62.0611 99.1378 62.062 99.1124 62.0629C98.8716 62.0838 98.6185 62.1178 98.3655 62.1519C98.3147 62.1536 98.277 62.1676 98.2263 62.1693C97.9732 62.2033 97.7202 62.2374 97.4803 62.2837C97.3436 62.3773 97.2928 62.3791 97.2298 62.3939Z" fill="#3D4775"/>
</svg>
