<svg width="143" height="184" viewBox="0 0 143 184" fill="none" xmlns="http://www.w3.org/2000/svg">
<path d="M34.9366 183.871C34.9366 183.871 170.237 128.511 224.568 51.3234C243.006 25.1354 251.104 1.50893 253.739 -18.2822C259.246 -59.544 219.358 -91.653 180.817 -76.9965C162.334 -69.9686 141.372 -56.7075 120.249 -32.6742C58.0109 38.1525 34.9366 183.871 34.9366 183.871Z" fill="#1A4143"/>
<path d="M186.977 -13.8907C182.959 -8.76392 178.937 -3.64905 174.919 1.4777C151.448 -3.02821 127.974 -7.54601 104.491 -12.0492C104.062 -11.4127 103.633 -10.7763 103.218 -10.1307C126.625 -5.63498 150.032 -1.1393 173.439 3.35639C169.642 8.19465 165.835 13.0475 162.037 17.8858C139.516 13.9355 117.183 8.97961 95.1125 3.0256C94.7566 3.65765 94.3863 4.28052 94.0303 4.91257C115.975 10.858 138.16 15.8108 160.549 19.7791C156.896 24.4339 153.244 29.0887 149.591 33.7435C128.432 29.0666 107.283 24.387 86.1234 19.7101C85.7962 20.3605 85.469 21.0109 85.1444 21.6732C106.136 26.314 127.142 30.964 148.133 35.6048C144.308 40.4869 140.468 45.3598 136.643 50.2419C116.534 47.5971 96.5408 44.1257 76.7216 39.8143C76.435 40.4803 76.1457 41.1345 75.8708 41.7978C95.4716 46.0722 115.24 49.5329 135.127 52.1791C131.184 57.2008 127.242 62.2226 123.301 67.2562C105.273 64.631 87.371 61.2269 69.6562 57.0421C69.3931 57.7027 69.1443 58.3725 68.8811 59.0331C86.3633 63.1716 104.015 66.5587 121.794 69.1788C118.587 73.2685 115.367 77.3609 112.16 81.4506C95.7793 79.7449 79.4946 77.2921 63.3555 74.0934C63.1211 74.7724 62.8841 75.4395 62.6497 76.1185C78.5209 79.279 94.5167 81.711 110.614 83.4197C106.701 88.4095 102.788 93.3993 98.8755 98.3891C84.7355 98.2783 70.6802 96.6358 56.9161 93.5013C56.7052 94.1749 56.4943 94.8484 56.286 95.5339C69.7274 98.6054 83.4376 100.253 97.2442 100.478C95.9099 102.173 94.5782 103.88 93.2439 105.575C92.8922 105.719 92.6122 106.021 92.5479 106.461C91.5825 107.696 90.6145 108.919 89.649 110.154C77.3058 110.854 65.0019 109.307 53.2471 105.584C53.0506 106.266 52.8515 106.937 52.655 107.62C64.0596 111.211 75.9556 112.815 87.9183 112.353C84.9802 116.094 82.0539 119.831 79.1158 123.571C69.0017 123.331 58.9574 122.337 49.0208 120.594C48.8387 121.286 48.6539 121.966 48.4718 122.658C58.0621 124.344 67.7587 125.33 77.5028 125.63C74.7792 129.109 72.0412 132.577 69.3176 136.056C62.6706 134.828 56.038 133.609 49.3909 132.381C48.297 132.184 47.1862 131.965 46.0923 131.768C45.9219 132.457 45.7489 133.134 45.5759 133.812C47.2109 134.109 48.8276 134.436 50.439 134.739C56.2365 135.813 62.0314 136.875 67.829 137.949C65.52 140.894 63.2203 143.824 60.9114 146.769C54.8178 146.713 48.7309 146.406 42.6691 145.818C42.5013 146.519 42.3453 147.217 42.1867 147.904C47.8578 148.457 53.5526 148.78 59.2566 148.863C56.5605 152.297 53.8761 155.729 51.1774 159.151C47.3961 158.987 43.6398 158.654 39.9032 158.129C39.7498 158.839 39.6056 159.535 39.4587 160.219C42.8111 160.682 46.1962 161.013 49.5854 161.193C47.9633 163.268 46.3385 165.33 44.7164 167.404C42.4853 167.319 40.2568 167.246 38.0374 167.158C37.8866 167.88 37.7542 168.573 37.6191 169.254C39.4503 169.319 41.2814 169.384 43.1009 169.451C40.6768 172.548 38.2502 175.633 35.8144 178.732C35.2201 182.056 34.938 183.871 34.938 183.871C34.938 183.871 36.584 183.203 39.5742 181.901C42.2794 178.452 44.9847 175.003 47.69 171.554C47.6428 173.765 47.7656 175.961 48.0203 178.139C48.6715 177.839 49.3343 177.536 50.0207 177.227C49.7389 174.418 49.695 171.566 49.9295 168.688C51.812 166.279 53.7088 163.879 55.5913 161.469C55.497 165.778 55.7752 170.038 56.4261 174.249C57.0772 173.949 57.7257 173.637 58.3978 173.319C57.7445 168.871 57.5173 164.337 57.732 159.788C57.7518 159.484 57.65 159.245 57.4972 159.055C60.9769 154.627 64.4449 150.203 67.9245 145.775C68.2897 153.14 68.9215 160.48 69.7938 167.79C70.4515 167.463 71.121 167.133 71.7878 166.792C70.8674 158.981 70.2346 151.129 69.8946 143.258C73.0146 139.276 76.1463 135.292 79.2663 131.31C79.9238 141.419 80.8387 151.518 81.9916 161.575C82.6585 161.234 83.3109 160.883 83.9869 160.527C82.7912 149.993 81.8595 139.422 81.2063 128.825C85.0314 123.943 88.8682 119.058 92.6932 114.176C93.1251 127.599 94.0693 140.991 95.5089 154.331C96.1705 153.966 96.8322 153.601 97.5055 153.233C96.0322 139.4 95.1014 125.505 94.7091 111.586C97.2299 108.367 99.7626 105.146 102.283 101.927C105.187 116.479 108.092 131.031 110.996 145.582C111.631 145.211 112.267 144.839 112.914 144.465C109.946 129.565 106.966 114.668 103.996 99.7569C108.895 93.5146 113.794 87.2723 118.693 81.03C119.381 100.08 121.094 119.069 123.826 137.91C124.479 137.509 125.122 137.111 125.775 136.71C123.018 117.412 121.317 97.9711 120.702 78.4667C125.184 72.7456 129.668 67.0365 134.162 61.3127C137.921 82.1911 141.682 103.081 145.441 123.96C146.075 123.526 146.712 123.104 147.334 122.673C143.519 101.483 139.705 80.2921 135.878 59.1044C137.588 56.9226 139.298 54.7408 141.01 52.5709C143.086 49.9172 145.177 47.2726 147.253 44.6188C151.835 67.3943 156.42 90.1816 161.002 112.957C161.619 112.502 162.248 112.045 162.863 111.578C158.223 88.5406 153.593 65.4888 148.953 42.4517C152.161 38.362 155.368 34.2722 158.576 30.1825C165.481 53.0093 172.386 75.836 179.303 98.66C179.889 98.1749 180.474 97.6897 181.058 97.1927C174.128 74.3092 167.21 51.4229 160.28 28.5394C160.24 28.4113 160.181 28.3124 160.122 28.2134C164.713 22.3674 169.291 16.524 173.881 10.6779C180.69 35.6016 187.486 60.528 194.294 85.4517C194.867 84.9071 195.452 84.3597 196.025 83.8151C189.185 58.7486 182.346 33.6822 175.494 8.61845C178.935 4.23754 182.364 -0.140653 185.804 -4.52155C195.01 18.8238 204.231 42.1783 213.438 65.5237C213.96 64.9158 214.47 64.3107 214.977 63.6936C205.751 40.3153 196.534 16.9223 187.308 -6.45599C190.973 -11.1135 194.622 -15.7801 198.287 -20.4376C209.541 0.972758 219.598 23.0095 228.422 45.5683C228.903 44.8323 229.376 44.1109 229.834 43.3803C221 20.9486 210.946 -0.963745 199.694 -22.2498C205.625 -29.8176 211.571 -37.3762 217.502 -44.944C227.63 -25.7981 236.836 -6.17699 245.129 13.8425C245.511 12.8794 245.872 11.9337 246.231 10.9761C238.066 -8.57303 229.012 -27.7291 219.094 -46.4236C219.032 -46.5344 218.962 -46.6307 218.87 -46.7095C221.361 -49.8964 223.866 -53.0741 226.357 -56.261C235.101 -41.3448 243.833 -26.4259 252.574 -11.5216C252.784 -12.5948 252.97 -13.6627 253.148 -14.7159C244.68 -29.1585 236.213 -43.6012 227.758 -58.0466C230.233 -61.1924 232.705 -64.3501 235.169 -67.4931C233.934 -68.5579 232.637 -69.5708 231.315 -70.5279C230.628 -69.657 229.941 -68.7861 229.254 -67.9152C214.642 -71.4788 200.03 -75.0425 185.43 -78.6088C184.149 -78.2506 182.869 -77.8302 181.585 -77.3715C196.995 -73.6047 212.404 -69.8498 227.826 -66.0858C225.611 -63.2751 223.411 -60.4551 221.196 -57.6444C202.926 -61.9384 184.647 -66.2179 166.376 -70.5119C165.457 -70.0248 164.531 -69.5112 163.608 -68.9857C182.32 -64.5936 201.044 -60.2043 219.759 -55.8004C216.327 -51.4341 212.908 -47.0705 209.476 -42.7042C188.834 -47.9505 168.195 -53.185 147.553 -58.4313C146.843 -57.8925 146.133 -57.3537 145.416 -56.7883C166.293 -51.4838 187.168 -46.1912 208.034 -40.8839C205.05 -37.0708 202.051 -33.2669 199.067 -29.4537C198.98 -29.346 198.904 -29.241 198.816 -29.1333C176.566 -33.5961 154.578 -39.2316 132.921 -46.0059C132.337 -45.4586 131.755 -44.8993 131.175 -44.3282C152.921 -37.4869 175.007 -31.7989 197.346 -27.2692C196.959 -26.7799 196.571 -26.2907 196.196 -25.8041C196.091 -25.7174 196.004 -25.6097 195.954 -25.4982C193.452 -22.3086 190.949 -19.1191 188.435 -15.9267C164.266 -18.9344 140.272 -23.1196 116.51 -28.4457C116.014 -27.8313 115.504 -27.2262 115.011 -26.5999C138.837 -21.1511 162.822 -16.9513 186.977 -13.8907Z" fill="#2F8C91"/>
</svg>
