<svg width="143" height="252" viewBox="0 0 143 252" fill="none" xmlns="http://www.w3.org/2000/svg">
<path d="M6.93408 58.4603C6.93408 58.4603 34.9787 222.744 108.146 286.337C132.983 307.917 157.545 316.867 179.167 319.253C224.262 324.246 270.552 273.716 263.818 226.88C260.59 204.411 250.976 179.16 229.251 154.17C165.268 80.5719 6.93408 58.4603 6.93408 58.4603Z" fill="#BAE3DD"/>
<path d="M191.172 237.194C186.42 232.456 181.668 227.741 176.916 223.002C187.949 193.895 198.994 164.775 210.027 135.667C209.424 135.164 208.809 134.675 208.193 134.185C197.185 163.219 186.177 192.254 175.18 221.275C170.686 216.809 166.193 212.32 161.699 207.854C171.873 179.936 183.11 152.213 195.427 124.77C194.808 124.348 194.19 123.927 193.582 123.514C181.326 150.798 170.097 178.363 159.942 206.109C155.624 201.819 151.306 197.507 146.987 193.218C157.622 166.956 168.269 140.68 178.904 114.418C178.251 114.037 177.608 113.666 176.944 113.299C166.383 139.366 155.823 165.433 145.262 191.5C140.738 186.984 136.212 182.491 131.688 177.975C139.776 153.084 148.758 128.311 158.63 103.701C157.963 103.379 157.286 103.049 156.619 102.727C146.836 127.06 137.922 151.561 129.891 176.17C125.232 171.536 120.562 166.894 115.914 162.246C123.444 139.919 131.824 117.719 141.04 95.7046C140.36 95.4192 139.671 95.1247 138.991 94.8393C129.888 116.55 121.599 138.451 114.138 160.46C110.347 156.678 106.545 152.911 102.754 149.129C108.83 128.868 115.734 108.715 123.434 88.6881C122.732 88.4299 122.03 88.1718 121.339 87.9C113.753 107.577 106.94 127.408 100.936 147.306C96.3079 142.7 91.6796 138.093 87.0515 133.487C90.769 116.062 96.1851 98.6778 103.201 81.578C102.498 81.3425 101.783 81.1207 101.08 80.8852C94.2021 97.5856 88.883 114.535 85.1196 131.564C83.5387 129.995 81.9683 128.436 80.399 126.853C80.322 126.431 80.0574 126.082 79.5722 126.037C78.4359 124.904 77.2893 123.761 76.153 122.628C78.5054 107.441 83.3719 92.2253 90.55 77.5845C89.8351 77.3627 89.1191 77.1635 88.4043 76.9416C81.4638 91.1513 76.6319 105.877 74.1183 120.592C70.6472 117.137 67.1864 113.691 63.7153 110.236C66.5529 97.7667 70.2329 85.3466 74.7093 73.0305C73.9714 72.8358 73.2554 72.6367 72.5291 72.4284C68.1923 84.3226 64.6208 96.2934 61.8042 108.332C58.5813 105.117 55.3584 101.902 52.1344 98.7105C55.1989 90.483 58.2645 82.2329 61.3291 74.0054C61.8285 72.644 62.3498 71.278 62.8493 69.9166C62.1218 69.7311 61.3943 69.5455 60.6772 69.369C59.9292 71.3885 59.1488 73.4034 58.4019 75.4001C55.7234 82.5929 53.0565 89.7721 50.378 96.9649C47.6505 94.2536 44.923 91.5422 42.1956 88.8308C43.7959 81.3121 45.7098 73.8067 47.8933 66.3238C47.1439 66.1428 46.3935 65.9845 45.6649 65.8217C43.6014 72.8417 41.7982 79.8524 40.2533 86.8993C37.072 83.721 33.8895 80.5653 30.7082 77.3869C31.8446 72.7267 33.1862 68.08 34.711 63.4513C33.9605 63.293 33.2101 63.1347 32.4804 62.9945C31.0974 67.1558 29.8874 71.326 28.8179 75.5007C26.8964 73.5874 24.9749 71.674 23.0534 69.7606C23.7066 67.0199 24.3712 64.2655 25.014 61.5157C24.2417 61.3619 23.4901 61.2263 22.7604 61.0861C22.2283 63.3413 21.6744 65.6011 21.1423 67.8563C18.2704 64.9953 15.409 62.1434 12.5371 59.2824C8.91438 58.7222 6.93424 58.4603 6.93424 58.4603C6.93424 58.4603 7.2704 60.4563 7.98226 64.0809C11.174 67.2684 14.3772 70.4422 17.5793 73.6387C15.0974 73.672 12.5941 73.9232 10.0831 74.3331C10.2507 75.1179 10.4172 75.9254 10.6149 76.76C13.8552 76.2771 17.08 76.1117 20.256 76.282C22.4869 78.5128 24.719 80.7209 26.95 82.9516C22.1268 83.0228 17.2378 83.5567 12.3486 84.5398C12.5381 85.3201 12.7161 86.1139 12.893 86.9305C18.0645 85.9336 23.2325 85.4539 28.3083 85.5323C28.6437 85.5411 28.9533 85.4094 29.2007 85.2232C33.3127 89.3084 37.4132 93.4072 41.5252 97.4923C33.1373 98.2599 24.712 99.3496 16.239 100.752C16.4389 101.542 16.6377 102.354 16.8584 103.161C25.8981 101.685 34.8879 100.568 43.8601 99.8138C47.5587 103.491 51.2573 107.168 54.9341 110.85C43.3704 112.109 31.7705 113.668 20.1459 115.513C20.3666 116.321 20.5884 117.105 20.8194 117.922C32.99 115.986 45.1337 114.381 57.2389 113.121C61.7632 117.637 66.299 122.139 70.8129 126.646C55.5847 127.759 40.2497 129.511 24.8421 131.861C25.0847 132.664 25.3272 133.467 25.5698 134.27C41.5326 131.86 57.4092 130.107 73.1986 129.036C76.1836 132.019 79.1698 134.98 82.1444 137.954C65.0113 142.157 47.8887 146.37 30.7556 150.573C31.0107 151.339 31.2659 152.106 31.5314 152.881C49.0814 148.569 66.6198 144.271 84.1594 139.949C89.9447 145.707 95.7403 151.475 101.526 157.233C79.9024 158.889 58.0757 161.834 36.1458 166.013C36.4217 166.798 36.7195 167.578 37.0058 168.372C59.4473 164.142 81.7717 161.206 103.912 159.6C109.211 164.886 114.522 170.16 119.811 175.437C95.335 180.965 70.8591 186.493 46.3718 192.035C46.703 192.797 47.0238 193.55 47.355 194.312C72.1924 188.697 97.0414 183.069 121.879 177.455C123.893 179.472 125.918 181.477 127.932 183.494C130.391 185.947 132.849 188.4 135.309 190.83C108.472 197.467 81.6569 204.099 54.8202 210.736C55.1848 211.479 55.5389 212.214 55.9035 212.958C83.0362 206.249 110.169 199.539 137.324 192.825C141.115 196.607 144.917 200.374 148.708 204.156C121.245 213.651 93.7599 223.151 66.2968 232.646C66.6958 233.349 67.0949 234.052 67.5054 234.742C95.0457 225.219 122.586 215.696 150.126 206.174C150.281 206.119 150.414 206.047 150.527 205.956C155.951 211.351 161.374 216.747 166.787 222.156C136.975 231.612 107.174 241.077 77.3625 250.533C77.8272 251.222 78.2919 251.912 78.7681 252.587C108.734 243.077 138.722 233.562 168.687 224.051C172.748 228.091 176.808 232.131 180.878 236.18C152.225 248.539 123.594 260.893 94.9409 273.252C95.4849 273.869 96.0508 274.481 96.6064 275.084C125.293 262.707 153.979 250.33 182.654 237.966C186.983 242.264 191.301 246.576 195.63 250.875C168.656 265.669 141.266 279.011 113.602 290.862C114.3 291.424 115.01 291.972 115.709 292.512C143.233 280.657 170.461 267.315 197.303 252.548C204.329 259.53 211.332 266.517 218.358 273.5C194.219 286.795 169.776 298.997 145.116 310.087C146.102 310.522 147.079 310.925 148.056 311.328C172.143 300.424 196.023 288.44 219.607 275.418C219.752 275.332 219.865 275.241 219.989 275.136C222.944 278.07 225.888 281.017 228.843 283.951C209.82 295.373 190.799 306.773 171.777 318.196C172.937 318.404 174.076 318.594 175.237 318.756C193.657 307.706 212.076 296.656 230.507 285.592C233.43 288.498 236.354 291.405 239.266 294.324C240.794 292.749 242.26 291.119 243.663 289.435C242.847 288.628 242.041 287.83 241.236 287.01C248.964 268.852 256.681 250.709 264.409 232.551C264.323 230.986 264.182 229.421 263.986 227.878C255.842 247.021 247.686 266.176 239.542 285.318C236.939 282.716 234.314 280.118 231.712 277.515C241.177 254.82 250.642 232.124 260.129 209.424C259.804 208.313 259.469 207.193 259.111 206.077C249.413 229.326 239.716 252.575 230.007 275.815C225.958 271.784 221.908 267.753 217.858 263.723C229.005 238.073 240.142 212.414 251.288 186.763C250.864 185.92 250.429 185.067 249.983 184.205C238.714 210.15 227.444 236.096 216.175 262.041C212.641 258.531 209.109 254.999 205.575 251.49C205.471 251.399 205.379 251.295 205.287 251.191C215.965 223.594 227.887 196.256 241.015 169.285C240.54 168.586 240.054 167.901 239.578 167.203C226.358 194.284 214.333 221.744 203.573 249.459C203.118 249.014 202.664 248.547 202.209 248.103C202.14 247.971 202.036 247.881 201.919 247.826C198.954 244.884 196 241.928 193.035 238.985C202.558 209.08 213.352 179.338 225.4 149.84C224.833 149.251 224.266 148.661 223.699 148.072C211.564 177.565 200.738 207.303 191.172 237.194Z" fill="#97C9CE"/>
</svg>
