<svg width="50" height="379" viewBox="0 0 50 379" fill="none" xmlns="http://www.w3.org/2000/svg">
<path d="M46.6688 359.298C46.6688 359.298 149.089 245.45 178.154 144.094C188.016 109.693 189.684 82.3144 187.57 61.1576C183.17 17.0227 142.342 1.55356 112.929 32.8505C98.8176 47.8638 83.9756 70.2381 71.361 103.606C34.2085 201.882 46.6688 359.298 46.6688 359.298Z" fill="#BAE3DD"/>
<path d="M131.993 94.1079C129.708 101.016 127.439 107.914 125.154 114.822C104.291 120.282 83.4158 125.738 62.552 131.198C62.3262 132.023 62.1112 132.851 61.8962 133.679C82.7085 128.235 103.521 122.791 124.322 117.344C122.172 123.869 120.006 130.406 117.855 136.932C97.9133 142.544 77.9176 147.075 57.9215 150.463C57.7515 151.257 57.5815 152.052 57.4156 152.832C77.2976 149.473 97.1884 145.02 117.015 139.483C114.95 145.752 112.87 152.033 110.805 158.303C91.8645 162.604 72.9135 166.901 53.9733 171.202C53.8359 172.006 53.7025 172.796 53.5759 173.604C72.3761 169.339 91.1762 165.075 109.976 160.81C107.798 167.39 105.635 173.959 103.457 180.54C85.8447 186.446 68.1569 191.469 50.424 195.586C50.3274 196.371 50.2266 197.171 50.1299 197.956C67.667 193.906 85.1656 188.967 102.585 183.159C100.353 189.926 98.1169 196.708 95.874 203.473C80.0288 208.518 64.1218 212.715 48.1939 216.044C48.1231 216.821 48.0481 217.613 47.9772 218.391C63.6877 215.122 79.3839 211.002 95.0101 206.063C93.1868 211.575 91.3743 217.091 89.5509 222.603C75.3001 227.879 60.9792 232.334 46.6058 235.991C46.5566 236.775 46.5074 237.559 46.4474 238.34C60.5734 234.765 74.6686 230.398 88.6704 225.251C86.4509 231.976 84.2313 238.7 82.0117 245.424C70.0123 251.347 57.7505 255.687 45.4027 258.403C45.3685 259.176 45.3452 259.952 45.311 260.725C57.3747 258.096 69.3359 253.9 81.0855 248.231C80.3305 250.525 79.5795 252.805 78.8136 255.096C78.5515 255.393 78.3686 255.823 78.4216 256.294C77.875 257.946 77.3242 259.613 76.7777 261.265C66.47 267.243 55.7165 270.926 44.9455 272.175C44.9222 272.951 44.9138 273.716 44.8905 274.492C55.3398 273.256 65.7677 269.804 75.795 264.227C74.1303 269.27 72.4698 274.299 70.8051 279.342C62.1879 283.418 53.4598 286.692 44.6642 289.179C44.6626 289.962 44.6542 290.727 44.6417 291.506C53.1382 289.117 61.5548 285.984 69.8872 282.12C68.3372 286.806 66.7871 291.492 65.2521 296.167C59.3638 297.76 53.4606 299.365 47.5724 300.958C46.5994 301.228 45.6197 301.481 44.6466 301.752C44.6491 302.52 44.6516 303.288 44.6582 304.042C46.1028 303.647 47.5499 303.285 48.9794 302.901C54.127 301.508 59.2638 300.111 64.4114 298.718C63.1056 302.679 61.7998 306.64 60.494 310.601C55.3168 313.16 50.0951 315.424 44.8423 317.428C44.8514 318.213 44.8756 318.988 44.893 319.745C49.8235 317.879 54.7037 315.779 59.5636 313.422C58.0302 318.05 56.5118 322.668 54.9783 327.296C51.7449 328.75 48.4854 330.007 45.2066 331.086C45.2308 331.861 45.2549 332.636 45.2874 333.382C48.2372 332.423 51.1634 331.3 54.0687 330.045C53.1467 332.837 52.2246 335.629 51.3026 338.422C49.4035 339.29 47.4936 340.156 45.5904 341.039C45.6213 341.831 45.6604 342.595 45.6928 343.341C47.2546 342.621 48.823 341.919 50.3847 341.199C49.0058 345.373 47.631 349.533 46.2521 353.707C46.5017 357.338 46.6671 359.298 46.6671 359.298C46.6671 359.298 47.9123 357.919 50.1562 355.322C51.6938 350.679 53.2205 346.033 54.7623 341.375C55.2055 343.639 55.7944 345.806 56.4883 347.895C56.9718 347.32 57.4704 346.734 57.9814 346.105C57.116 343.385 56.4605 340.509 56.0324 337.498C57.1089 334.251 58.1705 331.015 59.2471 327.768C60.1125 332.164 61.2911 336.373 62.7627 340.341C63.2396 339.748 63.7273 339.159 64.23 338.559C62.7014 334.339 61.5109 329.845 60.7001 325.136C60.6489 324.823 60.5104 324.609 60.3469 324.481C62.3139 318.511 64.2918 312.544 66.2588 306.574C68.184 313.874 70.3256 321.035 72.6797 328.073C73.1607 327.466 73.6567 326.848 74.146 326.212C71.6481 318.693 69.3926 311.027 67.3769 303.183C69.1479 297.811 70.9189 292.44 72.6965 287.086C75.482 297.042 78.4689 306.87 81.6466 316.569C82.1359 315.933 82.6102 315.308 83.1037 314.658C79.7739 304.507 76.6648 294.203 73.7872 283.75C75.9652 277.169 78.1324 270.586 80.3063 264.02C83.6179 277.424 87.365 290.583 91.5151 303.487C91.9978 302.834 92.4804 302.181 92.9631 301.527C88.6799 288.144 84.8406 274.487 81.4602 260.546C82.8997 256.202 84.3243 251.87 85.7597 247.541C91.4113 261.039 97.0671 274.523 102.719 288.021C103.175 287.375 103.632 286.73 104.093 286.07C98.2997 272.247 92.5169 258.427 86.7191 244.619C89.4936 236.213 92.2722 227.794 95.0466 219.388C99.799 238.38 105.427 256.867 111.877 274.788C112.342 274.114 112.801 273.422 113.27 272.733C106.7 254.369 100.993 235.419 96.1855 215.925C98.7348 208.219 101.273 200.51 103.819 192.819C111.581 212.358 119.344 231.896 127.118 251.438C127.559 250.725 127.996 250.026 128.437 249.313C120.556 229.489 112.664 209.661 104.784 189.836C105.758 186.903 106.722 183.967 107.696 181.034C108.879 177.459 110.062 173.884 111.23 170.32C120.117 191.434 128.997 212.531 137.884 233.646C138.308 232.912 138.727 232.193 139.15 231.459C130.165 210.111 121.181 188.763 112.189 167.398C114.012 161.886 115.825 156.37 117.648 150.858C128.507 171.016 139.372 191.192 150.231 211.35C150.621 210.606 151.012 209.862 151.392 209.115C140.503 188.901 129.614 168.686 118.724 148.472C118.662 148.359 118.592 148.276 118.514 148.221C121.113 140.342 123.712 132.463 126.322 124.588C137.554 146.926 148.79 169.25 160.021 191.588C160.392 190.791 160.763 189.995 161.123 189.195C149.829 166.744 138.529 144.275 127.236 121.825C129.182 115.926 131.129 110.028 133.079 104.116C146.008 123.832 158.93 143.532 171.859 163.249C172.169 162.418 172.472 161.57 172.771 160.736C159.825 140.998 146.878 121.26 133.943 101.525C136.012 95.241 138.092 88.9602 140.161 82.6762C154.394 99.5436 167.75 117.572 180.179 136.653C180.427 135.71 180.664 134.763 180.898 133.831C168.49 114.882 155.161 97.0024 140.969 80.241C144.331 70.0392 147.7 59.8551 151.063 49.6533C163.836 64.7182 175.948 80.6489 187.371 97.3745C187.487 96.2348 187.584 95.1206 187.682 94.0064C176.477 77.707 164.603 62.177 152.102 47.476C152.021 47.389 151.943 47.334 151.854 47.2758C153.266 42.9866 154.689 38.7007 156.101 34.4116C166.784 45.7763 177.451 57.1522 188.134 68.5169C188.073 67.3394 188.003 66.1906 187.912 65.0353C177.575 54.0253 167.237 43.0153 156.889 32.0019C158.289 27.756 159.689 23.5101 161.099 19.2674C159.812 18.7071 158.5 18.2334 157.163 17.846C156.775 19.0292 156.391 20.198 155.992 21.3779C142.834 24.0065 129.686 26.6383 116.527 29.2668C115.521 30.1852 114.523 31.1534 113.55 32.1602C127.422 29.3864 141.305 26.6158 155.177 23.8419C153.921 27.6299 152.671 31.4356 151.415 35.2235C135.001 38.6879 118.587 42.1522 102.165 45.5988C101.496 46.4934 100.822 47.4023 100.154 48.329C116.969 44.7818 133.784 41.2347 150.595 37.7019C148.653 43.5857 146.711 49.4695 144.769 55.3533C126.141 58.8555 107.51 62.372 88.882 65.8741C88.4037 66.7168 87.9213 67.5738 87.4347 68.4453C106.276 64.8979 125.117 61.3504 143.958 57.8029C142.268 62.9326 140.563 68.0735 138.874 73.2032C138.832 73.3473 138.78 73.4882 138.728 73.629C118.91 78.6051 99.0491 82.2995 79.2228 84.6885C78.8478 85.4996 78.4836 86.3141 78.1087 87.1252C98.0217 84.7623 117.98 81.0973 137.889 76.133C137.676 76.7894 137.448 77.457 137.236 78.1134C137.162 78.2478 137.12 78.3919 137.104 78.5282C135.688 82.8317 134.261 87.1321 132.845 91.4357C111.717 98.7111 90.4795 104.732 69.1882 109.467C68.8999 110.305 68.6116 111.142 68.3233 111.979C89.6264 107.325 110.866 101.337 131.993 94.1079Z" fill="#97C9CE"/>
</svg>
