<svg width="143" height="333" viewBox="0 0 143 333" fill="none" xmlns="http://www.w3.org/2000/svg">
<path d="M80.043 0.0943594C80.043 0.0943594 63.4144 216.13 128.394 338.981C150.437 380.669 175.928 406.942 200.004 423.442C250.189 457.859 318.238 425.982 324.425 365.175C327.394 336.014 323.863 299.467 306.391 255.63C254.895 126.457 80.043 0.0943594 80.043 0.0943594Z" fill="#2F8C91"/>
<path d="M238.1 331.874C234.054 323.17 230.024 314.471 225.978 305.767C247.258 277.562 268.554 249.36 289.838 221.137C289.29 220.149 288.742 219.161 288.172 218.186C266.948 246.314 245.724 274.441 224.5 302.569C220.684 294.348 216.856 286.106 213.04 277.886C232.972 250.576 254.092 224.176 276.34 198.782C275.75 197.894 275.181 196.993 274.59 196.105C252.435 221.339 231.418 247.543 211.549 274.665C207.878 266.758 204.206 258.851 200.535 250.944C220.52 225.919 240.502 200.911 260.487 175.887C259.854 175.025 259.221 174.163 258.57 173.297C238.743 198.122 218.893 222.96 199.065 247.784C195.211 239.499 191.378 231.2 187.523 222.914C204.17 197.95 221.818 173.682 240.447 150.198C239.767 149.379 239.104 148.566 238.42 147.765C219.982 170.984 202.495 194.96 185.993 219.628C182.033 211.095 178.074 202.561 174.098 194.023C189.353 171.809 205.541 150.273 222.624 129.5C221.935 128.717 221.225 127.946 220.537 127.163C203.667 147.658 187.666 168.871 172.58 190.759C169.353 183.813 166.131 176.851 162.904 169.905C175.879 149.275 189.765 129.263 204.528 109.934C203.797 109.177 203.083 108.424 202.352 107.666C187.814 126.665 174.145 146.307 161.352 166.559C157.415 158.086 153.477 149.613 149.54 141.14C158.965 122.437 170.331 104.853 183.452 88.6354C182.712 87.913 181.972 87.1906 181.215 86.4638C168.389 102.294 157.243 119.417 147.887 137.602C146.553 134.717 145.201 131.827 143.867 128.942C143.91 128.381 143.7 127.81 143.169 127.436C142.193 125.343 141.233 123.254 140.256 121.161C147.446 104.312 157.538 88.9905 170.108 75.8276C169.347 75.1183 168.603 74.4133 167.841 73.7039C155.674 86.4881 145.775 101.231 138.525 117.418C135.578 111.06 132.626 104.72 129.678 98.362C136.629 85.09 144.517 72.4055 153.312 60.3564C152.529 59.6601 151.764 58.9681 150.981 58.2718C142.489 69.8988 134.839 82.1264 128.052 94.8675C125.305 88.9665 122.579 83.0524 119.832 77.1514C125.796 69.1318 131.738 61.1252 137.701 53.1055C138.676 51.7827 139.69 50.4512 140.666 49.1283C139.879 48.4494 139.11 47.7749 138.34 47.1003C136.879 49.0758 135.392 51.0079 133.939 52.9486C128.734 59.9413 123.546 66.9384 118.341 73.9311C116.017 68.9309 113.706 63.9525 111.382 58.9523C115.454 50.8977 119.849 43.0172 124.595 35.3543C123.791 34.671 122.983 34.0052 122.192 33.3437C117.748 40.5105 113.59 47.8602 109.737 55.3795C107.03 49.5438 104.318 43.7255 101.627 37.8941C104.323 32.9813 107.223 28.2121 110.359 23.5952C109.534 22.925 108.722 22.2766 107.927 21.6325C105.122 25.7794 102.469 30.0568 100.009 34.4388C98.37 30.9225 96.7478 27.4107 95.1084 23.8944C96.6835 20.9876 98.2414 18.0765 99.8123 15.1871C98.9698 14.5126 98.1533 13.8815 97.354 13.2549C96.0677 15.6438 94.7814 18.0327 93.4992 20.4043C91.0531 15.1517 88.6243 9.90346 86.1824 4.63346C82.2386 1.66103 80.0578 0.0942971 80.0578 0.0942971C80.0578 0.0942971 79.8475 2.71834 79.5831 7.54429C82.304 13.4018 85.0249 19.2593 87.7458 25.1167C84.8948 23.6022 81.9509 22.3226 78.9437 21.2301C78.9078 22.2919 78.8678 23.3711 78.8193 24.4851C82.6671 25.9562 86.414 27.7711 90.013 29.9733C91.9184 34.0553 93.8023 38.1503 95.7077 42.2323C90.1524 39.2771 84.4158 36.8485 78.498 34.9464C78.4621 36.0082 78.4434 37.0744 78.4163 38.1754C84.6447 40.2297 90.7053 42.9064 96.4947 46.1792C96.8788 46.4056 97.2571 46.4273 97.6047 46.349C101.093 53.8776 104.586 61.3888 108.074 68.9173C98.2333 64.565 88.2487 60.5826 78.146 56.9396C78.1404 58.0275 78.1306 59.1328 78.138 60.2424C88.9258 64.151 99.5788 68.4685 110.062 73.1864C113.206 79.9447 116.346 86.7204 119.49 93.4787C105.879 87.7119 92.1111 82.2931 78.2426 77.2182C78.2499 78.3279 78.2788 79.4245 78.2992 80.5559C92.8184 85.8876 107.211 91.5936 121.456 97.6869C125.311 105.973 129.161 114.276 133.015 122.562C115.232 114.318 97.1523 106.776 78.8151 99.925C78.857 101.043 78.8988 102.162 78.9365 103.298C97.9374 110.427 116.664 118.318 135.069 126.939C137.611 132.401 140.149 137.88 142.691 143.341C121.813 137.639 100.935 131.937 80.0564 126.235C80.1238 127.323 80.1912 128.411 80.2545 129.516C101.628 135.362 123.005 141.19 144.396 147.04C149.319 157.646 154.242 168.251 159.165 178.856C133.876 167.257 107.996 157.06 81.639 148.311C81.7325 149.442 81.8302 150.557 81.9237 151.688C108.892 160.702 135.355 171.213 161.188 183.208C165.705 192.917 170.205 202.621 174.718 212.347C145.031 203.625 115.326 194.898 85.6392 186.175C85.7885 187.302 85.9206 188.425 86.0742 189.534C116.205 198.388 146.336 207.241 176.471 216.077C178.193 219.78 179.916 223.484 181.621 227.183C183.718 231.682 185.794 236.195 187.891 240.695C155.19 231.82 122.472 222.94 89.7705 214.065C89.9585 215.183 90.1423 216.319 90.3474 217.442C123.427 226.413 156.52 235.405 189.6 244.376C192.827 251.322 196.054 258.267 199.28 265.213C164.988 259.388 130.695 253.563 96.3989 247.756C96.6469 248.852 96.8948 249.949 97.1601 251.05C131.543 256.879 165.921 262.726 200.304 268.555C200.498 268.585 200.665 268.572 200.833 268.559C205.442 278.494 210.055 288.412 214.664 298.347C177.701 291.016 140.742 283.668 103.78 276.338C104.114 277.456 104.444 278.592 104.778 279.71C141.947 287.093 179.117 294.476 216.29 301.842C219.744 309.287 223.202 316.716 226.655 324.162C190.176 321.052 153.675 317.956 117.196 314.846C117.646 315.938 118.1 317.013 118.572 318.093C155.107 321.198 191.655 324.325 228.19 327.43C231.857 335.355 235.546 343.266 239.213 351.191C203.912 352.072 168.581 350.951 133.378 347.85C134.022 348.973 134.653 350.074 135.304 351.162C170.347 354.167 205.515 355.209 240.652 354.25C246.625 367.096 252.578 379.956 258.551 392.802C226.942 393.675 195.319 393.011 163.776 390.872C164.78 392.013 165.776 393.114 166.789 394.219C197.635 396.219 228.553 396.778 259.436 395.888C259.62 395.879 259.792 395.849 259.955 395.779C262.475 401.18 264.974 406.593 267.494 411.994C242.308 413.807 217.126 415.602 191.957 417.419C193.219 418.403 194.489 419.352 195.746 420.279C220.133 418.522 244.52 416.766 268.902 415.027C271.379 420.38 273.873 425.737 276.354 431.072C278.553 430.132 280.725 429.075 282.84 427.948C282.156 426.464 281.471 424.98 280.786 423.496C295.023 406.434 309.26 389.372 323.492 372.328C323.866 370.392 324.158 368.416 324.403 366.41C309.377 384.398 294.369 402.391 279.339 420.397C277.128 415.611 274.896 410.837 272.685 406.05C290.275 384.61 307.851 363.149 325.441 341.71C325.41 340.17 325.347 338.603 325.268 337.032C307.261 358.994 289.249 380.972 271.224 402.929C267.784 395.505 264.339 388.099 260.899 380.674C281.287 356.711 301.658 332.744 322.046 308.781C321.809 307.484 321.573 306.187 321.306 304.865C300.688 329.102 280.087 353.343 259.472 377.563C256.46 371.096 253.468 364.616 250.455 358.15C250.372 357.963 250.285 357.793 250.202 357.606C270.624 330.993 292.403 305.498 315.449 281.191C315.119 280.055 314.772 278.915 314.408 277.771C291.216 302.151 269.305 327.742 248.737 354.429C248.353 353.593 247.969 352.758 247.581 351.94C247.537 351.744 247.454 351.557 247.342 351.418C244.826 346 242.31 340.582 239.798 335.146C259.582 305.03 280.787 275.919 303.327 247.866C302.851 246.804 302.397 245.729 301.904 244.663C279.162 272.72 257.945 301.81 238.1 331.874Z" fill="#286F7F"/>
</svg>
