<svg width="77" height="327" viewBox="0 0 77 327" fill="none" xmlns="http://www.w3.org/2000/svg">
<path d="M100.484 88.123C116.128 90.5329 136.339 81.2601 143.505 77.6203C137.594 86.207 132.259 94.9299 127.525 103.788C75.1726 106.167 27.0966 133.446 27.0966 133.446C27.0966 133.446 38.7205 129.411 71.5167 125.378C100.465 121.814 119.866 110.192 126.567 105.599C122.195 113.946 118.358 122.382 115.067 130.9C113.874 133.989 112.758 137.09 111.713 140.194C97.7926 148.149 73.4416 142.71 50.6334 147.151C33.4678 150.487 17.8178 176.315 17.8178 176.315C17.8178 176.315 34.1132 154.675 60.8575 157.34C82.218 159.469 103.796 145.948 111.639 140.417C108.329 150.301 105.749 160.275 103.921 170.299C99.1322 171.159 83.1495 174.191 67.4981 178.823C49.0604 184.288 9.85387 204.144 9.85387 204.144C9.85387 204.144 27.064 203.589 50.6708 197.859C69.7422 193.223 96.9602 175.639 103.767 171.112C102.282 179.449 101.304 187.821 100.842 196.222C96.1281 197.626 80.1906 202.448 63.8412 208.298C44.3634 215.271 0.321631 246.625 0.321631 246.625C0.321631 246.625 14.7864 241.476 45.8287 230.767C72.5135 221.555 95.0134 202.361 100.806 197.15C100.422 204.725 100.451 212.319 100.905 219.924C98.1607 225.369 92.4163 241.724 98.6959 275.308C106.076 314.805 111.507 326.89 111.507 326.89C111.507 326.89 123.077 254.591 103.709 220.296C103.282 213.402 103.225 206.648 103.466 200.033C108.451 206.463 126.911 229.261 151.639 247.39C180.722 268.703 190.192 273.997 190.192 273.997C190.192 273.997 150.677 228.664 131.61 215.885C116.564 205.806 106.921 200.68 103.518 198.956C103.912 189.923 104.908 181.15 106.388 172.677C111.344 178.9 130.985 202.079 153.81 209.846C180.277 218.853 193.703 237.428 193.703 237.428C193.703 237.428 185.349 216.577 152.759 199.157C125.725 184.703 110.799 174.948 106.494 172.03C108.477 160.913 111.293 150.303 114.744 140.242C118.528 146.051 131.113 163.467 151.779 173.878C176.861 186.515 201.503 209.859 201.503 209.859C201.503 209.859 177.923 173.404 149.017 154.911C128.17 141.572 118.942 138.836 115.405 138.347C119.418 126.922 124.223 116.208 129.437 106.269C132.006 111.661 141.457 129.045 163.242 145.554C189.447 165.419 209.76 180.734 209.76 180.734C209.76 180.734 160.879 116.517 130.075 105.043C135.325 95.1958 140.973 86.1287 146.702 77.8962C148.402 82.8431 154.72 97.5967 172.271 108.9C193.66 122.672 199.99 131.945 206.805 145.315C206.805 145.315 197.401 115.436 182.699 104.382C165.499 91.4559 151.948 86.0773 146.913 77.5953C150.741 72.0974 154.599 66.987 158.363 62.2648C188.675 24.3626 220.746 2.85181 221.069 2.62772C221.709 2.19622 221.894 1.33776 221.485 0.689344C221.427 0.609957 221.37 0.530585 221.302 0.457199C220.851 0.0135651 220.137 -0.0719251 219.569 0.29021C219.241 0.503624 186.863 22.2159 156.27 60.4442C152.111 65.6406 148.182 70.9024 144.468 76.2249C137.939 76.2935 114.103 76.4835 98.4289 75.5711C80.1267 74.5084 45.2456 102.591 45.2456 102.591C45.2456 102.591 81.1329 85.1391 100.484 88.123Z" fill="#E5674E"/>
</svg>
